<?xml version="1.0" encoding="utf-8"?>
<!-- Generator: Adobe Illustrator 23.0.5, SVG Export Plug-In . SVG Version: 6.00 Build 0)  -->
<svg version="1.1" xmlns="http://www.w3.org/2000/svg" xmlns:xlink="http://www.w3.org/1999/xlink" x="0px" y="0px"
	 viewBox="0 0 400 400" style="enable-background:new 0 0 400 400;" xml:space="preserve">
<style type="text/css">
	.st0{display:none;}
	.st1{display:inline;}
	.st2{fill:#FFFFFF;stroke:#000000;stroke-width:7;stroke-miterlimit:10;}
	.st3{display:inline;fill:none;stroke:#0D553F;stroke-width:3;stroke-linecap:round;stroke-linejoin:round;stroke-miterlimit:10;}
	.st4{display:inline;fill:none;stroke:#BC8D16;stroke-width:3;stroke-linecap:round;stroke-linejoin:round;stroke-miterlimit:10;}
	.st5{display:inline;fill:none;stroke:#97D2B5;stroke-width:3;stroke-linecap:round;stroke-linejoin:round;stroke-miterlimit:10;}
	.st6{display:inline;fill:none;stroke:#7F58A5;stroke-width:3;stroke-linecap:round;stroke-linejoin:round;stroke-miterlimit:10;}
	.st7{display:inline;fill:none;stroke:#AE132A;stroke-width:3;stroke-linecap:round;stroke-linejoin:round;stroke-miterlimit:10;}
	.st8{display:inline;fill:none;stroke:#F36C52;stroke-width:3;stroke-linecap:round;stroke-linejoin:round;stroke-miterlimit:10;}
	.st9{display:inline;fill:#0D553F;}
	.st10{display:inline;fill:#BC8D16;}
	.st11{display:inline;fill:#97D2B5;}
	.st12{display:inline;fill:#7F58A5;}
	.st13{display:inline;fill:#AE132A;}
	.st14{display:inline;fill:#F36C52;}
	.st15{fill:none;stroke:#0D553F;stroke-width:3;stroke-linecap:round;stroke-linejoin:round;stroke-dasharray:0.7632,5.9257;}
	.st16{fill:none;stroke:#BC8D16;stroke-width:3;stroke-linecap:round;stroke-linejoin:round;stroke-dasharray:0.7632,5.9257;}
	.st17{fill:none;stroke:#97D2B5;stroke-width:3;stroke-linecap:round;stroke-linejoin:round;stroke-dasharray:0.7632,5.9257;}
	.st18{fill:none;stroke:#7F58A5;stroke-width:3;stroke-linecap:round;stroke-linejoin:round;stroke-dasharray:0.7632,5.9257;}
	.st19{fill:none;stroke:#AE132A;stroke-width:3;stroke-linecap:round;stroke-linejoin:round;stroke-dasharray:0.7632,5.9257;}
	.st20{fill:none;stroke:#F36C52;stroke-width:3;stroke-linecap:round;stroke-linejoin:round;stroke-dasharray:0.7632,5.9257;}
	.st21{fill:#97D2B5;}
	.st22{fill:none;stroke:#7F58A5;stroke-width:3;stroke-linecap:round;stroke-linejoin:round;stroke-miterlimit:10;}
	.st23{fill:none;stroke:#0D553F;stroke-width:3;stroke-linecap:round;stroke-linejoin:round;stroke-miterlimit:10;}
	.st24{fill:#BC8D16;}
	.st25{fill:none;stroke:#BC8D16;stroke-width:3;stroke-linecap:round;stroke-linejoin:round;stroke-miterlimit:10;}
	.st26{fill:none;stroke:#97D2B5;stroke-width:3;stroke-linecap:round;stroke-linejoin:round;stroke-miterlimit:10;}
	.st27{fill:none;stroke:#AE132A;stroke-width:3;stroke-linecap:round;stroke-linejoin:round;stroke-miterlimit:10;}
	.st28{fill:#AE132A;}
	.st29{fill:#7F58A5;}
	.st30{fill:#FFFFFF;}
	.st31{fill:none;stroke:#000000;stroke-width:4;stroke-linecap:round;stroke-linejoin:round;stroke-miterlimit:10;}
	.st32{fill:none;stroke:#000000;stroke-width:8.7276;stroke-linecap:round;stroke-linejoin:round;stroke-miterlimit:10;}
	.st33{fill:none;stroke:#000000;stroke-width:6.4092;stroke-linecap:round;stroke-linejoin:round;stroke-miterlimit:10;}
</style>
<g id="Circles" class="st0">
	<g class="st1">
		<g>
			<circle class="st2" cx="200" cy="200" r="110"/>
		</g>
	</g>
</g>
<g id="Layer_1">
	<g>
		<g>
			<path class="st21" d="M214.91,200.81c2.4,0.39,4.11,2.12,5.47,4.03c1.2,1.69,2.34,3.42,3.55,5.1c1.14,1.58,2.29,3.16,3.5,4.69
				c1.04,1.33,2.11,2.65,3.46,3.69c0.64,0.49,1.68,0.1,2.05-0.54c0.45-0.77,0.11-1.56-0.54-2.05c0.27,0.2-0.11-0.11-0.17-0.16
				c-0.14-0.13-0.27-0.26-0.4-0.39c-0.26-0.26-0.51-0.54-0.76-0.82c-0.63-0.71-1.23-1.46-1.81-2.21c-1.12-1.45-2.19-2.95-3.27-4.44
				c-2.71-3.75-5.22-8.96-10.29-9.79c-0.8-0.13-1.61,0.21-1.85,1.05C213.67,199.68,214.11,200.67,214.91,200.81L214.91,200.81z"/>
		</g>
	</g>
	<g>
		<g>
			<path class="st21" d="M213.52,211.09c0.05,0.05,0.1,0.09,0.14,0.15c-0.12-0.17-0.14-0.18-0.05-0.05c0.04,0.06,0.07,0.12,0.1,0.19
				c-0.08-0.19-0.08-0.21-0.03-0.06c0.04,0.14,0.09,0.28,0.12,0.42c0.02,0.07,0.03,0.14,0.04,0.21c0.03,0.17,0.02,0.15-0.01-0.07
				c0.09,0.2,0.04,0.57,0.04,0.78c0,0.15-0.01,0.3-0.02,0.45c-0.01,0.07-0.01,0.15-0.02,0.22c-0.02,0.17-0.02,0.15,0.01-0.07
				c0.03,0.25-0.13,0.64-0.2,0.87c-0.03,0.11-0.07,0.21-0.1,0.32c-0.03,0.08-0.16,0.55-0.05,0.16c-0.08,0.27-0.27,0.55-0.41,0.79
				c-0.08,0.13-0.16,0.25-0.25,0.37c-0.04,0.06-0.09,0.12-0.13,0.18c0.12-0.16,0.13-0.17,0.02-0.04c-0.5,0.6-0.64,1.54,0,2.12
				c0.55,0.51,1.59,0.65,2.12,0c1.09-1.31,1.74-2.81,1.96-4.5c0.2-1.55,0.02-3.46-1.17-4.6c-0.57-0.54-1.56-0.61-2.12,0
				C212.98,209.56,212.91,210.51,213.52,211.09L213.52,211.09z"/>
		</g>
	</g>
	<path class="st22" d="M184.23,213.91C184.23,213.91,184.23,213.91,184.23,213.91c-3.79,3.05-8.64,4.45-15.02,2.52
		c0,0-6.51,2.73-18.01-8.76c-11.51-11.51-8.77-18.01-8.77-18.01c-1.41-4.71-1.02-8.58,0.51-11.81c0,0-0.01-0.01,0-0.01
		c3.33-7.03,12.04-10.96,19.13-13.57c1.43-0.52,2.79-0.99,4.03-1.42c0.39-0.13,0.78-0.27,1.14-0.4c1.71-0.61,3.13-1.14,4.04-1.63
		c0,0-1.13,6.41,9.62,17.16c10.74,10.74,17.16,9.61,17.16,9.61c-0.47,0.88-0.99,2.22-1.56,3.85
		C194.27,197.76,190.99,208.47,184.23,213.91z"/>
	<path class="st22" d="M198.07,187.58c0,0-6.41,1.13-17.16-9.61c-10.75-10.75-9.62-17.16-9.62-17.16
		c4.14-2.26,10.37,2.73,14.06,6.34l-2.18,3.09c0.36,2.47,3,5.1,5.47,5.47l3.08-2.18C195.34,177.22,200.33,183.44,198.07,187.58z"/>
	<line class="st22" x1="191.73" y1="173.52" x2="191.72" y2="173.51"/>
	<path class="st22" d="M192.59,172.9l-0.86,0.62l-3.08,2.18c-2.47-0.37-5.11-3-5.47-5.47l2.18-3.09l0.62-0.86
		c1.05-1.49,3.19-1.67,4.48-0.38l2.53,2.53C194.26,169.71,194.08,171.85,192.59,172.9z"/>
	<path class="st22" d="M196.51,191.43c4.11,3.16,12.71,6.31,12.71,6.31c3.04,4.46,2.27,8.06,2.27,8.06s-7.99-1.48-12.59,0.71
		c-4.51,2.14-14.26,7.19-14.66,7.39"/>
	<path class="st22" d="M142.95,177.83c-1.12-6.35-0.31-13.21,2.07-19.2c2.02-5.08,5.95-10.59,12.13-9.69
		c6.12,0.9,9.53,6.75,8.96,12.44"/>
	<path class="st22" d="M161.02,164.26c0,0,1.29-8.38-4.33-9.88c-5.93-0.84-9.25,10.87-8.81,17.11"/>
	<line class="st25" x1="206.33" y1="247.21" x2="243.22" y2="247.21"/>
	<path class="st25" d="M224.77,241.69L224.77,241.69c-7.75,0-14.69-4.8-17.41-12.06l-4.74-12.61h44.31l-4.74,12.61
		C239.46,236.89,232.52,241.69,224.77,241.69z"/>
	<path class="st25" d="M244.39,223.77c3.56-2.47,12.43-3.12,11.85,3.42c-0.31,3.53-4.31,6.19-7.2,7.63
		c-2.99,1.49-7.06,2.47-9.8-0.03"/>
</g>
</svg>
