<?xml version="1.0" encoding="utf-8"?>
<!-- Generator: Adobe Illustrator 23.0.5, SVG Export Plug-In . SVG Version: 6.00 Build 0)  -->
<svg version="1.1" xmlns="http://www.w3.org/2000/svg" xmlns:xlink="http://www.w3.org/1999/xlink" x="0px" y="0px"
	 viewBox="0 0 400 400" style="enable-background:new 0 0 400 400;" xml:space="preserve">
<style type="text/css">
	.st0{display:none;}
	.st1{display:inline;}
	.st2{fill:#FFFFFF;stroke:#000000;stroke-width:7;stroke-miterlimit:10;}
	.st3{display:inline;fill:none;stroke:#0D553F;stroke-width:3;stroke-linecap:round;stroke-linejoin:round;stroke-miterlimit:10;}
	.st4{display:inline;fill:none;stroke:#BC8D16;stroke-width:3;stroke-linecap:round;stroke-linejoin:round;stroke-miterlimit:10;}
	.st5{display:inline;fill:none;stroke:#97D2B5;stroke-width:3;stroke-linecap:round;stroke-linejoin:round;stroke-miterlimit:10;}
	.st6{display:inline;fill:none;stroke:#7F58A5;stroke-width:3;stroke-linecap:round;stroke-linejoin:round;stroke-miterlimit:10;}
	.st7{display:inline;fill:none;stroke:#AE132A;stroke-width:3;stroke-linecap:round;stroke-linejoin:round;stroke-miterlimit:10;}
	.st8{display:inline;fill:none;stroke:#F36C52;stroke-width:3;stroke-linecap:round;stroke-linejoin:round;stroke-miterlimit:10;}
	.st9{display:inline;fill:#0D553F;}
	.st10{display:inline;fill:#BC8D16;}
	.st11{display:inline;fill:#97D2B5;}
	.st12{display:inline;fill:#7F58A5;}
	.st13{display:inline;fill:#AE132A;}
	.st14{display:inline;fill:#F36C52;}
	.st15{fill:none;stroke:#0D553F;stroke-width:3;stroke-linecap:round;stroke-linejoin:round;stroke-dasharray:0.7632,5.9257;}
	.st16{fill:none;stroke:#BC8D16;stroke-width:3;stroke-linecap:round;stroke-linejoin:round;stroke-dasharray:0.7632,5.9257;}
	.st17{fill:none;stroke:#97D2B5;stroke-width:3;stroke-linecap:round;stroke-linejoin:round;stroke-dasharray:0.7632,5.9257;}
	.st18{fill:none;stroke:#7F58A5;stroke-width:3;stroke-linecap:round;stroke-linejoin:round;stroke-dasharray:0.7632,5.9257;}
	.st19{fill:none;stroke:#AE132A;stroke-width:3;stroke-linecap:round;stroke-linejoin:round;stroke-dasharray:0.7632,5.9257;}
	.st20{fill:none;stroke:#F36C52;stroke-width:3;stroke-linecap:round;stroke-linejoin:round;stroke-dasharray:0.7632,5.9257;}
	.st21{fill:#97D2B5;}
	.st22{fill:none;stroke:#7F58A5;stroke-width:3;stroke-linecap:round;stroke-linejoin:round;stroke-miterlimit:10;}
	.st23{fill:none;stroke:#0D553F;stroke-width:3;stroke-linecap:round;stroke-linejoin:round;stroke-miterlimit:10;}
	.st24{fill:#BC8D16;}
	.st25{fill:none;stroke:#BC8D16;stroke-width:3;stroke-linecap:round;stroke-linejoin:round;stroke-miterlimit:10;}
	.st26{fill:none;stroke:#97D2B5;stroke-width:3;stroke-linecap:round;stroke-linejoin:round;stroke-miterlimit:10;}
	.st27{fill:none;stroke:#AE132A;stroke-width:3;stroke-linecap:round;stroke-linejoin:round;stroke-miterlimit:10;}
	.st28{fill:#AE132A;}
	.st29{fill:#7F58A5;}
	.st30{fill:#FFFFFF;}
	.st31{fill:none;stroke:#000000;stroke-width:4;stroke-linecap:round;stroke-linejoin:round;stroke-miterlimit:10;}
	.st32{fill:none;stroke:#000000;stroke-width:8.7276;stroke-linecap:round;stroke-linejoin:round;stroke-miterlimit:10;}
	.st33{fill:none;stroke:#000000;stroke-width:6.4092;stroke-linecap:round;stroke-linejoin:round;stroke-miterlimit:10;}
</style>
<g id="Circles" class="st0">
	<g class="st1">
		<g>
			<circle class="st2" cx="200" cy="200" r="110"/>
		</g>
	</g>
</g>
<g id="Layer_1">
	<path class="st22" d="M216.79,211.11c5.16-0.68,13.51-4.55,13.51-4.55c5.33,1.01,7.34,4.11,7.34,4.11s-6.73,4.63-8.44,9.45
		c-1.68,4.72-5.02,15.23-5.16,15.67"/>
	<path class="st22" d="M169.08,239.5c-5.31-3.72-9.61-9.16-12.16-15.11c-2.17-5.04-3.3-11.75,1.73-15.5
		c4.99-3.71,11.56-1.97,15.2,2.47"/>
	<path class="st22" d="M172.28,217.02c0,0-5.03-6.87-10.1-3.94c-4.81,3.62,1.15,14.29,5.89,18.42"/>
	<path class="st22" d="M206.88,202c1.44,0.38,2.86,0.86,4.23,1.44c0.63,0.27,4.86,2.64,4.04,3.82c0,0-3.75,5.36-19.02,5.36
		c-15.27,0-19.03-5.36-19.03-5.36c2.66-4.01,7.2-5.73,11.8-6.32"/>
	<path class="st22" d="M224.03,235.8c0,0.01,0,0.01,0,0.01c-0.53,4.84-2.98,9.29-8.87,12.45c0,0-2.68,6.57-19.02,6.57
		c-16.35,0-19.03-6.57-19.03-6.57c-4.35-2.34-6.82-5.37-8.03-8.75c0,0-0.01,0-0.01-0.01c-2.63-7.36,0.76-16.34,3.95-23.23
		c0.65-1.38,1.28-2.69,1.86-3.88c0.19-0.37,0.36-0.74,0.53-1.09c0.78-1.65,1.41-3.03,1.71-4.03c0,0,3.75,5.36,19.03,5.36
		c15.26,0,19.02-5.36,19.02-5.36c0.29,0.96,0.88,2.28,1.63,3.84C219.69,217.2,224.97,227.13,224.03,235.8z"/>
	<path class="st22" d="M190.82,164.03c0,0,0.74,6.5-10.69,16.61c-11.44,10.12-17.8,8.59-17.8,8.59c-2.01-4.29,3.38-10.23,7.22-13.71
		l2.97,2.37c2.5-0.21,5.3-2.69,5.82-5.15l-2-3.23C180.27,166.13,186.82,161.5,190.82,164.03z"/>
	<path class="st22" d="M175.77,168.62l0.57,0.9l2,3.23c-0.52,2.46-3.32,4.94-5.82,5.15l-2.97-2.37l-0.83-0.67
		c-1.43-1.15-1.48-3.3-0.11-4.51l2.69-2.38C172.67,166.75,174.81,167.06,175.77,168.62z"/>
	<path class="st23" d="M211.66,153.36c-3.57,5.54-4.91,12.44-3.26,18.88c0.07,0.27,0.14,0.54,0.22,0.81
		c0.42-2.27,1.73-4.29,3.26-6.03c1.52-1.74,3.27-3.27,4.8-5.01c4.93-5.62,7.27-13.43,6.22-20.83c0.02,0.15-1.38,1.13-1.56,1.28
		c-0.55,0.48-1.08,0.98-1.59,1.49C216.81,146.86,213.88,149.9,211.66,153.36z"/>
	<path class="st23" d="M208.62,173.05c10.69,0.41,21.53,6.94,27.19,16.02c7.14-8.28,14.35-16.67,19.12-26.51
		c-9.93-7.58-21.18-15.2-32.03-21.38"/>
	<g>
		<path class="st24" d="M198.5,180.8c2.12,0,2.13-3.3,0-3.3C196.38,177.5,196.38,180.8,198.5,180.8L198.5,180.8z"/>
	</g>
	<g>
		<path class="st24" d="M200.59,185.4c2.12,0,2.13-3.3,0-3.3C198.46,182.1,198.46,185.4,200.59,185.4L200.59,185.4z"/>
	</g>
	<g>
		<path class="st24" d="M195.43,187.68c2.12,0,2.13-3.3,0-3.3C193.31,184.38,193.31,187.68,195.43,187.68L195.43,187.68z"/>
	</g>
	<g>
		<path class="st24" d="M196.89,193.94c2.12,0,2.13-3.3,0-3.3C194.76,190.64,194.76,193.94,196.89,193.94L196.89,193.94z"/>
	</g>
	<g>
		<path class="st24" d="M195.29,201.65c2.12,0,2.13-3.3,0-3.3C193.17,198.35,193.17,201.65,195.29,201.65L195.29,201.65z"/>
	</g>
	<g>
		<path class="st24" d="M199.59,197.8c2.12,0,2.13-3.3,0-3.3C197.46,194.5,197.46,197.8,199.59,197.8L199.59,197.8z"/>
	</g>
	<g>
		<path class="st24" d="M201.01,209.62c2.12,0,2.13-3.3,0-3.3C198.89,206.32,198.88,209.62,201.01,209.62L201.01,209.62z"/>
	</g>
	<g>
		<path class="st24" d="M194.68,206.83c2.12,0,2.13-3.3,0-3.3C192.55,203.53,192.55,206.83,194.68,206.83L194.68,206.83z"/>
	</g>
	<g>
		<path class="st24" d="M202.16,174.55c2.12,0,2.13-3.3,0-3.3C200.04,171.25,200.04,174.55,202.16,174.55L202.16,174.55z"/>
	</g>
	<g>
		<path class="st24" d="M203.19,179.55c2.12,0,2.13-3.3,0-3.3C201.07,176.25,201.07,179.55,203.19,179.55L203.19,179.55z"/>
	</g>
	<g>
		<path class="st24" d="M201.86,190.95c2.12,0,2.13-3.3,0-3.3C199.74,187.65,199.73,190.95,201.86,190.95L201.86,190.95z"/>
	</g>
	<g>
		<path class="st24" d="M201.18,203.3c2.12,0,2.13-3.3,0-3.3C199.06,200,199.05,203.3,201.18,203.3L201.18,203.3z"/>
	</g>
	<g>
		<path class="st24" d="M204.53,195.26c2.12,0,2.13-3.3,0-3.3C202.4,191.96,202.4,195.26,204.53,195.26L204.53,195.26z"/>
	</g>
	<g>
		<path class="st24" d="M191.79,197.8c2.12,0,2.13-3.3,0-3.3C189.66,194.5,189.66,197.8,191.79,197.8L191.79,197.8z"/>
	</g>
</g>
</svg>
