<?xml version="1.0" encoding="utf-8"?>
<!-- Generator: Adobe Illustrator 23.0.5, SVG Export Plug-In . SVG Version: 6.00 Build 0)  -->
<svg version="1.1" xmlns="http://www.w3.org/2000/svg" xmlns:xlink="http://www.w3.org/1999/xlink" x="0px" y="0px"
	 viewBox="0 0 400 400" style="enable-background:new 0 0 400 400;" xml:space="preserve">
<style type="text/css">
	.st0{display:none;}
	.st1{display:inline;}
	.st2{fill:#FFFFFF;stroke:#000000;stroke-width:7;stroke-miterlimit:10;}
	.st3{display:inline;fill:none;stroke:#0D553F;stroke-width:3;stroke-linecap:round;stroke-linejoin:round;stroke-miterlimit:10;}
	.st4{display:inline;fill:none;stroke:#BC8D16;stroke-width:3;stroke-linecap:round;stroke-linejoin:round;stroke-miterlimit:10;}
	.st5{display:inline;fill:none;stroke:#97D2B5;stroke-width:3;stroke-linecap:round;stroke-linejoin:round;stroke-miterlimit:10;}
	.st6{display:inline;fill:none;stroke:#7F58A5;stroke-width:3;stroke-linecap:round;stroke-linejoin:round;stroke-miterlimit:10;}
	.st7{display:inline;fill:none;stroke:#AE132A;stroke-width:3;stroke-linecap:round;stroke-linejoin:round;stroke-miterlimit:10;}
	.st8{display:inline;fill:none;stroke:#F36C52;stroke-width:3;stroke-linecap:round;stroke-linejoin:round;stroke-miterlimit:10;}
	.st9{display:inline;fill:#0D553F;}
	.st10{display:inline;fill:#BC8D16;}
	.st11{display:inline;fill:#97D2B5;}
	.st12{display:inline;fill:#7F58A5;}
	.st13{display:inline;fill:#AE132A;}
	.st14{display:inline;fill:#F36C52;}
	.st15{fill:none;stroke:#0D553F;stroke-width:3;stroke-linecap:round;stroke-linejoin:round;stroke-dasharray:0.7632,5.9257;}
	.st16{fill:none;stroke:#BC8D16;stroke-width:3;stroke-linecap:round;stroke-linejoin:round;stroke-dasharray:0.7632,5.9257;}
	.st17{fill:none;stroke:#97D2B5;stroke-width:3;stroke-linecap:round;stroke-linejoin:round;stroke-dasharray:0.7632,5.9257;}
	.st18{fill:none;stroke:#7F58A5;stroke-width:3;stroke-linecap:round;stroke-linejoin:round;stroke-dasharray:0.7632,5.9257;}
	.st19{fill:none;stroke:#AE132A;stroke-width:3;stroke-linecap:round;stroke-linejoin:round;stroke-dasharray:0.7632,5.9257;}
	.st20{fill:none;stroke:#F36C52;stroke-width:3;stroke-linecap:round;stroke-linejoin:round;stroke-dasharray:0.7632,5.9257;}
	.st21{fill:#97D2B5;}
	.st22{fill:none;stroke:#7F58A5;stroke-width:3;stroke-linecap:round;stroke-linejoin:round;stroke-miterlimit:10;}
	.st23{fill:none;stroke:#0D553F;stroke-width:3;stroke-linecap:round;stroke-linejoin:round;stroke-miterlimit:10;}
	.st24{fill:#BC8D16;}
	.st25{fill:none;stroke:#BC8D16;stroke-width:3;stroke-linecap:round;stroke-linejoin:round;stroke-miterlimit:10;}
	.st26{fill:none;stroke:#97D2B5;stroke-width:3;stroke-linecap:round;stroke-linejoin:round;stroke-miterlimit:10;}
	.st27{fill:none;stroke:#AE132A;stroke-width:3;stroke-linecap:round;stroke-linejoin:round;stroke-miterlimit:10;}
	.st28{fill:#AE132A;}
	.st29{fill:#7F58A5;}
	.st30{fill:#FFFFFF;}
	.st31{fill:none;stroke:#000000;stroke-width:4;stroke-linecap:round;stroke-linejoin:round;stroke-miterlimit:10;}
	.st32{fill:none;stroke:#000000;stroke-width:8.7276;stroke-linecap:round;stroke-linejoin:round;stroke-miterlimit:10;}
	.st33{fill:none;stroke:#000000;stroke-width:6.4092;stroke-linecap:round;stroke-linejoin:round;stroke-miterlimit:10;}
</style>
<g id="Circles" class="st0">
	<g class="st1">
		<g>
			<circle class="st2" cx="200" cy="200" r="110"/>
		</g>
	</g>
</g>
<g id="Layer_1">
	<path class="st22" d="M194.14,209.57c2.35,0.39,4.65,1.01,6.84,1.95c0.57,0.25,4.43,2.4,3.68,3.48c0,0-3.41,4.88-17.32,4.88
		c-4.91,0-8.51-0.61-11.12-1.39c-0.16-0.05-0.32-0.1-0.47-0.15c-3.95-1.28-5.43-2.96-5.68-3.28c-0.02-0.02-0.03-0.04-0.04-0.04
		c-0.01-0.01-0.01-0.02-0.01-0.02c0-0.01,0-0.01,0-0.01c2.14-3.23,5.65-4.84,9.33-5.53"/>
	<path class="st22" d="M182.49,175.62c0,0,0.68,5.92-9.74,15.13c-10.42,9.22-16.21,7.82-16.21,7.82c-1.83-3.91,3.08-9.31,6.57-12.48
		l2.7,2.16c2.27-0.19,4.82-2.45,5.3-4.69l-1.82-2.94C172.88,177.53,178.84,173.32,182.49,175.62z"/>
	<line class="st22" x1="169.3" y1="180.62" x2="169.29" y2="180.63"/>
	<path class="st22" d="M168.79,179.8l0.51,0.82l1.82,2.94c-0.48,2.24-3.03,4.5-5.3,4.69l-2.7-2.16l-0.75-0.61
		c-1.3-1.04-1.35-3.01-0.1-4.11l2.45-2.17C165.97,178.1,167.91,178.38,168.79,179.8z"/>
	<path class="st22" d="M206.14,218.49c4.7-0.62,12.3-4.14,12.3-4.14c4.85,0.92,6.68,3.74,6.68,3.74s-6.13,4.21-7.69,8.61
		c-1.53,4.3-4.57,13.87-4.7,14.27"/>
	<path class="st22" d="M162.69,244.34c-4.83-3.39-8.75-8.34-11.07-13.76c-1.98-4.59-3-10.7,1.58-14.12
		c4.54-3.38,10.53-1.79,13.84,2.25"/>
	<path class="st22" d="M165.6,223.87c0,0-4.58-6.26-9.19-3.59c-4.38,3.3,1.05,13.01,5.37,16.77"/>
	<path class="st25" d="M198.1,191.02c0,0,4.68-5.72,10.03-4.82c5.34,0.9,54.1,15.6,54.1,15.6l7.83-46.58l-65.38-3.32L198.1,191.02z"
		/>
	<path class="st25" d="M211.54,152.25l1.14-6.81c0.79-4.69,6-7.18,10.15-4.85l23.9,13.45"/>
	<path class="st25" d="M217.96,152.57l1.01-6.07c0.02-0.07,0.05-0.25,0.28-0.36c0.08-0.05,0.15-0.05,0.22-0.05
		c0.11,0,0.19,0.05,0.24,0.06l12.73,7.17"/>
	
		<rect x="231.25" y="153.11" transform="matrix(0.1658 -0.9862 0.9862 0.1658 24.4742 375.1339)" class="st26" width="5.44" height="39.99"/>
	<path class="st26" d="M193.34,188.25c-6.18,6.28-14.89,17.16-15.61,29.29"/>
	<path class="st26" d="M195.4,195.47c-1.88,7.15-3.11,16.8,1.82,23.05"/>
	<path class="st22" d="M212.73,240.97C212.73,240.98,212.73,240.98,212.73,240.97c-0.48,4.42-2.71,8.47-8.08,11.35
		c0,0-2.44,5.98-17.32,5.98c-14.89,0-17.33-5.98-17.33-5.98c-3.96-2.13-6.21-4.89-7.31-7.97c0,0-0.01,0-0.01-0.01
		c-2.39-6.7,0.69-14.88,3.59-21.15c0.59-1.26,1.16-2.45,1.69-3.53c0.17-0.34,0.33-0.68,0.48-0.99c0.71-1.5,1.29-2.76,1.56-3.67
		c0,0,3.42,4.88,17.33,4.88c13.9,0,17.32-4.88,17.32-4.88c0.26,0.87,0.8,2.07,1.48,3.5C208.78,224.04,213.59,233.08,212.73,240.97z"
		/>
</g>
</svg>
