<?xml version="1.0" encoding="utf-8"?>
<!-- Generator: Adobe Illustrator 23.0.5, SVG Export Plug-In . SVG Version: 6.00 Build 0)  -->
<svg version="1.1" xmlns="http://www.w3.org/2000/svg" xmlns:xlink="http://www.w3.org/1999/xlink" x="0px" y="0px"
	 viewBox="0 0 400 400" style="enable-background:new 0 0 400 400;" xml:space="preserve">
<style type="text/css">
	.st0{display:none;}
	.st1{display:inline;}
	.st2{fill:#FFFFFF;stroke:#000000;stroke-width:7;stroke-miterlimit:10;}
	.st3{display:inline;fill:none;stroke:#0D553F;stroke-width:3;stroke-linecap:round;stroke-linejoin:round;stroke-miterlimit:10;}
	.st4{display:inline;fill:none;stroke:#BC8D16;stroke-width:3;stroke-linecap:round;stroke-linejoin:round;stroke-miterlimit:10;}
	.st5{display:inline;fill:none;stroke:#97D2B5;stroke-width:3;stroke-linecap:round;stroke-linejoin:round;stroke-miterlimit:10;}
	.st6{display:inline;fill:none;stroke:#7F58A5;stroke-width:3;stroke-linecap:round;stroke-linejoin:round;stroke-miterlimit:10;}
	.st7{display:inline;fill:none;stroke:#AE132A;stroke-width:3;stroke-linecap:round;stroke-linejoin:round;stroke-miterlimit:10;}
	.st8{display:inline;fill:none;stroke:#F36C52;stroke-width:3;stroke-linecap:round;stroke-linejoin:round;stroke-miterlimit:10;}
	.st9{display:inline;fill:#0D553F;}
	.st10{display:inline;fill:#BC8D16;}
	.st11{display:inline;fill:#97D2B5;}
	.st12{display:inline;fill:#7F58A5;}
	.st13{display:inline;fill:#AE132A;}
	.st14{display:inline;fill:#F36C52;}
	.st15{fill:none;stroke:#0D553F;stroke-width:3;stroke-linecap:round;stroke-linejoin:round;stroke-dasharray:0.7632,5.9257;}
	.st16{fill:none;stroke:#BC8D16;stroke-width:3;stroke-linecap:round;stroke-linejoin:round;stroke-dasharray:0.7632,5.9257;}
	.st17{fill:none;stroke:#97D2B5;stroke-width:3;stroke-linecap:round;stroke-linejoin:round;stroke-dasharray:0.7632,5.9257;}
	.st18{fill:none;stroke:#7F58A5;stroke-width:3;stroke-linecap:round;stroke-linejoin:round;stroke-dasharray:0.7632,5.9257;}
	.st19{fill:none;stroke:#AE132A;stroke-width:3;stroke-linecap:round;stroke-linejoin:round;stroke-dasharray:0.7632,5.9257;}
	.st20{fill:none;stroke:#F36C52;stroke-width:3;stroke-linecap:round;stroke-linejoin:round;stroke-dasharray:0.7632,5.9257;}
	.st21{fill:#97D2B5;}
	.st22{fill:none;stroke:#7F58A5;stroke-width:3;stroke-linecap:round;stroke-linejoin:round;stroke-miterlimit:10;}
	.st23{fill:none;stroke:#0D553F;stroke-width:3;stroke-linecap:round;stroke-linejoin:round;stroke-miterlimit:10;}
	.st24{fill:#BC8D16;}
	.st25{fill:none;stroke:#BC8D16;stroke-width:3;stroke-linecap:round;stroke-linejoin:round;stroke-miterlimit:10;}
	.st26{fill:none;stroke:#97D2B5;stroke-width:3;stroke-linecap:round;stroke-linejoin:round;stroke-miterlimit:10;}
	.st27{fill:none;stroke:#AE132A;stroke-width:3;stroke-linecap:round;stroke-linejoin:round;stroke-miterlimit:10;}
	.st28{fill:#AE132A;}
	.st29{fill:#7F58A5;}
	.st30{fill:#FFFFFF;}
	.st31{fill:none;stroke:#000000;stroke-width:4;stroke-linecap:round;stroke-linejoin:round;stroke-miterlimit:10;}
	.st32{fill:none;stroke:#000000;stroke-width:8.7276;stroke-linecap:round;stroke-linejoin:round;stroke-miterlimit:10;}
	.st33{fill:none;stroke:#000000;stroke-width:6.4092;stroke-linecap:round;stroke-linejoin:round;stroke-miterlimit:10;}
</style>
<g id="Circles" class="st0">
	<g class="st1">
		<g>
			<circle class="st2" cx="200" cy="200" r="110"/>
		</g>
	</g>
</g>
<g id="Layer_1">
	<g>
		<circle class="st29" cx="204.19" cy="150.99" r="8.9"/>
	</g>
	<g>
		<path class="st29" d="M194.81,228.97c-0.41,0-0.82-0.06-1.23-0.18c-2.31-0.68-3.64-3.1-2.96-5.42l6.35-21.62l-4.66-1.24
			c-2.33-0.62-3.72-3.01-3.1-5.34c0.62-2.33,3.01-3.72,5.34-3.1l8.99,2.39c1.14,0.3,2.11,1.05,2.68,2.08
			c0.58,1.03,0.72,2.24,0.38,3.37l-7.62,25.92C198.43,227.74,196.7,228.97,194.81,228.97z"/>
	</g>
	<g>
		<path class="st29" d="M182.95,197.88c-0.69,0-1.39-0.16-2.04-0.51c-2.13-1.13-2.94-3.77-1.81-5.9l15.14-28.57
			c0.71-1.34,2.07-2.22,3.58-2.31c1.51-0.1,2.97,0.6,3.84,1.85l9.05,12.88l12.25-2.3c2.37-0.44,4.65,1.11,5.1,3.48
			c0.45,2.37-1.11,4.65-3.48,5.1l-15.01,2.82c-1.68,0.31-3.39-0.38-4.38-1.78l-6.57-9.35l-11.8,22.28
			C186.02,197.04,184.51,197.88,182.95,197.88z"/>
	</g>
	<g>
		<path class="st29" d="M172.96,237.62c-0.57,0-1.14-0.11-1.7-0.35c-2.22-0.94-3.26-3.5-2.32-5.72l8.32-19.64l1.33-18.7
			c0.17-2.4,2.3-4.22,4.66-4.04c2.4,0.17,4.21,2.26,4.04,4.66l-1.38,19.42c-0.03,0.48-0.15,0.95-0.33,1.39l-8.61,20.31
			C176.28,236.62,174.66,237.62,172.96,237.62z"/>
	</g>
	<g>
		<path class="st24" d="M190.66,155.71l-7.09-5.13c-1.34-0.97-3.22-0.57-4.06,0.85l-4.89,8.32c-0.25,0.42-0.38,0.9-0.39,1.4
			l-0.17,20.17c-0.02,2.95,3.93,3.93,5.29,1.32l12.14-23.36C192.15,158.05,191.79,156.53,190.66,155.71z"/>
	</g>
	<g>
		<path class="st24" d="M233.49,160.14L222.24,204c-0.23,0.92-1.15,1.48-2.07,1.25c-0.89-0.22-1.45-1.11-1.26-2l8.92-44.39
			c0.32-1.57,1.86-2.59,3.43-2.26c1.57,0.32,2.59,1.86,2.26,3.43C233.51,160.06,233.5,160.11,233.49,160.14z"/>
	</g>
	<polyline class="st23" points="135.39,273.39 145.92,266.51 155.2,257.88 166.88,252.63 174.91,242.25 185.32,235.21 199.2,233.05 
		208.15,223.95 215.53,212.64 225.73,205.29 236.08,198.14 	"/>
</g>
</svg>
