<?xml version="1.0" encoding="utf-8"?>
<!-- Generator: Adobe Illustrator 23.0.5, SVG Export Plug-In . SVG Version: 6.00 Build 0)  -->
<svg version="1.1" xmlns="http://www.w3.org/2000/svg" xmlns:xlink="http://www.w3.org/1999/xlink" x="0px" y="0px"
	 viewBox="0 0 400 400" style="enable-background:new 0 0 400 400;" xml:space="preserve">
<style type="text/css">
	.st0{display:none;}
	.st1{display:inline;}
	.st2{fill:#FFFFFF;stroke:#000000;stroke-width:7;stroke-miterlimit:10;}
	.st3{display:inline;fill:none;stroke:#0D553F;stroke-width:3;stroke-linecap:round;stroke-linejoin:round;stroke-miterlimit:10;}
	.st4{display:inline;fill:none;stroke:#BC8D16;stroke-width:3;stroke-linecap:round;stroke-linejoin:round;stroke-miterlimit:10;}
	.st5{display:inline;fill:none;stroke:#97D2B5;stroke-width:3;stroke-linecap:round;stroke-linejoin:round;stroke-miterlimit:10;}
	.st6{display:inline;fill:none;stroke:#7F58A5;stroke-width:3;stroke-linecap:round;stroke-linejoin:round;stroke-miterlimit:10;}
	.st7{display:inline;fill:none;stroke:#AE132A;stroke-width:3;stroke-linecap:round;stroke-linejoin:round;stroke-miterlimit:10;}
	.st8{display:inline;fill:none;stroke:#F36C52;stroke-width:3;stroke-linecap:round;stroke-linejoin:round;stroke-miterlimit:10;}
	.st9{display:inline;fill:#0D553F;}
	.st10{display:inline;fill:#BC8D16;}
	.st11{display:inline;fill:#97D2B5;}
	.st12{display:inline;fill:#7F58A5;}
	.st13{display:inline;fill:#AE132A;}
	.st14{display:inline;fill:#F36C52;}
	.st15{fill:none;stroke:#0D553F;stroke-width:3;stroke-linecap:round;stroke-linejoin:round;stroke-dasharray:0.7632,5.9257;}
	.st16{fill:none;stroke:#BC8D16;stroke-width:3;stroke-linecap:round;stroke-linejoin:round;stroke-dasharray:0.7632,5.9257;}
	.st17{fill:none;stroke:#97D2B5;stroke-width:3;stroke-linecap:round;stroke-linejoin:round;stroke-dasharray:0.7632,5.9257;}
	.st18{fill:none;stroke:#7F58A5;stroke-width:3;stroke-linecap:round;stroke-linejoin:round;stroke-dasharray:0.7632,5.9257;}
	.st19{fill:none;stroke:#AE132A;stroke-width:3;stroke-linecap:round;stroke-linejoin:round;stroke-dasharray:0.7632,5.9257;}
	.st20{fill:none;stroke:#F36C52;stroke-width:3;stroke-linecap:round;stroke-linejoin:round;stroke-dasharray:0.7632,5.9257;}
	.st21{fill:#97D2B5;}
	.st22{fill:none;stroke:#7F58A5;stroke-width:3;stroke-linecap:round;stroke-linejoin:round;stroke-miterlimit:10;}
	.st23{fill:none;stroke:#0D553F;stroke-width:3;stroke-linecap:round;stroke-linejoin:round;stroke-miterlimit:10;}
	.st24{fill:#BC8D16;}
	.st25{fill:none;stroke:#BC8D16;stroke-width:3;stroke-linecap:round;stroke-linejoin:round;stroke-miterlimit:10;}
	.st26{fill:none;stroke:#97D2B5;stroke-width:3;stroke-linecap:round;stroke-linejoin:round;stroke-miterlimit:10;}
	.st27{fill:none;stroke:#AE132A;stroke-width:3;stroke-linecap:round;stroke-linejoin:round;stroke-miterlimit:10;}
	.st28{fill:#AE132A;}
	.st29{fill:#7F58A5;}
	.st30{fill:#FFFFFF;}
	.st31{fill:none;stroke:#000000;stroke-width:4;stroke-linecap:round;stroke-linejoin:round;stroke-miterlimit:10;}
	.st32{fill:none;stroke:#000000;stroke-width:8.7276;stroke-linecap:round;stroke-linejoin:round;stroke-miterlimit:10;}
	.st33{fill:none;stroke:#000000;stroke-width:6.4092;stroke-linecap:round;stroke-linejoin:round;stroke-miterlimit:10;}
</style>
<g id="Circles" class="st0">
	<g class="st1">
		<g>
			<circle class="st2" cx="200" cy="200" r="110"/>
		</g>
	</g>
</g>
<g id="Layer_1">
	<line class="st23" x1="138.76" y1="246.61" x2="261.24" y2="246.61"/>
	<g>
		<circle class="st29" cx="198.64" cy="152.94" r="9.55"/>
	</g>
	<g>
		<path class="st29" d="M203.17,242.56c-2.31,0-4.23-1.81-4.35-4.14l-1.46-28.58l-8.17-6.72c-1.2-0.99-1.79-2.54-1.53-4.08
			l5.01-30.57c0.29-1.75,1.6-3.15,3.33-3.55c1.73-0.4,3.52,0.29,4.54,1.75l10.32,14.69l12.17,1.44c2.39,0.28,4.1,2.45,3.82,4.85
			c-0.28,2.39-2.45,4.11-4.85,3.82l-14.11-1.67c-1.23-0.15-2.34-0.81-3.06-1.82l-5.29-7.53l-2.88,17.54l7.72,6.35
			c0.95,0.78,1.52,1.92,1.59,3.15l1.56,30.5c0.12,2.41-1.73,4.46-4.13,4.58C203.32,242.56,203.24,242.56,203.17,242.56z"/>
	</g>
	<g>
		<path class="st29" d="M183.6,242.56c-0.28,0-0.56-0.03-0.84-0.08c-2.37-0.46-3.91-2.75-3.45-5.12l4.78-24.55
			c0.46-2.37,2.75-3.91,5.12-3.45c2.37,0.46,3.91,2.75,3.45,5.12l-4.78,24.55C187.47,241.11,185.64,242.56,183.6,242.56z"/>
	</g>
	<g>
		<path class="st24" d="M186.29,162.75l-8.93-2.91c-1.69-0.55-3.48,0.47-3.86,2.2l-2.25,10.1c-0.11,0.51-0.09,1.05,0.07,1.55
			l6.47,20.65c0.94,3.02,5.31,2.72,5.83-0.4l4.71-27.85C188.58,164.64,187.71,163.21,186.29,162.75z"/>
	</g>
	<g>
		<path class="st24" d="M228.84,177.34l-1.28,63.92c-0.02,1.01-0.86,1.82-1.87,1.8c-0.99-0.02-1.78-0.82-1.8-1.8l-1.28-63.92
			c-0.03-1.72,1.33-3.15,3.05-3.18c1.72-0.03,3.15,1.33,3.18,3.05C228.84,177.25,228.84,177.3,228.84,177.34z"/>
	</g>
</g>
</svg>
