<?xml version="1.0" encoding="utf-8"?>
<!-- Generator: Adobe Illustrator 23.0.5, SVG Export Plug-In . SVG Version: 6.00 Build 0)  -->
<svg version="1.1" xmlns="http://www.w3.org/2000/svg" xmlns:xlink="http://www.w3.org/1999/xlink" x="0px" y="0px"
	 viewBox="0 0 400 400" style="enable-background:new 0 0 400 400;" xml:space="preserve">
<style type="text/css">
	.st0{display:none;}
	.st1{display:inline;}
	.st2{fill:#FFFFFF;stroke:#000000;stroke-width:7;stroke-miterlimit:10;}
	.st3{display:inline;fill:none;stroke:#0D553F;stroke-width:3;stroke-linecap:round;stroke-linejoin:round;stroke-miterlimit:10;}
	.st4{display:inline;fill:none;stroke:#BC8D16;stroke-width:3;stroke-linecap:round;stroke-linejoin:round;stroke-miterlimit:10;}
	.st5{display:inline;fill:none;stroke:#97D2B5;stroke-width:3;stroke-linecap:round;stroke-linejoin:round;stroke-miterlimit:10;}
	.st6{display:inline;fill:none;stroke:#7F58A5;stroke-width:3;stroke-linecap:round;stroke-linejoin:round;stroke-miterlimit:10;}
	.st7{display:inline;fill:none;stroke:#AE132A;stroke-width:3;stroke-linecap:round;stroke-linejoin:round;stroke-miterlimit:10;}
	.st8{display:inline;fill:none;stroke:#F36C52;stroke-width:3;stroke-linecap:round;stroke-linejoin:round;stroke-miterlimit:10;}
	.st9{display:inline;fill:#0D553F;}
	.st10{display:inline;fill:#BC8D16;}
	.st11{display:inline;fill:#97D2B5;}
	.st12{display:inline;fill:#7F58A5;}
	.st13{display:inline;fill:#AE132A;}
	.st14{display:inline;fill:#F36C52;}
	.st15{fill:none;stroke:#0D553F;stroke-width:3;stroke-linecap:round;stroke-linejoin:round;stroke-dasharray:0.7632,5.9257;}
	.st16{fill:none;stroke:#BC8D16;stroke-width:3;stroke-linecap:round;stroke-linejoin:round;stroke-dasharray:0.7632,5.9257;}
	.st17{fill:none;stroke:#97D2B5;stroke-width:3;stroke-linecap:round;stroke-linejoin:round;stroke-dasharray:0.7632,5.9257;}
	.st18{fill:none;stroke:#7F58A5;stroke-width:3;stroke-linecap:round;stroke-linejoin:round;stroke-dasharray:0.7632,5.9257;}
	.st19{fill:none;stroke:#AE132A;stroke-width:3;stroke-linecap:round;stroke-linejoin:round;stroke-dasharray:0.7632,5.9257;}
	.st20{fill:none;stroke:#F36C52;stroke-width:3;stroke-linecap:round;stroke-linejoin:round;stroke-dasharray:0.7632,5.9257;}
	.st21{fill:#97D2B5;}
	.st22{fill:none;stroke:#7F58A5;stroke-width:3;stroke-linecap:round;stroke-linejoin:round;stroke-miterlimit:10;}
	.st23{fill:none;stroke:#0D553F;stroke-width:3;stroke-linecap:round;stroke-linejoin:round;stroke-miterlimit:10;}
	.st24{fill:#BC8D16;}
	.st25{fill:none;stroke:#BC8D16;stroke-width:3;stroke-linecap:round;stroke-linejoin:round;stroke-miterlimit:10;}
	.st26{fill:none;stroke:#97D2B5;stroke-width:3;stroke-linecap:round;stroke-linejoin:round;stroke-miterlimit:10;}
	.st27{fill:none;stroke:#AE132A;stroke-width:3;stroke-linecap:round;stroke-linejoin:round;stroke-miterlimit:10;}
	.st28{fill:#AE132A;}
	.st29{fill:#7F58A5;}
	.st30{fill:#FFFFFF;}
	.st31{fill:none;stroke:#000000;stroke-width:4;stroke-linecap:round;stroke-linejoin:round;stroke-miterlimit:10;}
	.st32{fill:none;stroke:#000000;stroke-width:8.7276;stroke-linecap:round;stroke-linejoin:round;stroke-miterlimit:10;}
	.st33{fill:none;stroke:#000000;stroke-width:6.4092;stroke-linecap:round;stroke-linejoin:round;stroke-miterlimit:10;}
</style>
<g id="Circles" class="st0">
	<g class="st1">
		<g>
			<circle class="st2" cx="200" cy="200" r="110"/>
		</g>
	</g>
</g>
<g id="Layer_1">
	<path class="st27" d="M178.82,195.69c0-11.69,9.47-21.16,21.16-21.16h0c11.69,0,21.16,9.47,21.16,21.16"/>
	<path class="st22" d="M187.04,167.73v-6.54c0-3.86,3.13-6.98,6.99-6.98h11.89c3.86,0,6.99,3.12,6.99,6.98v6.54"/>
	<path class="st27" d="M220.52,246.96v-29.39c0-3.53-2.86-6.39-6.39-6.39h-28.3c-3.53,0-6.39,2.86-6.39,6.39v29.39"/>
	<line class="st25" x1="187.04" y1="221.58" x2="212.92" y2="221.58"/>
	<polyline class="st25" points="223.92,176.54 236.54,158.54 228.71,153.04 216.84,169.95 	"/>
	<path class="st25" d="M236.54,158.54c-5.93,11.31-7.66,21.05-6.34,34.16"/>
	<polyline class="st25" points="176.05,176.54 163.43,158.54 171.26,153.04 183.13,169.95 	"/>
	<path class="st25" d="M163.43,158.54c5.93,11.31,7.66,21.05,6.34,34.16"/>
	<path class="st22" d="M230.3,239.58h3.11c2.83,0,5.12-2.29,5.12-5.12v-21.11c0-2.83-2.29-5.12-5.12-5.12h-3.11"/>
	<path class="st22" d="M169.7,239.58h-3.11c-2.83,0-5.12-2.29-5.12-5.12v-21.11c0-2.83,2.29-5.12,5.12-5.12h3.11"/>
	<path class="st22" d="M230.3,246.96h-60.64v-51.8c0-16.75,13.58-30.32,30.32-30.32h0c16.75,0,30.32,13.58,30.32,30.32V246.96z"/>
</g>
</svg>
