<?xml version="1.0" encoding="utf-8"?>
<!-- Generator: Adobe Illustrator 23.0.5, SVG Export Plug-In . SVG Version: 6.00 Build 0)  -->
<svg version="1.1" xmlns="http://www.w3.org/2000/svg" xmlns:xlink="http://www.w3.org/1999/xlink" x="0px" y="0px"
	 viewBox="0 0 400 400" style="enable-background:new 0 0 400 400;" xml:space="preserve">
<style type="text/css">
	.st0{display:none;}
	.st1{display:inline;}
	.st2{fill:#FFFFFF;stroke:#000000;stroke-width:7;stroke-miterlimit:10;}
	.st3{display:inline;fill:none;stroke:#0D553F;stroke-width:3;stroke-linecap:round;stroke-linejoin:round;stroke-miterlimit:10;}
	.st4{display:inline;fill:none;stroke:#BC8D16;stroke-width:3;stroke-linecap:round;stroke-linejoin:round;stroke-miterlimit:10;}
	.st5{display:inline;fill:none;stroke:#97D2B5;stroke-width:3;stroke-linecap:round;stroke-linejoin:round;stroke-miterlimit:10;}
	.st6{display:inline;fill:none;stroke:#7F58A5;stroke-width:3;stroke-linecap:round;stroke-linejoin:round;stroke-miterlimit:10;}
	.st7{display:inline;fill:none;stroke:#AE132A;stroke-width:3;stroke-linecap:round;stroke-linejoin:round;stroke-miterlimit:10;}
	.st8{display:inline;fill:none;stroke:#F36C52;stroke-width:3;stroke-linecap:round;stroke-linejoin:round;stroke-miterlimit:10;}
	.st9{display:inline;fill:#0D553F;}
	.st10{display:inline;fill:#BC8D16;}
	.st11{display:inline;fill:#97D2B5;}
	.st12{display:inline;fill:#7F58A5;}
	.st13{display:inline;fill:#AE132A;}
	.st14{display:inline;fill:#F36C52;}
	.st15{fill:none;stroke:#0D553F;stroke-width:3;stroke-linecap:round;stroke-linejoin:round;stroke-dasharray:0.7632,5.9257;}
	.st16{fill:none;stroke:#BC8D16;stroke-width:3;stroke-linecap:round;stroke-linejoin:round;stroke-dasharray:0.7632,5.9257;}
	.st17{fill:none;stroke:#97D2B5;stroke-width:3;stroke-linecap:round;stroke-linejoin:round;stroke-dasharray:0.7632,5.9257;}
	.st18{fill:none;stroke:#7F58A5;stroke-width:3;stroke-linecap:round;stroke-linejoin:round;stroke-dasharray:0.7632,5.9257;}
	.st19{fill:none;stroke:#AE132A;stroke-width:3;stroke-linecap:round;stroke-linejoin:round;stroke-dasharray:0.7632,5.9257;}
	.st20{fill:none;stroke:#F36C52;stroke-width:3;stroke-linecap:round;stroke-linejoin:round;stroke-dasharray:0.7632,5.9257;}
	.st21{fill:#97D2B5;}
	.st22{fill:none;stroke:#7F58A5;stroke-width:3;stroke-linecap:round;stroke-linejoin:round;stroke-miterlimit:10;}
	.st23{fill:none;stroke:#0D553F;stroke-width:3;stroke-linecap:round;stroke-linejoin:round;stroke-miterlimit:10;}
	.st24{fill:#BC8D16;}
	.st25{fill:none;stroke:#BC8D16;stroke-width:3;stroke-linecap:round;stroke-linejoin:round;stroke-miterlimit:10;}
	.st26{fill:none;stroke:#97D2B5;stroke-width:3;stroke-linecap:round;stroke-linejoin:round;stroke-miterlimit:10;}
	.st27{fill:none;stroke:#AE132A;stroke-width:3;stroke-linecap:round;stroke-linejoin:round;stroke-miterlimit:10;}
	.st28{fill:#AE132A;}
	.st29{fill:#7F58A5;}
	.st30{fill:#FFFFFF;}
	.st31{fill:none;stroke:#000000;stroke-width:4;stroke-linecap:round;stroke-linejoin:round;stroke-miterlimit:10;}
	.st32{fill:none;stroke:#000000;stroke-width:8.7276;stroke-linecap:round;stroke-linejoin:round;stroke-miterlimit:10;}
	.st33{fill:none;stroke:#000000;stroke-width:6.4092;stroke-linecap:round;stroke-linejoin:round;stroke-miterlimit:10;}
</style>
<g id="Circles" class="st0">
	<g class="st1">
		<g>
			<circle class="st2" cx="200" cy="200" r="110"/>
		</g>
	</g>
</g>
<g id="Layer_1">
	<path class="st22" d="M229.9,242.45c0,0.01,0,0.01,0,0.01c-0.56,5.2-3.2,9.96-9.52,13.36c0,0-2.88,7.04-20.4,7.04
		c-17.54,0-20.41-7.04-20.41-7.04c-4.67-2.51-7.32-5.76-8.61-9.39c0,0-0.01,0-0.01-0.01c-2.82-7.9,0.82-17.53,4.24-24.93
		c0.7-1.48,1.37-2.89,1.99-4.16c0.2-0.4,0.39-0.8,0.56-1.17c0.84-1.77,1.51-3.25,1.84-4.32c0,0,4.03,5.75,20.41,5.75
		c16.38,0,20.4-5.75,20.4-5.75c0.31,1.03,0.94,2.44,1.75,4.12C225.24,222.51,230.9,233.15,229.9,242.45z"/>
	<path class="st22" d="M220.37,211.85c0,0-4.03,5.75-20.4,5.75c-16.39,0-20.41-5.75-20.41-5.75c1.44-4.88,9.99-5.82,15.55-5.88
		l0.7,4.01c2.16,1.6,6.17,1.6,8.34,0l0.69-4.01C210.4,206.03,218.95,206.97,220.37,211.85z"/>
	<line class="st22" x1="204.83" y1="205.96" x2="204.82" y2="205.96"/>
	<path class="st22" d="M205.02,204.83l-0.19,1.13l-0.69,4.01c-2.17,1.6-6.18,1.6-8.34,0l-0.7-4.01l-0.19-1.13
		c-0.33-1.94,1.16-3.7,3.12-3.7h3.86C203.85,201.13,205.35,202.9,205.02,204.83z"/>
	<path class="st22" d="M222.12,215.97c5.54-0.73,14.5-4.88,14.5-4.88c5.72,1.08,7.87,4.41,7.87,4.41s-7.22,4.97-9.06,10.14
		c-1.8,5.06-5.39,16.34-5.54,16.81"/>
	<path class="st22" d="M170.93,246.42c-5.69-3.99-10.31-9.83-13.05-16.21c-2.33-5.41-3.54-12.61,1.86-16.63
		c5.35-3.98,12.41-2.11,16.31,2.65"/>
	<path class="st22" d="M174.37,222.31c0,0-5.4-7.37-10.83-4.23c-5.16,3.89,1.23,15.33,6.32,19.76"/>
	<circle class="st21" cx="200.2" cy="163.7" r="4.63"/>
	<line class="st26" x1="200.2" y1="163.7" x2="189.25" y2="153.01"/>
	<line class="st26" x1="201.37" y1="163.7" x2="212.02" y2="163.7"/>
	<polyline class="st27" points="206.29,132.74 206.05,132.74 194.36,132.74 194.11,132.74 	"/>
	<path class="st28" d="M204.64,129.67h-8.87c0-2.44,1.99-4.43,4.43-4.43C202.64,125.24,204.64,127.23,204.64,129.67z"/>
	<line class="st26" x1="200.2" y1="189.67" x2="200.2" y2="185.12"/>
	<line class="st26" x1="200.2" y1="142.28" x2="200.2" y2="137.73"/>
	<line class="st26" x1="174.23" y1="163.7" x2="178.78" y2="163.7"/>
	<line class="st26" x1="221.62" y1="163.7" x2="226.17" y2="163.7"/>
	<line class="st26" x1="181.84" y1="182.06" x2="185.06" y2="178.85"/>
	<line class="st26" x1="215.35" y1="148.55" x2="218.57" y2="145.34"/>
	<line class="st26" x1="181.84" y1="145.34" x2="185.06" y2="148.55"/>
	<line class="st26" x1="215.35" y1="178.85" x2="218.57" y2="182.06"/>
	<path class="st26" d="M249.15,175.45c-1.97,1.18-3.07,3.49-3.25,5.78s0.43,4.57,1.22,6.73c0.79,2.16,1.76,4.25,2.35,6.48
		c1.32,5,0.54,10.53-2.12,14.97"/>
	<path class="st26" d="M238.69,171.55c-2.07,2.4-2.33,6.15-1.52,9.38c0.57,2.29,1.6,4.4,2.7,6.47c0.45,0.85,0.92,1.69,1.37,2.54
		c1.55,2.91,2.99,6.02,3.16,9.35"/>
	<circle class="st27" cx="200.2" cy="163.7" r="25.97"/>
</g>
</svg>
