<?xml version="1.0" encoding="utf-8"?>
<!-- Generator: Adobe Illustrator 23.0.5, SVG Export Plug-In . SVG Version: 6.00 Build 0)  -->
<svg version="1.1" xmlns="http://www.w3.org/2000/svg" xmlns:xlink="http://www.w3.org/1999/xlink" x="0px" y="0px"
	 viewBox="0 0 400 400" style="enable-background:new 0 0 400 400;" xml:space="preserve">
<style type="text/css">
	.st0{display:none;}
	.st1{display:inline;}
	.st2{fill:#FFFFFF;stroke:#000000;stroke-width:7;stroke-miterlimit:10;}
	.st3{display:inline;fill:none;stroke:#0D553F;stroke-width:3;stroke-linecap:round;stroke-linejoin:round;stroke-miterlimit:10;}
	.st4{display:inline;fill:none;stroke:#BC8D16;stroke-width:3;stroke-linecap:round;stroke-linejoin:round;stroke-miterlimit:10;}
	.st5{display:inline;fill:none;stroke:#97D2B5;stroke-width:3;stroke-linecap:round;stroke-linejoin:round;stroke-miterlimit:10;}
	.st6{display:inline;fill:none;stroke:#7F58A5;stroke-width:3;stroke-linecap:round;stroke-linejoin:round;stroke-miterlimit:10;}
	.st7{display:inline;fill:none;stroke:#AE132A;stroke-width:3;stroke-linecap:round;stroke-linejoin:round;stroke-miterlimit:10;}
	.st8{display:inline;fill:none;stroke:#F36C52;stroke-width:3;stroke-linecap:round;stroke-linejoin:round;stroke-miterlimit:10;}
	.st9{display:inline;fill:#0D553F;}
	.st10{display:inline;fill:#BC8D16;}
	.st11{display:inline;fill:#97D2B5;}
	.st12{display:inline;fill:#7F58A5;}
	.st13{display:inline;fill:#AE132A;}
	.st14{display:inline;fill:#F36C52;}
	.st15{fill:none;stroke:#0D553F;stroke-width:3;stroke-linecap:round;stroke-linejoin:round;stroke-dasharray:0.7632,5.9257;}
	.st16{fill:none;stroke:#BC8D16;stroke-width:3;stroke-linecap:round;stroke-linejoin:round;stroke-dasharray:0.7632,5.9257;}
	.st17{fill:none;stroke:#97D2B5;stroke-width:3;stroke-linecap:round;stroke-linejoin:round;stroke-dasharray:0.7632,5.9257;}
	.st18{fill:none;stroke:#7F58A5;stroke-width:3;stroke-linecap:round;stroke-linejoin:round;stroke-dasharray:0.7632,5.9257;}
	.st19{fill:none;stroke:#AE132A;stroke-width:3;stroke-linecap:round;stroke-linejoin:round;stroke-dasharray:0.7632,5.9257;}
	.st20{fill:none;stroke:#F36C52;stroke-width:3;stroke-linecap:round;stroke-linejoin:round;stroke-dasharray:0.7632,5.9257;}
	.st21{fill:#97D2B5;}
	.st22{fill:none;stroke:#7F58A5;stroke-width:3;stroke-linecap:round;stroke-linejoin:round;stroke-miterlimit:10;}
	.st23{fill:none;stroke:#0D553F;stroke-width:3;stroke-linecap:round;stroke-linejoin:round;stroke-miterlimit:10;}
	.st24{fill:#BC8D16;}
	.st25{fill:none;stroke:#BC8D16;stroke-width:3;stroke-linecap:round;stroke-linejoin:round;stroke-miterlimit:10;}
	.st26{fill:none;stroke:#97D2B5;stroke-width:3;stroke-linecap:round;stroke-linejoin:round;stroke-miterlimit:10;}
	.st27{fill:none;stroke:#AE132A;stroke-width:3;stroke-linecap:round;stroke-linejoin:round;stroke-miterlimit:10;}
	.st28{fill:#AE132A;}
	.st29{fill:#7F58A5;}
	.st30{fill:#FFFFFF;}
	.st31{fill:none;stroke:#000000;stroke-width:4;stroke-linecap:round;stroke-linejoin:round;stroke-miterlimit:10;}
	.st32{fill:none;stroke:#000000;stroke-width:8.7276;stroke-linecap:round;stroke-linejoin:round;stroke-miterlimit:10;}
	.st33{fill:none;stroke:#000000;stroke-width:6.4092;stroke-linecap:round;stroke-linejoin:round;stroke-miterlimit:10;}
</style>
<g id="Circles" class="st0">
	<g class="st1">
		<g>
			<circle class="st2" cx="200" cy="200" r="110"/>
		</g>
	</g>
</g>
<g id="Layer_1">
	<g>
		<path class="st29" d="M206.14,241.96c-1.3,0-2.52-0.79-3-2.08l-9.15-24.42c-0.13-0.36-0.2-0.74-0.2-1.13v-13.38
			c0-1.09,0.56-2.11,1.47-2.7l9.73-6.25c1.49-0.96,3.47-0.52,4.43,0.96c0.96,1.49,0.52,3.47-0.96,4.43l-8.25,5.3v11.04l8.95,23.87
			c0.62,1.66-0.22,3.5-1.88,4.13C206.89,241.89,206.51,241.96,206.14,241.96z"/>
	</g>
	<g>
		<circle class="st29" cx="196.99" cy="188.36" r="5.53"/>
	</g>
	<g>
		<path class="st29" d="M206.72,197.92c-1.05,0-2.09-0.52-2.7-1.47c-0.96-1.49-0.52-3.47,0.97-4.43l8.72-5.6
			c1.49-0.96,3.47-0.52,4.43,0.97c0.96,1.49,0.52,3.47-0.97,4.43l-8.72,5.6C207.91,197.75,207.31,197.92,206.72,197.92z"/>
	</g>
	<g>
		<path class="st29" d="M187.83,241.96c-0.37,0-0.75-0.07-1.13-0.2c-1.66-0.62-2.5-2.47-1.88-4.13l8.95-23.87v-11.04l-16.98-10.9
			c-1.49-0.96-1.92-2.94-0.96-4.43c0.96-1.49,2.94-1.92,4.43-0.96l18.45,11.85c0.92,0.59,1.47,1.61,1.47,2.7v13.38
			c0,0.38-0.07,0.76-0.2,1.13l-9.15,24.42C190.35,241.17,189.13,241.96,187.83,241.96z"/>
	</g>
	<g>
		<path class="st24" d="M217.34,181.22l6.78,36.37c0.11,0.58-0.27,1.13-0.85,1.24c-0.56,0.1-1.1-0.26-1.23-0.81l-8.24-36.07
			c-0.22-0.97,0.39-1.94,1.36-2.16c0.97-0.22,1.94,0.39,2.16,1.36C217.33,181.17,217.34,181.2,217.34,181.22z"/>
	</g>
	<path class="st30" d="M196.99,216.33c-5.59,0-10.15-4.55-10.15-10.15v-7.15c0-2.84,2.31-5.15,5.15-5.15h9.99
		c2.84,0,5.15,2.31,5.15,5.15v7.15C207.13,211.78,202.58,216.33,196.99,216.33z"/>
	<path class="st24" d="M196.99,214.33L196.99,214.33c-4.5,0-8.15-3.65-8.15-8.15v-7.15c0-1.74,1.41-3.15,3.15-3.15h9.99
		c1.74,0,3.15,1.41,3.15,3.15v7.15C205.13,210.69,201.48,214.33,196.99,214.33z"/>
	<polyline class="st23" points="185.48,178.52 169.89,158.05 136.41,201.86 	"/>
	<polyline class="st23" points="182.02,182.88 205.62,152.95 240.56,198.81 240.56,198.82 243.64,202.86 	"/>
	<line class="st23" x1="166" y1="204.96" x2="173.81" y2="194.71"/>
	<polyline class="st23" points="235.82,192.59 250.63,173.16 263.59,190.18 	"/>
	<circle class="st25" cx="185.97" cy="147.07" r="7.79"/>
	<path class="st23" d="M157.77,254.72c8.38-5.62,22.8-9.33,39.18-9.33s30.8,3.71,39.18,9.33"/>
</g>
</svg>
