<?xml version="1.0" encoding="utf-8"?>
<!-- Generator: Adobe Illustrator 23.0.5, SVG Export Plug-In . SVG Version: 6.00 Build 0)  -->
<svg version="1.1" xmlns="http://www.w3.org/2000/svg" xmlns:xlink="http://www.w3.org/1999/xlink" x="0px" y="0px"
	 viewBox="0 0 400 400" style="enable-background:new 0 0 400 400;" xml:space="preserve">
<style type="text/css">
	.st0{display:none;}
	.st1{display:inline;fill:#FFFFFF;stroke:#000000;stroke-width:7;stroke-miterlimit:10;}
	.st2{display:inline;fill:none;stroke:#0D553F;stroke-width:3;stroke-linecap:round;stroke-linejoin:round;stroke-miterlimit:10;}
	.st3{display:inline;fill:none;stroke:#BC8D16;stroke-width:3;stroke-linecap:round;stroke-linejoin:round;stroke-miterlimit:10;}
	.st4{display:inline;fill:none;stroke:#97D2B5;stroke-width:3;stroke-linecap:round;stroke-linejoin:round;stroke-miterlimit:10;}
	.st5{display:inline;fill:none;stroke:#7F58A5;stroke-width:3;stroke-linecap:round;stroke-linejoin:round;stroke-miterlimit:10;}
	.st6{display:inline;fill:none;stroke:#AE132A;stroke-width:3;stroke-linecap:round;stroke-linejoin:round;stroke-miterlimit:10;}
	.st7{display:inline;fill:none;stroke:#F36C52;stroke-width:3;stroke-linecap:round;stroke-linejoin:round;stroke-miterlimit:10;}
	.st8{display:inline;fill:#0D553F;}
	.st9{display:inline;fill:#BC8D16;}
	.st10{display:inline;fill:#97D2B5;}
	.st11{display:inline;fill:#7F58A5;}
	.st12{display:inline;fill:#AE132A;}
	.st13{display:inline;fill:#F36C52;}
	.st14{display:inline;}
	.st15{fill:none;stroke:#0D553F;stroke-width:3;stroke-linecap:round;stroke-linejoin:round;stroke-dasharray:0.7632,5.9257;}
	.st16{fill:none;stroke:#BC8D16;stroke-width:3;stroke-linecap:round;stroke-linejoin:round;stroke-dasharray:0.7632,5.9257;}
	.st17{fill:none;stroke:#97D2B5;stroke-width:3;stroke-linecap:round;stroke-linejoin:round;stroke-dasharray:0.7632,5.9257;}
	.st18{fill:none;stroke:#7F58A5;stroke-width:3;stroke-linecap:round;stroke-linejoin:round;stroke-dasharray:0.7632,5.9257;}
	.st19{fill:none;stroke:#AE132A;stroke-width:3;stroke-linecap:round;stroke-linejoin:round;stroke-dasharray:0.7632,5.9257;}
	.st20{fill:none;stroke:#F36C52;stroke-width:3;stroke-linecap:round;stroke-linejoin:round;stroke-dasharray:0.7632,5.9257;}
	.st21{fill:none;stroke:#0D553F;stroke-width:3;stroke-linecap:round;stroke-linejoin:round;stroke-miterlimit:10;}
	.st22{fill:none;stroke:#AE132A;stroke-width:3;stroke-linecap:round;stroke-linejoin:round;stroke-miterlimit:10;}
	.st23{fill:none;stroke:#7F58A5;stroke-width:3;stroke-linecap:round;stroke-linejoin:round;stroke-miterlimit:10;}
	.st24{fill:none;stroke:#BC8D16;stroke-width:3;stroke-linecap:round;stroke-linejoin:round;stroke-miterlimit:10;}
	.st25{fill:#0D553F;}
	.st26{fill:#AE132A;}
	.st27{fill:#7F58A5;}
</style>
<g id="Circles" class="st0">
	<circle class="st1" cx="200" cy="200" r="110"/>
</g>
<g id="Icons">
	<line class="st21" x1="205.56" y1="159.06" x2="202.47" y2="163.29"/>
	<polyline class="st21" points="170.48,203.57 171.93,199.91 172.82,203.46 	"/>
	<line class="st21" x1="196.11" y1="208.71" x2="199.63" y2="211.84"/>
	
		<rect x="201.54" y="175.59" transform="matrix(-0.7071 0.7071 -0.7071 -0.7071 479.7753 155.3456)" class="st21" width="12.34" height="2.89"/>
	<path class="st21" d="M207.6,159.13l-1.28-0.56c-1.51-0.67-3.27,0.1-3.82,1.66l-2.08,7.29"/>
	<polygon class="st21" points="175.42,192.52 194.94,172.99 204.37,182.42 202.3,184.5 211.06,193.26 201.79,202.54 198.42,199.18 
		203,194.6 191.61,183.2 178.85,195.96 	"/>
	<path class="st23" d="M189.33,221.33c0,0-7.02,10.31,11.23,25.88l-14.95,14.95c0,0-11.29-11.17-12.27-22.52s3.66-12.21-1.95-22.58"
		/>
	<path class="st21" d="M205.2,199.12c6.04,4.49,8.55,13.39,2.88,19.28c-4.36,4.52-10.81,5.17-15.24,0.77"/>
	<path class="st21" d="M198.28,206.04c0,0,0.97,7.95,8.37,6.53c0,0-4.1,2.42-7.19,0.05c-3.1-2.36-5.06-1.02-5.06-1.02"/>
	<path class="st21" d="M172.01,197.47l-1.66,0.98c0,0,1.23,4.28-3.47,4.7l-3.85,3.47l4.21-1.53c0,0,5.69-2.32,7.75-0.43"/>
	<line class="st21" x1="195" y1="186.6" x2="186.76" y2="194.84"/>
	<line class="st21" x1="199.4" y1="191" x2="191.16" y2="199.24"/>
	<polyline class="st21" points="179.89,194.92 191.28,206.32 198.42,199.18 	"/>
	<path class="st21" d="M178.85,195.96c0,0-1.32,11.96,12.43,10.36"/>
	
		<rect x="194.77" y="164.88" transform="matrix(-0.7071 0.7071 -0.7071 -0.7071 468.6605 143.3193)" class="st21" width="19.76" height="7.68"/>
	<path class="st21" d="M179.87,188.07l-4.33-1.28l-6.35,6.35c0,0,12.02,8.36,2.19,23.92c0,0,13-4.94,17.94,4.27l5.44-4.33
		c0,0-2.32-5.13,1.95-9.4c4.27-4.27,5.07-5.07,5.07-5.07"/>
	<polyline class="st22" points="213.35,155.35 216.72,141.02 220.86,145.44 223.71,137.84 226.38,144.77 236.97,138.02 
		230.22,147.67 236.42,148.69 227.81,152.84 233.47,156.96 217.87,160.04 	"/>
</g>
</svg>
