<?xml version="1.0" encoding="utf-8"?>
<!-- Generator: Adobe Illustrator 23.0.5, SVG Export Plug-In . SVG Version: 6.00 Build 0)  -->
<svg version="1.1" xmlns="http://www.w3.org/2000/svg" xmlns:xlink="http://www.w3.org/1999/xlink" x="0px" y="0px"
	 viewBox="0 0 400 400" style="enable-background:new 0 0 400 400;" xml:space="preserve">
<style type="text/css">
	.st0{display:none;}
	.st1{display:inline;fill:#FFFFFF;stroke:#000000;stroke-width:7;stroke-miterlimit:10;}
	.st2{display:inline;fill:none;stroke:#0D553F;stroke-width:3;stroke-linecap:round;stroke-linejoin:round;stroke-miterlimit:10;}
	.st3{display:inline;fill:none;stroke:#BC8D16;stroke-width:3;stroke-linecap:round;stroke-linejoin:round;stroke-miterlimit:10;}
	.st4{display:inline;fill:none;stroke:#97D2B5;stroke-width:3;stroke-linecap:round;stroke-linejoin:round;stroke-miterlimit:10;}
	.st5{display:inline;fill:none;stroke:#7F58A5;stroke-width:3;stroke-linecap:round;stroke-linejoin:round;stroke-miterlimit:10;}
	.st6{display:inline;fill:none;stroke:#AE132A;stroke-width:3;stroke-linecap:round;stroke-linejoin:round;stroke-miterlimit:10;}
	.st7{display:inline;fill:none;stroke:#F36C52;stroke-width:3;stroke-linecap:round;stroke-linejoin:round;stroke-miterlimit:10;}
	.st8{display:inline;fill:#0D553F;}
	.st9{display:inline;fill:#BC8D16;}
	.st10{display:inline;fill:#97D2B5;}
	.st11{display:inline;fill:#7F58A5;}
	.st12{display:inline;fill:#AE132A;}
	.st13{display:inline;fill:#F36C52;}
	.st14{display:inline;}
	.st15{fill:none;stroke:#0D553F;stroke-width:3;stroke-linecap:round;stroke-linejoin:round;stroke-dasharray:0.7632,5.9257;}
	.st16{fill:none;stroke:#BC8D16;stroke-width:3;stroke-linecap:round;stroke-linejoin:round;stroke-dasharray:0.7632,5.9257;}
	.st17{fill:none;stroke:#97D2B5;stroke-width:3;stroke-linecap:round;stroke-linejoin:round;stroke-dasharray:0.7632,5.9257;}
	.st18{fill:none;stroke:#7F58A5;stroke-width:3;stroke-linecap:round;stroke-linejoin:round;stroke-dasharray:0.7632,5.9257;}
	.st19{fill:none;stroke:#AE132A;stroke-width:3;stroke-linecap:round;stroke-linejoin:round;stroke-dasharray:0.7632,5.9257;}
	.st20{fill:none;stroke:#F36C52;stroke-width:3;stroke-linecap:round;stroke-linejoin:round;stroke-dasharray:0.7632,5.9257;}
	.st21{fill:none;stroke:#0D553F;stroke-width:3;stroke-linecap:round;stroke-linejoin:round;stroke-miterlimit:10;}
	.st22{fill:none;stroke:#AE132A;stroke-width:3;stroke-linecap:round;stroke-linejoin:round;stroke-miterlimit:10;}
	.st23{fill:none;stroke:#7F58A5;stroke-width:3;stroke-linecap:round;stroke-linejoin:round;stroke-miterlimit:10;}
	.st24{fill:none;stroke:#BC8D16;stroke-width:3;stroke-linecap:round;stroke-linejoin:round;stroke-miterlimit:10;}
	.st25{fill:#0D553F;}
	.st26{fill:#AE132A;}
	.st27{fill:#7F58A5;}
</style>
<g id="Circles" class="st0">
	<circle class="st1" cx="200" cy="200" r="110"/>
</g>
<g id="Icons">
	<path class="st21" d="M201.45,217.62l-3.34-8.95l-16-42.85l2.74-5.85l-2.36-6.38l-4.61,1.71l1.84,4.96l-1.24,2.58l-2.63-1.13
		l-1.84-4.96l-4.6,1.72l2.36,6.38l5.9,2.61l15.99,42.86l-7.59,2.81c1.62,3.57,3.21,7.15,4.91,10.68"/>
	<path class="st21" d="M209,217.62c-1.08-3.93-2.13-7.86-3.3-11.76l-7.59,2.81"/>
	
		<rect x="164.93" y="151.31" transform="matrix(0.9369 -0.3497 0.3497 0.9369 -42.7089 70.9348)" class="st21" width="20.32" height="4.87"/>
	<path class="st23" d="M171.3,240.09c3.8-4.38,7.93-8.48,12.35-12.23c2.42-2.06,5.37-4.13,8.49-3.53c1.63,0.31,3.06,1.34,4.68,1.7
		c3.68,0.82,7.17-1.89,9.73-4.65c2.57-2.76,5.22-5.96,8.94-6.55c3.16-0.5,6.35,1.1,8.63,3.34c2.29,2.24,3.86,5.09,5.58,7.79
		c0.79,1.26,1.68,2.55,3,3.24c1.24,0.65,2.69,0.69,4.07,0.91c4.84,0.76,9,3.81,12.67,7.08c1.06,0.95,2.11,1.93,3.16,2.9"/>
	<line class="st24" x1="264.06" y1="240.09" x2="161.94" y2="240.09"/>
</g>
</svg>
