<?xml version="1.0" encoding="utf-8"?>
<!-- Generator: Adobe Illustrator 23.0.5, SVG Export Plug-In . SVG Version: 6.00 Build 0)  -->
<svg version="1.1" xmlns="http://www.w3.org/2000/svg" xmlns:xlink="http://www.w3.org/1999/xlink" x="0px" y="0px"
	 viewBox="0 0 400 400" style="enable-background:new 0 0 400 400;" xml:space="preserve">
<style type="text/css">
	.st0{display:none;}
	.st1{display:inline;fill:#FFFFFF;stroke:#000000;stroke-width:7;stroke-miterlimit:10;}
	.st2{display:inline;fill:none;stroke:#0D553F;stroke-width:3;stroke-linecap:round;stroke-linejoin:round;stroke-miterlimit:10;}
	.st3{display:inline;fill:none;stroke:#BC8D16;stroke-width:3;stroke-linecap:round;stroke-linejoin:round;stroke-miterlimit:10;}
	.st4{display:inline;fill:none;stroke:#97D2B5;stroke-width:3;stroke-linecap:round;stroke-linejoin:round;stroke-miterlimit:10;}
	.st5{display:inline;fill:none;stroke:#7F58A5;stroke-width:3;stroke-linecap:round;stroke-linejoin:round;stroke-miterlimit:10;}
	.st6{display:inline;fill:none;stroke:#AE132A;stroke-width:3;stroke-linecap:round;stroke-linejoin:round;stroke-miterlimit:10;}
	.st7{display:inline;fill:none;stroke:#F36C52;stroke-width:3;stroke-linecap:round;stroke-linejoin:round;stroke-miterlimit:10;}
	.st8{display:inline;fill:#0D553F;}
	.st9{display:inline;fill:#BC8D16;}
	.st10{display:inline;fill:#97D2B5;}
	.st11{display:inline;fill:#7F58A5;}
	.st12{display:inline;fill:#AE132A;}
	.st13{display:inline;fill:#F36C52;}
	.st14{display:inline;}
	.st15{fill:none;stroke:#0D553F;stroke-width:3;stroke-linecap:round;stroke-linejoin:round;stroke-dasharray:0.7632,5.9257;}
	.st16{fill:none;stroke:#BC8D16;stroke-width:3;stroke-linecap:round;stroke-linejoin:round;stroke-dasharray:0.7632,5.9257;}
	.st17{fill:none;stroke:#97D2B5;stroke-width:3;stroke-linecap:round;stroke-linejoin:round;stroke-dasharray:0.7632,5.9257;}
	.st18{fill:none;stroke:#7F58A5;stroke-width:3;stroke-linecap:round;stroke-linejoin:round;stroke-dasharray:0.7632,5.9257;}
	.st19{fill:none;stroke:#AE132A;stroke-width:3;stroke-linecap:round;stroke-linejoin:round;stroke-dasharray:0.7632,5.9257;}
	.st20{fill:none;stroke:#F36C52;stroke-width:3;stroke-linecap:round;stroke-linejoin:round;stroke-dasharray:0.7632,5.9257;}
	.st21{fill:none;stroke:#0D553F;stroke-width:3;stroke-linecap:round;stroke-linejoin:round;stroke-miterlimit:10;}
	.st22{fill:none;stroke:#AE132A;stroke-width:3;stroke-linecap:round;stroke-linejoin:round;stroke-miterlimit:10;}
	.st23{fill:none;stroke:#7F58A5;stroke-width:3;stroke-linecap:round;stroke-linejoin:round;stroke-miterlimit:10;}
	.st24{fill:none;stroke:#BC8D16;stroke-width:3;stroke-linecap:round;stroke-linejoin:round;stroke-miterlimit:10;}
	.st25{fill:#0D553F;}
	.st26{fill:#AE132A;}
	.st27{fill:#7F58A5;}
</style>
<g id="Circles" class="st0">
	<circle class="st1" cx="200" cy="200" r="110"/>
</g>
<g id="Icons">
	<path class="st22" d="M171.81,196.09l-5.77,10.05l0,0c-3.54,1.83-7.07,1.83-8.51,0l0,0l5.77-10.05"/>
	<path class="st22" d="M180.28,196.09l-5.77,10.05h0c-3.54,1.83-7.07,1.83-8.51,0h0l5.77-10.05"/>
	<path class="st22" d="M188.74,196.09l-5.77,10.05l0,0c-3.54,1.83-7.07,1.83-8.51,0l0,0l5.77-10.05"/>
	<path class="st22" d="M197.21,196.09l-5.77,10.05h0c-3.54,1.83-7.07,1.83-8.51,0l0,0l5.77-10.05"/>
	<path class="st22" d="M205.67,196.09l-5.77,10.05l0,0c-3.54,1.83-7.07,1.83-8.51,0l0,0l5.77-10.05"/>
	<path class="st22" d="M214.14,196.09l-5.77,10.05l0,0c-3.54,1.83-7.07,1.83-8.51,0l0,0l5.77-10.05"/>
	<polyline class="st23" points="233.58,222.73 239.98,238.59 235.3,238.59 	"/>
	<line class="st23" x1="225.11" y1="201.76" x2="229.96" y2="213.78"/>
	<path class="st22" d="M167.13,207.51l-5.77,10.05l0,0c-3.54,1.83-7.07,1.83-8.51,0l0,0l5.77-10.05"/>
	<path class="st22" d="M175.6,207.51l-5.77,10.05h0c-3.54,1.83-7.07,1.83-8.51,0l0,0l5.77-10.05"/>
	<path class="st22" d="M184.07,207.51l-5.77,10.05l0,0c-3.54,1.83-7.07,1.83-8.51,0l0,0l5.77-10.05"/>
	<path class="st22" d="M192.53,207.51l-5.77,10.05h0c-3.54,1.83-7.07,1.83-8.51,0h0l5.77-10.05"/>
	<path class="st22" d="M201,207.51l-5.77,10.05l0,0c-3.54,1.83-7.07,1.83-8.51,0l0,0l5.77-10.05"/>
	<path class="st22" d="M209.46,207.51l-5.77,10.05l0,0c-3.54,1.83-7.07,1.83-8.51,0l0,0l5.77-10.05"/>
	<path class="st22" d="M233.62,149.37l-5.77,10.05l0,0c-3.54,1.83-7.07,1.83-8.51,0l0,0l5.77-10.05"/>
	<path class="st22" d="M242.08,149.37l-5.77,10.05v0c-3.54,1.83-7.07,1.83-8.51,0v0l5.77-10.05"/>
	<path class="st22" d="M228.94,160.79l-5.77,10.05h0c-3.54,1.83-7.07,1.83-8.51,0h0l5.77-10.05"/>
	<path class="st22" d="M237.41,160.79l-5.77,10.05l0,0c-3.54,1.83-7.07,1.83-8.51,0l0,0l5.77-10.05"/>
	<path class="st22" d="M162.46,218.93l-5.77,10.05v0c-3.54,1.83-7.07,1.83-8.51,0v0l5.77-10.05"/>
	<path class="st22" d="M170.93,218.93l-5.77,10.05l0,0c-3.54,1.83-7.07,1.83-8.51,0v0l5.77-10.05"/>
	<path class="st22" d="M179.39,218.93l-5.77,10.05v0c-3.54,1.83-7.07,1.83-8.51,0v0l5.77-10.05"/>
	<path class="st22" d="M187.86,218.93l-5.77,10.05l0,0c-3.54,1.83-7.07,1.83-8.51,0l0,0l5.77-10.05"/>
	<path class="st22" d="M157.78,230.35l-5.77,10.05l0,0c-3.54,1.83-7.07,1.83-8.51,0l0,0l5.77-10.05"/>
	<path class="st22" d="M166.25,230.35l-5.77,10.05h0c-3.54,1.83-7.07,1.83-8.51,0l0,0l5.77-10.05"/>
	<path class="st22" d="M174.72,230.35l-5.77,10.05l0,0c-3.54,1.83-7.07,1.83-8.51,0l0,0l5.77-10.05"/>
	<path class="st22" d="M174.67,230.35l-5.77,10.05h0c1.44,1.83,4.97,1.83,8.51,0h0l5.77-10.05H174.67z"/>
	<line class="st23" x1="226.7" y1="217.2" x2="222.6" y2="207.04"/>
	<line class="st23" x1="235.3" y1="238.59" x2="230.04" y2="225.51"/>
	<polyline class="st23" points="180.05,191.64 180.05,183.07 188.35,182.11 188.35,191.64 	"/>
	<polyline class="st23" points="188.35,182.11 194.04,183.71 194.04,191.64 	"/>
	<circle class="st21" cx="227.81" cy="159.42" r="22.69"/>
	<path class="st25" d="M194.72,232.19l6.11,2.61c0.93,0.4,1.95-0.36,1.83-1.37l-0.8-6.6c-0.12-1.01-1.29-1.5-2.1-0.9l-5.31,3.99
		C193.64,230.54,193.79,231.8,194.72,232.19z"/>
	<line class="st22" x1="163.27" y1="196" x2="222.68" y2="196"/>
	<polyline class="st23" points="216.78,210.42 203.95,241.78 180.93,241.78 	"/>
	<path class="st21" d="M237.41,179.97c0,0,18.62,44.49-36.08,50.23"/>
	<path class="st22" d="M214.09,196.09l-5.77,10.05l0,0c1.44,1.83,5.93,1.83,9.47,0L222.6,196"/>
</g>
</svg>
