<?xml version="1.0" encoding="utf-8"?>
<!-- Generator: Adobe Illustrator 23.0.5, SVG Export Plug-In . SVG Version: 6.00 Build 0)  -->
<svg version="1.1" xmlns="http://www.w3.org/2000/svg" xmlns:xlink="http://www.w3.org/1999/xlink" x="0px" y="0px"
	 viewBox="0 0 400 400" style="enable-background:new 0 0 400 400;" xml:space="preserve">
<style type="text/css">
	.st0{display:none;}
	.st1{display:inline;fill:#FFFFFF;stroke:#000000;stroke-width:7;stroke-miterlimit:10;}
	.st2{display:inline;fill:none;stroke:#0D553F;stroke-width:3;stroke-linecap:round;stroke-linejoin:round;stroke-miterlimit:10;}
	.st3{display:inline;fill:none;stroke:#BC8D16;stroke-width:3;stroke-linecap:round;stroke-linejoin:round;stroke-miterlimit:10;}
	.st4{display:inline;fill:none;stroke:#97D2B5;stroke-width:3;stroke-linecap:round;stroke-linejoin:round;stroke-miterlimit:10;}
	.st5{display:inline;fill:none;stroke:#7F58A5;stroke-width:3;stroke-linecap:round;stroke-linejoin:round;stroke-miterlimit:10;}
	.st6{display:inline;fill:none;stroke:#AE132A;stroke-width:3;stroke-linecap:round;stroke-linejoin:round;stroke-miterlimit:10;}
	.st7{display:inline;fill:none;stroke:#F36C52;stroke-width:3;stroke-linecap:round;stroke-linejoin:round;stroke-miterlimit:10;}
	.st8{display:inline;fill:#0D553F;}
	.st9{display:inline;fill:#BC8D16;}
	.st10{display:inline;fill:#97D2B5;}
	.st11{display:inline;fill:#7F58A5;}
	.st12{display:inline;fill:#AE132A;}
	.st13{display:inline;fill:#F36C52;}
	.st14{display:inline;}
	.st15{fill:none;stroke:#0D553F;stroke-width:3;stroke-linecap:round;stroke-linejoin:round;stroke-dasharray:0.7632,5.9257;}
	.st16{fill:none;stroke:#BC8D16;stroke-width:3;stroke-linecap:round;stroke-linejoin:round;stroke-dasharray:0.7632,5.9257;}
	.st17{fill:none;stroke:#97D2B5;stroke-width:3;stroke-linecap:round;stroke-linejoin:round;stroke-dasharray:0.7632,5.9257;}
	.st18{fill:none;stroke:#7F58A5;stroke-width:3;stroke-linecap:round;stroke-linejoin:round;stroke-dasharray:0.7632,5.9257;}
	.st19{fill:none;stroke:#AE132A;stroke-width:3;stroke-linecap:round;stroke-linejoin:round;stroke-dasharray:0.7632,5.9257;}
	.st20{fill:none;stroke:#F36C52;stroke-width:3;stroke-linecap:round;stroke-linejoin:round;stroke-dasharray:0.7632,5.9257;}
	.st21{fill:none;stroke:#0D553F;stroke-width:3;stroke-linecap:round;stroke-linejoin:round;stroke-miterlimit:10;}
	.st22{fill:none;stroke:#AE132A;stroke-width:3;stroke-linecap:round;stroke-linejoin:round;stroke-miterlimit:10;}
	.st23{fill:none;stroke:#7F58A5;stroke-width:3;stroke-linecap:round;stroke-linejoin:round;stroke-miterlimit:10;}
	.st24{fill:none;stroke:#BC8D16;stroke-width:3;stroke-linecap:round;stroke-linejoin:round;stroke-miterlimit:10;}
	.st25{fill:#0D553F;}
	.st26{fill:#AE132A;}
	.st27{fill:#7F58A5;}
</style>
<g id="Circles" class="st0">
	<circle class="st1" cx="200" cy="200" r="110"/>
</g>
<g id="Icons">
	<line class="st24" x1="147.18" y1="244.2" x2="259.88" y2="244.2"/>
	<path class="st21" d="M212.54,174.18c-0.56-0.1-1.12-0.16-1.69-0.2C211.42,174.01,211.98,174.09,212.54,174.18z"/>
	<path class="st21" d="M246.71,184.78c-0.18,0.52-0.56,0.94-1.07,1.16l-15.2,7.08c-0.27,0.13-0.56,0.19-0.86,0.19
		c-0.67,0-1.28-0.31-1.67-0.84l-5.73-7.83c-0.3-0.41-0.61-0.8-0.95-1.17c-0.58,0.65-1.15,1.3-1.72,1.95
		c-1.85,2.1-3.69,4.21-5.53,6.33l-2.3,2.65c0,0-7.21,8.23-7.23,9.31l-0.02,0.18l0.01,0.02l-0.05,0.32l0.11,0.26l0.25,0.66l3.37,4.57
		c0.9,1.23,1.82,2.43,2.72,3.65l1.51,1.99l4.55,5.96c0.43,0.57,0.62,1.29,0.53,2.01c-0.1,0.72-0.47,1.37-1.05,1.81
		c-0.18,0.14-0.42,0.27-0.65,0.37l-6.72,2.7c-1.14,0.46-2.27,0.91-3.39,1.39l-5.01,2.09l-1.64,0.71c-1.14,0.48-2.27,0.98-3.4,1.48
		c-0.29,0.13-0.6,0.2-0.93,0.2c-0.89,0-1.7-0.53-2.07-1.33c-0.52-1.14,0-2.49,1.13-2.99l0.37-0.17c1-0.45,1.99-0.91,2.98-1.38
		l1.61-0.75l4.93-2.38c1.02-0.48,2.04-1,3.08-1.51l3.08-1.55l-2.33-2.5c-0.7-0.74-1.39-1.47-2.08-2.21
		c-0.91-0.97-1.84-1.95-2.76-2.93l-3.71-3.84l-0.45-0.55c-0.09-0.1-0.17-0.18-0.24-0.29c-0.36-0.48-0.59-0.85-0.77-1.18
		c-0.73-1.25-1.19-2.6-1.41-4.06c-0.33-2.31-0.01-4.63,0.95-6.71c0.24-0.51,0.45-0.9,0.66-1.25l5.15-8.52l3.67-6.21
		c0.75-1.29,1.45-2.49,2.11-3.61c-0.23,0.01-0.45,0.02-0.68,0.04l-9.53,0.9l-13.03,8.47c-0.34,0.22-0.72,0.33-1.12,0.33
		c-0.7,0-1.36-0.36-1.73-0.95c-0.3-0.45-0.4-1-0.29-1.54c0.12-0.54,0.43-1,0.89-1.3l13.46-8.74c0.28-0.18,0.59-0.29,0.93-0.32
		l10.04-0.96c0.62-0.05,1.25-0.09,1.83-0.09h0.32c0.42,0,0.84,0.02,1.26,0.06c0.57,0.04,1.13,0.11,1.69,0.2
		c0.4,0.05,0.8,0.14,1.19,0.23c0.16,0.03,0.32,0.08,0.48,0.12c0.2,0.04,0.42,0.1,0.62,0.17c0.29,0.08,0.58,0.16,0.86,0.26
		c0.17,0.05,0.34,0.12,0.52,0.18c0.89,0.32,1.75,0.71,2.58,1.16c0.25,0.13,0.49,0.26,0.73,0.41c0.17,0.1,0.34,0.19,0.51,0.31
		c0.28,0.17,0.56,0.36,0.83,0.55c0.19,0.13,0.39,0.27,0.58,0.43c0.15,0.11,0.29,0.22,0.44,0.33c0.41,0.32,0.8,0.67,1.18,1.03
		c0.13,0.12,0.25,0.24,0.38,0.37c0.16,0.16,0.33,0.33,0.49,0.51v0.01c0.33,0.34,0.63,0.69,0.94,1.05c0.22,0.27,0.43,0.54,0.62,0.81
		l4.73,6.47l13.67-6.36c0.27-0.13,0.56-0.19,0.86-0.19c0.8,0,1.53,0.46,1.86,1.18C246.87,183.71,246.89,184.27,246.71,184.78z"/>
	<path class="st21" d="M169.56,238.84c-0.48,0-0.93-0.19-1.26-0.53c-0.64-0.65-0.67-1.71-0.06-2.4l23.52-26.82
		c0.28,0.64,0.59,1.27,0.94,1.87c0.29,0.52,0.65,1.07,1.13,1.75c0.17,0.24,0.34,0.45,0.49,0.63l0.76,0.89l0.22,0.22l-24.49,23.89
		C170.47,238.66,170.03,238.84,169.56,238.84z"/>
	<path class="st21" d="M230.43,164.95c0,2.93-1.76,5.44-4.28,6.55c-0.88,0.39-1.85,0.6-2.87,0.6c-3.29,0-6.06-2.22-6.9-5.25
		c-0.17-0.6-0.26-1.24-0.26-1.9c0-3.95,3.21-7.15,7.15-7.15C227.23,157.8,230.43,161,230.43,164.95z"/>
	<line class="st23" x1="204.53" y1="159.93" x2="188.96" y2="159.93"/>
	<line class="st23" x1="178.78" y1="197.14" x2="156.5" y2="197.14"/>
	<line class="st23" x1="168.9" y1="221.44" x2="138.08" y2="221.44"/>
	<line class="st23" x1="156.5" y1="176.13" x2="173.46" y2="176.13"/>
</g>
</svg>
