<?xml version="1.0" encoding="utf-8"?>
<!-- Generator: Adobe Illustrator 23.0.5, SVG Export Plug-In . SVG Version: 6.00 Build 0)  -->
<svg version="1.1" xmlns="http://www.w3.org/2000/svg" xmlns:xlink="http://www.w3.org/1999/xlink" x="0px" y="0px"
	 viewBox="0 0 400 400" style="enable-background:new 0 0 400 400;" xml:space="preserve">
<style type="text/css">
	.st0{display:none;}
	.st1{display:inline;fill:#FFFFFF;stroke:#000000;stroke-width:7;stroke-miterlimit:10;}
	.st2{display:inline;fill:none;stroke:#0D553F;stroke-width:3;stroke-linecap:round;stroke-linejoin:round;stroke-miterlimit:10;}
	.st3{display:inline;fill:none;stroke:#BC8D16;stroke-width:3;stroke-linecap:round;stroke-linejoin:round;stroke-miterlimit:10;}
	.st4{display:inline;fill:none;stroke:#97D2B5;stroke-width:3;stroke-linecap:round;stroke-linejoin:round;stroke-miterlimit:10;}
	.st5{display:inline;fill:none;stroke:#7F58A5;stroke-width:3;stroke-linecap:round;stroke-linejoin:round;stroke-miterlimit:10;}
	.st6{display:inline;fill:none;stroke:#AE132A;stroke-width:3;stroke-linecap:round;stroke-linejoin:round;stroke-miterlimit:10;}
	.st7{display:inline;fill:none;stroke:#F36C52;stroke-width:3;stroke-linecap:round;stroke-linejoin:round;stroke-miterlimit:10;}
	.st8{display:inline;fill:#0D553F;}
	.st9{display:inline;fill:#BC8D16;}
	.st10{display:inline;fill:#97D2B5;}
	.st11{display:inline;fill:#7F58A5;}
	.st12{display:inline;fill:#AE132A;}
	.st13{display:inline;fill:#F36C52;}
	.st14{display:inline;}
	.st15{fill:none;stroke:#0D553F;stroke-width:3;stroke-linecap:round;stroke-linejoin:round;stroke-dasharray:0.7632,5.9257;}
	.st16{fill:none;stroke:#BC8D16;stroke-width:3;stroke-linecap:round;stroke-linejoin:round;stroke-dasharray:0.7632,5.9257;}
	.st17{fill:none;stroke:#97D2B5;stroke-width:3;stroke-linecap:round;stroke-linejoin:round;stroke-dasharray:0.7632,5.9257;}
	.st18{fill:none;stroke:#7F58A5;stroke-width:3;stroke-linecap:round;stroke-linejoin:round;stroke-dasharray:0.7632,5.9257;}
	.st19{fill:none;stroke:#AE132A;stroke-width:3;stroke-linecap:round;stroke-linejoin:round;stroke-dasharray:0.7632,5.9257;}
	.st20{fill:none;stroke:#F36C52;stroke-width:3;stroke-linecap:round;stroke-linejoin:round;stroke-dasharray:0.7632,5.9257;}
	.st21{fill:none;stroke:#0D553F;stroke-width:3;stroke-linecap:round;stroke-linejoin:round;stroke-miterlimit:10;}
	.st22{fill:none;stroke:#AE132A;stroke-width:3;stroke-linecap:round;stroke-linejoin:round;stroke-miterlimit:10;}
	.st23{fill:none;stroke:#7F58A5;stroke-width:3;stroke-linecap:round;stroke-linejoin:round;stroke-miterlimit:10;}
	.st24{fill:none;stroke:#BC8D16;stroke-width:3;stroke-linecap:round;stroke-linejoin:round;stroke-miterlimit:10;}
	.st25{fill:#0D553F;}
	.st26{fill:#AE132A;}
	.st27{fill:#7F58A5;}
</style>
<g id="Circles" class="st0">
	<circle class="st1" cx="200" cy="200" r="110"/>
</g>
<g id="Icons">
	<rect x="187.78" y="216.51" class="st21" width="24.44" height="34.87"/>
	<rect x="219.17" y="233.02" class="st21" width="24.44" height="18.36"/>
	<rect x="156.39" y="226.72" class="st21" width="24.44" height="24.66"/>
	<g>
		<path class="st23" d="M165.31,235.05c0.64-0.54,1.61-1.04,2.76-1.04c2.03,0,2.81,1.34,2.81,2.71c0,1.87-1.4,3.42-3.99,5.9
			l-1.57,1.46h0.54h6.05"/>
	</g>
	<g>
		<path class="st23" d="M228.41,246.62c0.49,0.32,1.53,0.73,2.68,0.73c2.3,0,3.3-1.4,3.29-2.75c-0.01-1.35-1.01-2.12-2.18-2.36
			c-0.09-0.05-1.73-0.53-1.73-0.53s1.58-0.41,1.66-0.46c0.94-0.27,1.83-0.94,1.83-2.03c0-1.12-0.78-2.17-2.57-2.17
			c-1.04,0-2.04,0.41-2.57,0.8"/>
	</g>
	<polyline class="st24" points="197.65,230.83 200.02,229.61 200.5,229.61 200.5,240.12 	"/>
	<g>
		<circle class="st27" cx="200" cy="173.18" r="3.55"/>
		<polyline class="st23" points="203.13,210.48 203.13,180.21 208.99,173.05 206.82,168.92 		"/>
		<polyline class="st23" points="196.87,210.48 196.87,180.21 191.01,173.05 193.18,168.92 		"/>
		<rect x="196.87" y="179.11" class="st27" width="6.27" height="15.28"/>
		<g>
			<path class="st24" d="M202.36,160.28h-4.68v-0.64c0-0.5,0.4-0.9,0.9-0.9h2.87c0.5,0,0.9,0.4,0.9,0.9V160.28z"/>
			<path class="st24" d="M205.03,166.1H195v-0.57c0-0.85,0.69-1.55,1.55-1.55h6.93c0.85,0,1.55,0.69,1.55,1.55V166.1z"/>
			<path class="st24" d="M205.15,150.13c-0.65,1.39-3.35,6.92-3.35,8.32h-3.57c0-1.4-2.71-6.93-3.35-8.32
				c-1.37-2.92-0.16-9.51-0.16-9.51h10.6C205.31,140.62,206.52,147.21,205.15,150.13z"/>
			<path class="st24" d="M207.14,144.41h2.57c0,0,3.51,6.65-5,6.65"/>
			<path class="st24" d="M192.86,144.41h-2.57c0,0-3.51,6.65,5,6.65"/>
		</g>
	</g>
</g>
</svg>
