<?xml version="1.0" encoding="utf-8"?>
<!-- Generator: Adobe Illustrator 23.0.5, SVG Export Plug-In . SVG Version: 6.00 Build 0)  -->
<svg version="1.1" xmlns="http://www.w3.org/2000/svg" xmlns:xlink="http://www.w3.org/1999/xlink" x="0px" y="0px"
	 viewBox="0 0 400 400" style="enable-background:new 0 0 400 400;" xml:space="preserve">
<style type="text/css">
	.st0{display:none;}
	.st1{display:inline;fill:#FFFFFF;stroke:#000000;stroke-width:7;stroke-miterlimit:10;}
	.st2{display:inline;fill:none;stroke:#0D553F;stroke-width:3;stroke-linecap:round;stroke-linejoin:round;stroke-miterlimit:10;}
	.st3{display:inline;fill:none;stroke:#BC8D16;stroke-width:3;stroke-linecap:round;stroke-linejoin:round;stroke-miterlimit:10;}
	.st4{display:inline;fill:none;stroke:#97D2B5;stroke-width:3;stroke-linecap:round;stroke-linejoin:round;stroke-miterlimit:10;}
	.st5{display:inline;fill:none;stroke:#7F58A5;stroke-width:3;stroke-linecap:round;stroke-linejoin:round;stroke-miterlimit:10;}
	.st6{display:inline;fill:none;stroke:#AE132A;stroke-width:3;stroke-linecap:round;stroke-linejoin:round;stroke-miterlimit:10;}
	.st7{display:inline;fill:none;stroke:#F36C52;stroke-width:3;stroke-linecap:round;stroke-linejoin:round;stroke-miterlimit:10;}
	.st8{display:inline;fill:#0D553F;}
	.st9{display:inline;fill:#BC8D16;}
	.st10{display:inline;fill:#97D2B5;}
	.st11{display:inline;fill:#7F58A5;}
	.st12{display:inline;fill:#AE132A;}
	.st13{display:inline;fill:#F36C52;}
	.st14{display:inline;}
	.st15{fill:none;stroke:#0D553F;stroke-width:3;stroke-linecap:round;stroke-linejoin:round;stroke-dasharray:0.7632,5.9257;}
	.st16{fill:none;stroke:#BC8D16;stroke-width:3;stroke-linecap:round;stroke-linejoin:round;stroke-dasharray:0.7632,5.9257;}
	.st17{fill:none;stroke:#97D2B5;stroke-width:3;stroke-linecap:round;stroke-linejoin:round;stroke-dasharray:0.7632,5.9257;}
	.st18{fill:none;stroke:#7F58A5;stroke-width:3;stroke-linecap:round;stroke-linejoin:round;stroke-dasharray:0.7632,5.9257;}
	.st19{fill:none;stroke:#AE132A;stroke-width:3;stroke-linecap:round;stroke-linejoin:round;stroke-dasharray:0.7632,5.9257;}
	.st20{fill:none;stroke:#F36C52;stroke-width:3;stroke-linecap:round;stroke-linejoin:round;stroke-dasharray:0.7632,5.9257;}
	.st21{fill:none;stroke:#0D553F;stroke-width:3;stroke-linecap:round;stroke-linejoin:round;stroke-miterlimit:10;}
	.st22{fill:none;stroke:#AE132A;stroke-width:3;stroke-linecap:round;stroke-linejoin:round;stroke-miterlimit:10;}
	.st23{fill:none;stroke:#7F58A5;stroke-width:3;stroke-linecap:round;stroke-linejoin:round;stroke-miterlimit:10;}
	.st24{fill:none;stroke:#BC8D16;stroke-width:3;stroke-linecap:round;stroke-linejoin:round;stroke-miterlimit:10;}
	.st25{fill:#0D553F;}
	.st26{fill:#AE132A;}
	.st27{fill:#7F58A5;}
</style>
<g id="Circles" class="st0">
	<circle class="st1" cx="200" cy="200" r="110"/>
</g>
<g id="Icons">
	<circle class="st21" cx="248.17" cy="170.94" r="9.64"/>
	<path class="st22" d="M182.53,222.08c-1.02-2.36-2.39-5.72-2.46-7.03c0,0,5.41-2.14,6.02-1.01c0.16,0.28,0.15,0.61,0.08,0.98
		c-0.04,0.39-1.57,2.37-0.55,3.11c2.36,1.7,4.08,0.84,4.08,0.84c0.18,0.59-0.14,1.32-0.28,1.89c-0.38,1.62,0.25,3.13,1.1,4.48
		c0.97,1.54,1.89,3.12,2.58,4.8"/>
	<path class="st21" d="M190.5,212.94l14.41-1.08l-5.23-2.71c-2.72-1.41-5.6-2.92-8.4-4.62c-1.36-0.81-2.71-1.68-4.05-2.58
		c-1.53-1.03-2.75-1.92-3.84-2.8c-0.55-0.46-1.08-1.06-1.47-1.66c-1.36-2.12-1.54-4.76-0.39-7.13c0.56-1.16,1.48-2.12,2.57-2.82
		l0.1-0.06c2.84-1.82,5.97-3.57,10.16-5.66c3.2-1.59,6.67-3.19,10.62-4.88c3.46-1.46,7.12-2.91,10.88-4.29
		c1.87-0.68,3.64-1.12,5.4-1.35c1.2-0.16,3.02-0.36,4.91-0.36c4.39,0,6.73,1.05,6.95,3.11c0.44,4.05,4.33,43.89,5.39,54.71
		c0.14,1.46-0.99,2.73-2.46,2.77l0,0c-1.29,0.03-2.41-0.91-2.58-2.19l-6.34-47.02l-2.52,1.77c-0.93,0.65-1.91,1.25-2.92,1.78
		c-3.75,1.94-7.19,3.63-10.51,5.15c-2.09,0.95-4.05,1.81-5.99,2.62l-3.08,1.29l2.71,1.95c0,0,1.33,0.95,1.65,1.18
		c2.68,1.93,5.31,3.89,7.81,5.85c2.26,1.8,4.93,3.96,7.45,6.27l1.28,1.18c0.8,0.74,1.25,1.82,1.21,2.94
		c-0.08,2.05-1.75,3.66-3.81,3.66c0,0-26.35,0.39-26.42,0.38"/>
	<line class="st26" x1="175.14" y1="219.3" x2="175.36" y2="219.11"/>
	<path class="st22" d="M173.59,218.05c-0.29-0.6-1.37-1.19-1.97-2.28c-0.84-1.54,1.86-2.02,2.03-3.27c0.17-1.25-5.37-2.72-5.37-2.72
		c-1.07,1.64-2.57,8.85-2.72,9.61c-0.09,0.49-0.11,2.08,0.75,3.81"/>
	<path class="st21" d="M195.26,225.13l9.57,3.91c2.47,1.01,5.29-0.18,6.3-2.65c0.48-1.18,0.46-2.44,0.04-3.54"/>
	<line class="st24" x1="142.19" y1="234.69" x2="199.08" y2="234.69"/>
	<polyline class="st24" points="184.59,234.69 176.69,222.73 167.76,228.71 	"/>
	<polyline class="st24" points="165.52,234.69 161.71,225.12 151.67,230.34 	"/>
</g>
</svg>
