<?xml version="1.0" encoding="utf-8"?>
<!-- Generator: Adobe Illustrator 23.0.5, SVG Export Plug-In . SVG Version: 6.00 Build 0)  -->
<svg version="1.1" xmlns="http://www.w3.org/2000/svg" xmlns:xlink="http://www.w3.org/1999/xlink" x="0px" y="0px"
	 viewBox="0 0 400 400" style="enable-background:new 0 0 400 400;" xml:space="preserve">
<style type="text/css">
	.st0{display:none;}
	.st1{display:inline;fill:#FFFFFF;stroke:#000000;stroke-width:7;stroke-miterlimit:10;}
	.st2{display:inline;fill:none;stroke:#0D553F;stroke-width:3;stroke-linecap:round;stroke-linejoin:round;stroke-miterlimit:10;}
	.st3{display:inline;fill:none;stroke:#BC8D16;stroke-width:3;stroke-linecap:round;stroke-linejoin:round;stroke-miterlimit:10;}
	.st4{display:inline;fill:none;stroke:#97D2B5;stroke-width:3;stroke-linecap:round;stroke-linejoin:round;stroke-miterlimit:10;}
	.st5{display:inline;fill:none;stroke:#7F58A5;stroke-width:3;stroke-linecap:round;stroke-linejoin:round;stroke-miterlimit:10;}
	.st6{display:inline;fill:none;stroke:#AE132A;stroke-width:3;stroke-linecap:round;stroke-linejoin:round;stroke-miterlimit:10;}
	.st7{display:inline;fill:none;stroke:#F36C52;stroke-width:3;stroke-linecap:round;stroke-linejoin:round;stroke-miterlimit:10;}
	.st8{display:inline;fill:#0D553F;}
	.st9{display:inline;fill:#BC8D16;}
	.st10{display:inline;fill:#97D2B5;}
	.st11{display:inline;fill:#7F58A5;}
	.st12{display:inline;fill:#AE132A;}
	.st13{display:inline;fill:#F36C52;}
	.st14{display:inline;}
	.st15{fill:none;stroke:#0D553F;stroke-width:3;stroke-linecap:round;stroke-linejoin:round;stroke-dasharray:0.7632,5.9257;}
	.st16{fill:none;stroke:#BC8D16;stroke-width:3;stroke-linecap:round;stroke-linejoin:round;stroke-dasharray:0.7632,5.9257;}
	.st17{fill:none;stroke:#97D2B5;stroke-width:3;stroke-linecap:round;stroke-linejoin:round;stroke-dasharray:0.7632,5.9257;}
	.st18{fill:none;stroke:#7F58A5;stroke-width:3;stroke-linecap:round;stroke-linejoin:round;stroke-dasharray:0.7632,5.9257;}
	.st19{fill:none;stroke:#AE132A;stroke-width:3;stroke-linecap:round;stroke-linejoin:round;stroke-dasharray:0.7632,5.9257;}
	.st20{fill:none;stroke:#F36C52;stroke-width:3;stroke-linecap:round;stroke-linejoin:round;stroke-dasharray:0.7632,5.9257;}
	.st21{fill:none;stroke:#0D553F;stroke-width:3;stroke-linecap:round;stroke-linejoin:round;stroke-miterlimit:10;}
	.st22{fill:none;stroke:#AE132A;stroke-width:3;stroke-linecap:round;stroke-linejoin:round;stroke-miterlimit:10;}
	.st23{fill:none;stroke:#7F58A5;stroke-width:3;stroke-linecap:round;stroke-linejoin:round;stroke-miterlimit:10;}
	.st24{fill:none;stroke:#BC8D16;stroke-width:3;stroke-linecap:round;stroke-linejoin:round;stroke-miterlimit:10;}
	.st25{fill:#0D553F;}
	.st26{fill:#AE132A;}
	.st27{fill:#7F58A5;}
</style>
<g id="Circles" class="st0">
	<circle class="st1" cx="200" cy="200" r="110"/>
</g>
<g id="Icons">
	<path class="st21" d="M237.01,221.87c-7.03,3.33-15.23,2.58-22.85,1.1c-2.09-0.41-4.19-0.86-6.29-1.29v-2.51
		c2.1,0.43,4.2,0.89,6.29,1.29c7.62,1.48,15.81,2.23,22.85-1.1"/>
	<path class="st21" d="M163.14,219.22c3.51,3.44,8.84,4.13,13.68,3.57c4.83-0.56,9.51-2.18,14.35-2.66c0.42-0.04,0.83-0.07,1.25-0.1
		v-2.51c-0.42,0.03-0.83,0.06-1.25,0.1c-4.84,0.48-9.51,2.1-14.35,2.66c-4.83,0.56-10.17-0.13-13.68-3.57"/>
	<rect x="152.4" y="155.93" class="st21" width="95.21" height="24.98"/>
	<line class="st22" x1="162.75" y1="185.62" x2="162.75" y2="239.96"/>
	<line class="st22" x1="237.25" y1="185.62" x2="237.25" y2="239.96"/>
	<g>
		<path class="st22" d="M219.96,163.61c-0.45-0.25-1.27-0.56-2.39-0.56c-1.92,0-2.97,1.15-2.97,2.45c0,1.36,0.94,2.11,2.69,2.76
			c1.77,0.67,2.57,1.46,2.57,2.86c0,1.48-1.11,2.66-3.25,2.66c-1.08,0-2.18-0.34-2.82-0.75"/>
		<polyline class="st22" points="169.09,162.62 163.59,162.62 163.59,174.22 		"/>
		<line class="st22" x1="168.73" y1="168.42" x2="163.59" y2="168.42"/>
		<line class="st22" x1="177.77" y1="174.22" x2="177.77" y2="162.62"/>
		<polyline class="st22" points="187.74,174.22 187.74,163.03 195.17,173.76 195.17,162.62 		"/>
		<line class="st22" x1="204.97" y1="174.22" x2="204.97" y2="162.62"/>
		<polyline class="st22" points="229.27,162.62 229.27,168.15 236.41,168.15 236.41,162.62 		"/>
		<polyline class="st22" points="229.27,174.22 229.27,168.15 236.41,168.15 236.41,174.22 		"/>
	</g>
	<circle class="st27" cx="200" cy="203.48" r="3.26"/>
	<polyline class="st23" points="187.71,201.29 197.12,209.94 197.12,228.16 	"/>
	<polyline class="st23" points="212.29,201.29 202.88,209.94 202.88,237.77 	"/>
	<rect x="197.12" y="208.93" class="st27" width="5.76" height="14.05"/>
	<line class="st24" x1="152.42" y1="244.07" x2="247.58" y2="244.07"/>
</g>
</svg>
