<?xml version="1.0" encoding="utf-8"?>
<!-- Generator: Adobe Illustrator 23.0.5, SVG Export Plug-In . SVG Version: 6.00 Build 0)  -->
<svg version="1.1" xmlns="http://www.w3.org/2000/svg" xmlns:xlink="http://www.w3.org/1999/xlink" x="0px" y="0px"
	 viewBox="0 0 400 400" style="enable-background:new 0 0 400 400;" xml:space="preserve">
<style type="text/css">
	.st0{display:none;}
	.st1{display:inline;fill:#FFFFFF;stroke:#000000;stroke-width:7;stroke-miterlimit:10;}
	.st2{display:inline;fill:none;stroke:#0D553F;stroke-width:3;stroke-linecap:round;stroke-linejoin:round;stroke-miterlimit:10;}
	.st3{display:inline;fill:none;stroke:#BC8D16;stroke-width:3;stroke-linecap:round;stroke-linejoin:round;stroke-miterlimit:10;}
	.st4{display:inline;fill:none;stroke:#97D2B5;stroke-width:3;stroke-linecap:round;stroke-linejoin:round;stroke-miterlimit:10;}
	.st5{display:inline;fill:none;stroke:#7F58A5;stroke-width:3;stroke-linecap:round;stroke-linejoin:round;stroke-miterlimit:10;}
	.st6{display:inline;fill:none;stroke:#AE132A;stroke-width:3;stroke-linecap:round;stroke-linejoin:round;stroke-miterlimit:10;}
	.st7{display:inline;fill:none;stroke:#F36C52;stroke-width:3;stroke-linecap:round;stroke-linejoin:round;stroke-miterlimit:10;}
	.st8{display:inline;fill:#0D553F;}
	.st9{display:inline;fill:#BC8D16;}
	.st10{display:inline;fill:#97D2B5;}
	.st11{display:inline;fill:#7F58A5;}
	.st12{display:inline;fill:#AE132A;}
	.st13{display:inline;fill:#F36C52;}
	.st14{display:inline;}
	.st15{fill:none;stroke:#0D553F;stroke-width:3;stroke-linecap:round;stroke-linejoin:round;stroke-dasharray:0.7632,5.9257;}
	.st16{fill:none;stroke:#BC8D16;stroke-width:3;stroke-linecap:round;stroke-linejoin:round;stroke-dasharray:0.7632,5.9257;}
	.st17{fill:none;stroke:#97D2B5;stroke-width:3;stroke-linecap:round;stroke-linejoin:round;stroke-dasharray:0.7632,5.9257;}
	.st18{fill:none;stroke:#7F58A5;stroke-width:3;stroke-linecap:round;stroke-linejoin:round;stroke-dasharray:0.7632,5.9257;}
	.st19{fill:none;stroke:#AE132A;stroke-width:3;stroke-linecap:round;stroke-linejoin:round;stroke-dasharray:0.7632,5.9257;}
	.st20{fill:none;stroke:#F36C52;stroke-width:3;stroke-linecap:round;stroke-linejoin:round;stroke-dasharray:0.7632,5.9257;}
	.st21{fill:none;stroke:#0D553F;stroke-width:3;stroke-linecap:round;stroke-linejoin:round;stroke-miterlimit:10;}
	.st22{fill:none;stroke:#AE132A;stroke-width:3;stroke-linecap:round;stroke-linejoin:round;stroke-miterlimit:10;}
	.st23{fill:none;stroke:#7F58A5;stroke-width:3;stroke-linecap:round;stroke-linejoin:round;stroke-miterlimit:10;}
	.st24{fill:none;stroke:#BC8D16;stroke-width:3;stroke-linecap:round;stroke-linejoin:round;stroke-miterlimit:10;}
	.st25{fill:#0D553F;}
	.st26{fill:#AE132A;}
	.st27{fill:#7F58A5;}
</style>
<g id="Circles" class="st0">
	<circle class="st1" cx="200" cy="200" r="110"/>
</g>
<g id="Icons">
	<polyline class="st23" points="225.92,204.98 191.31,204.98 191.31,189.66 225.92,189.66 225.92,204.98 	"/>
	<polyline class="st23" points="196.71,225.24 170.91,225.24 170.91,209.93 205.51,209.93 205.51,216.04 	"/>
	<polyline class="st23" points="210.72,214.85 210.72,209.93 220.37,209.93 	"/>
	<line class="st23" x1="245.32" y1="225.24" x2="231.82" y2="225.24"/>
	<polyline class="st23" points="241.12,209.93 245.32,209.93 245.32,224.57 	"/>
	<path class="st24" d="M209.26,184.58l-8.87-10.92c-9.33-11.49-27.11-10.69-35.36,1.6l-28.64,42.62h29.55"/>
	<path class="st24" d="M250.39,217.87h13.22l-32.66-40.22c-7.55-9.3-19.04-8.55-25.94,1.7l0,0"/>
	<line class="st24" x1="164.53" y1="188.99" x2="153.45" y2="205.29"/>
	<line class="st24" x1="171.94" y1="178.1" x2="169.11" y2="182.26"/>
	<path class="st21" d="M224.39,213.5L224.39,213.5c0.62,1.21,2.11,1.69,3.32,1.07l7.8-3.82c1.21-0.62,1.69-2.11,1.07-3.32l0,0
		c-0.62-1.21-2.11-1.69-3.32-1.07l-7.8,3.82C224.25,210.8,223.77,212.29,224.39,213.5z"/>
	<polyline class="st21" points="221.19,224.35 227.4,227.21 194,234.28 209.55,219 216.05,221.99 	"/>
	<polyline class="st21" points="210.08,225.82 219.65,219.67 220.96,215.29 224.39,213.5 	"/>
</g>
</svg>
