<?xml version="1.0" encoding="utf-8"?>
<!-- Generator: Adobe Illustrator 23.0.5, SVG Export Plug-In . SVG Version: 6.00 Build 0)  -->
<svg version="1.1" xmlns="http://www.w3.org/2000/svg" xmlns:xlink="http://www.w3.org/1999/xlink" x="0px" y="0px"
	 viewBox="0 0 400 400" style="enable-background:new 0 0 400 400;" xml:space="preserve">
<style type="text/css">
	.st0{display:none;}
	.st1{display:inline;fill:#FFFFFF;stroke:#000000;stroke-width:7;stroke-miterlimit:10;}
	.st2{display:inline;fill:none;stroke:#0D553F;stroke-width:3;stroke-linecap:round;stroke-linejoin:round;stroke-miterlimit:10;}
	.st3{display:inline;fill:none;stroke:#BC8D16;stroke-width:3;stroke-linecap:round;stroke-linejoin:round;stroke-miterlimit:10;}
	.st4{display:inline;fill:none;stroke:#97D2B5;stroke-width:3;stroke-linecap:round;stroke-linejoin:round;stroke-miterlimit:10;}
	.st5{display:inline;fill:none;stroke:#7F58A5;stroke-width:3;stroke-linecap:round;stroke-linejoin:round;stroke-miterlimit:10;}
	.st6{display:inline;fill:none;stroke:#AE132A;stroke-width:3;stroke-linecap:round;stroke-linejoin:round;stroke-miterlimit:10;}
	.st7{display:inline;fill:none;stroke:#F36C52;stroke-width:3;stroke-linecap:round;stroke-linejoin:round;stroke-miterlimit:10;}
	.st8{display:inline;fill:#0D553F;}
	.st9{display:inline;fill:#BC8D16;}
	.st10{display:inline;fill:#97D2B5;}
	.st11{display:inline;fill:#7F58A5;}
	.st12{display:inline;fill:#AE132A;}
	.st13{display:inline;fill:#F36C52;}
	.st14{display:inline;}
	.st15{fill:none;stroke:#0D553F;stroke-width:3;stroke-linecap:round;stroke-linejoin:round;stroke-dasharray:0.7632,5.9257;}
	.st16{fill:none;stroke:#BC8D16;stroke-width:3;stroke-linecap:round;stroke-linejoin:round;stroke-dasharray:0.7632,5.9257;}
	.st17{fill:none;stroke:#97D2B5;stroke-width:3;stroke-linecap:round;stroke-linejoin:round;stroke-dasharray:0.7632,5.9257;}
	.st18{fill:none;stroke:#7F58A5;stroke-width:3;stroke-linecap:round;stroke-linejoin:round;stroke-dasharray:0.7632,5.9257;}
	.st19{fill:none;stroke:#AE132A;stroke-width:3;stroke-linecap:round;stroke-linejoin:round;stroke-dasharray:0.7632,5.9257;}
	.st20{fill:none;stroke:#F36C52;stroke-width:3;stroke-linecap:round;stroke-linejoin:round;stroke-dasharray:0.7632,5.9257;}
	.st21{fill:none;stroke:#0D553F;stroke-width:3;stroke-linecap:round;stroke-linejoin:round;stroke-miterlimit:10;}
	.st22{fill:none;stroke:#AE132A;stroke-width:3;stroke-linecap:round;stroke-linejoin:round;stroke-miterlimit:10;}
	.st23{fill:none;stroke:#7F58A5;stroke-width:3;stroke-linecap:round;stroke-linejoin:round;stroke-miterlimit:10;}
	.st24{fill:none;stroke:#BC8D16;stroke-width:3;stroke-linecap:round;stroke-linejoin:round;stroke-miterlimit:10;}
	.st25{fill:#0D553F;}
	.st26{fill:#AE132A;}
	.st27{fill:#7F58A5;}
</style>
<g id="Circles" class="st0">
	<circle class="st1" cx="200" cy="200" r="110"/>
</g>
<g id="Icons">
	<line class="st22" x1="231.39" y1="190.15" x2="168.61" y2="190.15"/>
	<polyline class="st21" points="168.61,199.21 168.61,194.57 168.61,190.15 168.61,177.75 	"/>
	<polyline class="st22" points="164.18,236.12 164.18,236.63 168.61,236.63 168.61,203.64 	"/>
	<line class="st21" x1="164.18" y1="194.57" x2="164.18" y2="190.15"/>
	<line class="st21" x1="235.82" y1="194.57" x2="235.82" y2="190.15"/>
	<polyline class="st21" points="231.39,199.21 231.39,194.57 231.39,190.15 231.39,177.75 	"/>
	<polyline class="st22" points="235.82,236.63 231.39,236.63 231.39,203.64 	"/>
	<line class="st22" x1="190.6" y1="203.64" x2="190.6" y2="236.63"/>
	<line class="st21" x1="179.6" y1="203.64" x2="179.6" y2="236.63"/>
	<line class="st22" x1="209.4" y1="203.64" x2="209.4" y2="236.63"/>
	<line class="st21" x1="220.4" y1="203.64" x2="220.4" y2="236.63"/>
	<line class="st24" x1="168.61" y1="203.64" x2="190.6" y2="236.63"/>
	<line class="st24" x1="231.39" y1="203.64" x2="209.4" y2="236.63"/>
	<line class="st21" x1="164.18" y1="199.21" x2="235.82" y2="199.21"/>
	<polyline class="st24" points="235.82,199.21 235.82,203.64 164.18,203.64 164.18,199.21 	"/>
	<polyline class="st21" points="164.18,181.18 164.18,190.15 164.18,194.57 164.18,199.21 164.18,203.64 164.18,236.12 	"/>
	<polyline class="st21" points="235.82,181.18 235.82,190.15 235.82,194.57 235.82,199.21 235.82,203.64 235.82,236.63 	"/>
	<line class="st24" x1="256.81" y1="236.63" x2="143.19" y2="236.63"/>
	<polyline class="st24" points="252.34,192.36 200,154.39 147.66,192.36 	"/>
</g>
</svg>
