<?xml version="1.0" encoding="utf-8"?>
<!-- Generator: Adobe Illustrator 23.0.5, SVG Export Plug-In . SVG Version: 6.00 Build 0)  -->
<svg version="1.1" xmlns="http://www.w3.org/2000/svg" xmlns:xlink="http://www.w3.org/1999/xlink" x="0px" y="0px"
	 viewBox="0 0 400 400" style="enable-background:new 0 0 400 400;" xml:space="preserve">
<style type="text/css">
	.st0{display:none;}
	.st1{display:inline;fill:#FFFFFF;stroke:#000000;stroke-width:7;stroke-miterlimit:10;}
	.st2{display:inline;fill:none;stroke:#0D553F;stroke-width:3;stroke-linecap:round;stroke-linejoin:round;stroke-miterlimit:10;}
	.st3{display:inline;fill:none;stroke:#BC8D16;stroke-width:3;stroke-linecap:round;stroke-linejoin:round;stroke-miterlimit:10;}
	.st4{display:inline;fill:none;stroke:#97D2B5;stroke-width:3;stroke-linecap:round;stroke-linejoin:round;stroke-miterlimit:10;}
	.st5{display:inline;fill:none;stroke:#7F58A5;stroke-width:3;stroke-linecap:round;stroke-linejoin:round;stroke-miterlimit:10;}
	.st6{display:inline;fill:none;stroke:#AE132A;stroke-width:3;stroke-linecap:round;stroke-linejoin:round;stroke-miterlimit:10;}
	.st7{display:inline;fill:none;stroke:#F36C52;stroke-width:3;stroke-linecap:round;stroke-linejoin:round;stroke-miterlimit:10;}
	.st8{display:inline;fill:#0D553F;}
	.st9{display:inline;fill:#BC8D16;}
	.st10{display:inline;fill:#97D2B5;}
	.st11{display:inline;fill:#7F58A5;}
	.st12{display:inline;fill:#AE132A;}
	.st13{display:inline;fill:#F36C52;}
	.st14{display:inline;}
	.st15{fill:none;stroke:#0D553F;stroke-width:3;stroke-linecap:round;stroke-linejoin:round;stroke-dasharray:0.7632,5.9257;}
	.st16{fill:none;stroke:#BC8D16;stroke-width:3;stroke-linecap:round;stroke-linejoin:round;stroke-dasharray:0.7632,5.9257;}
	.st17{fill:none;stroke:#97D2B5;stroke-width:3;stroke-linecap:round;stroke-linejoin:round;stroke-dasharray:0.7632,5.9257;}
	.st18{fill:none;stroke:#7F58A5;stroke-width:3;stroke-linecap:round;stroke-linejoin:round;stroke-dasharray:0.7632,5.9257;}
	.st19{fill:none;stroke:#AE132A;stroke-width:3;stroke-linecap:round;stroke-linejoin:round;stroke-dasharray:0.7632,5.9257;}
	.st20{fill:none;stroke:#F36C52;stroke-width:3;stroke-linecap:round;stroke-linejoin:round;stroke-dasharray:0.7632,5.9257;}
	.st21{fill:none;stroke:#0D553F;stroke-width:3;stroke-linecap:round;stroke-linejoin:round;stroke-miterlimit:10;}
	.st22{fill:none;stroke:#AE132A;stroke-width:3;stroke-linecap:round;stroke-linejoin:round;stroke-miterlimit:10;}
	.st23{fill:none;stroke:#7F58A5;stroke-width:3;stroke-linecap:round;stroke-linejoin:round;stroke-miterlimit:10;}
	.st24{fill:none;stroke:#BC8D16;stroke-width:3;stroke-linecap:round;stroke-linejoin:round;stroke-miterlimit:10;}
	.st25{fill:#0D553F;}
	.st26{fill:#AE132A;}
	.st27{fill:#7F58A5;}
</style>
<g id="Circles" class="st0">
	<circle class="st1" cx="200" cy="200" r="110"/>
</g>
<g id="Icons">
	<line class="st21" x1="154.52" y1="233.97" x2="154.08" y2="212.24"/>
	<polyline class="st21" points="154.3,218.46 166.97,218.46 152.64,183.34 137.63,218.46 150.08,218.46 149.81,233.97 	"/>
	<polyline class="st21" points="226.41,175.51 226.41,165.83 235.97,165.83 235.97,182.44 	"/>
	<polyline class="st24" points="186.95,234.25 183.27,234.25 183.27,233.83 	"/>
	<line class="st21" x1="183.27" y1="199.26" x2="183.27" y2="195.58"/>
	<line class="st21" x1="242.87" y1="199.26" x2="242.87" y2="195.58"/>
	<line class="st24" x1="242.87" y1="234.25" x2="239.19" y2="234.25"/>
	<line class="st23" x1="205.25" y1="206.8" x2="205.25" y2="234.25"/>
	<line class="st23" x1="220.89" y1="234.25" x2="220.89" y2="206.8"/>
	<line class="st23" x1="220.89" y1="206.8" x2="205.25" y2="206.8"/>
	<line class="st24" x1="242.87" y1="206.8" x2="242.87" y2="203.12"/>
	<line class="st24" x1="183.27" y1="206.8" x2="183.27" y2="203.12"/>
	<polyline class="st21" points="183.27,188.12 183.27,195.58 183.27,199.26 183.27,203.12 183.27,206.8 183.27,233.83 	"/>
	<polyline class="st21" points="242.87,188.12 242.87,195.58 242.87,199.26 242.87,203.12 242.87,206.8 242.87,234.26 	"/>
	<polyline class="st21" points="256.62,197.42 213.07,165.83 169.52,197.42 	"/>
	<rect x="223.98" y="189.2" class="st23" width="11.45" height="11.45"/>
	<rect x="190.7" y="189.2" class="st23" width="11.45" height="11.45"/>
	<circle class="st25" cx="209.25" cy="219.88" r="1.39"/>
	<path class="st24" d="M235.49,154.96c-1.04,2.86-2.91,3.88-5.28,5.49"/>
	<path class="st24" d="M227.12,138.55c0.6,2.98,2.94,5.19,4.97,7.4"/>
	<path class="st24" d="M229.76,154.29c2.34-3.52,6.75-4.14,7.7-8.86c0.51-2.54-0.2-4.67-1.48-6.51"/>
	<polyline class="st24" points="257.26,234.25 239.8,234.25 236.11,234.25 217.82,234.25 202.18,234.25 193.02,234.25 
		183.88,234.25 179.23,234.25 134.74,234.25 	"/>
</g>
</svg>
