<?xml version="1.0" encoding="utf-8"?>
<!-- Generator: Adobe Illustrator 23.0.5, SVG Export Plug-In . SVG Version: 6.00 Build 0)  -->
<svg version="1.1" xmlns="http://www.w3.org/2000/svg" xmlns:xlink="http://www.w3.org/1999/xlink" x="0px" y="0px"
	 viewBox="0 0 400 400" style="enable-background:new 0 0 400 400;" xml:space="preserve">
<style type="text/css">
	.st0{display:none;}
	.st1{display:inline;fill:#FFFFFF;stroke:#000000;stroke-width:7;stroke-miterlimit:10;}
	.st2{display:inline;fill:none;stroke:#0D553F;stroke-width:3;stroke-linecap:round;stroke-linejoin:round;stroke-miterlimit:10;}
	.st3{display:inline;fill:none;stroke:#BC8D16;stroke-width:3;stroke-linecap:round;stroke-linejoin:round;stroke-miterlimit:10;}
	.st4{display:inline;fill:none;stroke:#97D2B5;stroke-width:3;stroke-linecap:round;stroke-linejoin:round;stroke-miterlimit:10;}
	.st5{display:inline;fill:none;stroke:#7F58A5;stroke-width:3;stroke-linecap:round;stroke-linejoin:round;stroke-miterlimit:10;}
	.st6{display:inline;fill:none;stroke:#AE132A;stroke-width:3;stroke-linecap:round;stroke-linejoin:round;stroke-miterlimit:10;}
	.st7{display:inline;fill:none;stroke:#F36C52;stroke-width:3;stroke-linecap:round;stroke-linejoin:round;stroke-miterlimit:10;}
	.st8{display:inline;fill:#0D553F;}
	.st9{display:inline;fill:#BC8D16;}
	.st10{display:inline;fill:#97D2B5;}
	.st11{display:inline;fill:#7F58A5;}
	.st12{display:inline;fill:#AE132A;}
	.st13{display:inline;fill:#F36C52;}
	.st14{display:inline;}
	.st15{fill:none;stroke:#0D553F;stroke-width:3;stroke-linecap:round;stroke-linejoin:round;stroke-dasharray:0.7446,5.7812;}
	.st16{fill:none;stroke:#BC8D16;stroke-width:3;stroke-linecap:round;stroke-linejoin:round;stroke-dasharray:0.7446,5.7812;}
	.st17{fill:none;stroke:#97D2B5;stroke-width:3;stroke-linecap:round;stroke-linejoin:round;stroke-dasharray:0.7446,5.7812;}
	.st18{fill:none;stroke:#7F58A5;stroke-width:3;stroke-linecap:round;stroke-linejoin:round;stroke-dasharray:0.7446,5.7812;}
	.st19{fill:none;stroke:#AE132A;stroke-width:3;stroke-linecap:round;stroke-linejoin:round;stroke-dasharray:0.7446,5.7812;}
	.st20{fill:none;stroke:#F36C52;stroke-width:3;stroke-linecap:round;stroke-linejoin:round;stroke-dasharray:0.7446,5.7812;}
	.st21{fill:none;stroke:#AE132A;stroke-width:3;stroke-linecap:round;stroke-linejoin:round;stroke-miterlimit:10;}
	.st22{fill:none;stroke:#BC8D16;stroke-width:3;stroke-linecap:round;stroke-linejoin:round;stroke-miterlimit:10;}
	.st23{fill:#7F58A5;}
	.st24{fill:none;stroke:#0D553F;stroke-width:3;stroke-linecap:round;stroke-linejoin:round;stroke-miterlimit:10;}
	.st25{fill:none;stroke:#7F58A5;stroke-width:3;stroke-linecap:round;stroke-linejoin:round;stroke-miterlimit:10;}
	.st26{fill:#BC8D16;}
</style>
<g id="Circles" class="st0">
	<circle class="st1" cx="200" cy="200" r="110"/>
</g>
<g id="Icons">
	<line class="st25" x1="170.45" y1="196.58" x2="159" y2="163.44"/>
	<line class="st25" x1="160.37" y1="200.06" x2="148.93" y2="166.91"/>
	<g>
		<g>
			<path class="st23" d="M179.68,199.14c1.93,0,1.93-3,0-3C177.75,196.14,177.75,199.14,179.68,199.14L179.68,199.14z"/>
		</g>
	</g>
	<g>
		<g>
			<path class="st23" d="M184.84,207.22c1.93,0,1.93-3,0-3C182.91,204.22,182.9,207.22,184.84,207.22L184.84,207.22z"/>
		</g>
	</g>
	<g>
		<g>
			<path class="st23" d="M182.6,217.88c1.93,0,1.93-3,0-3C180.67,214.88,180.67,217.88,182.6,217.88L182.6,217.88z"/>
		</g>
	</g>
	<polygon class="st24" points="175.97,194.67 179.68,185.93 179.68,185.93 170.53,159.45 132.52,172.58 143.97,205.72 
		175.97,194.67 	"/>
	<path class="st22" d="M239.77,206.36c-6.26-3.06-18.25,0.51-21.93,10.02"/>
	<path class="st22" d="M221.3,211c-3.9-1.01-6.48-1.11-9.4,0c-2.88,1.09-5.7,3.17-7.91,5.38"/>
	<path class="st22" d="M150.35,216.09c0,0,20.16,0,20.17,0c-0.12,0.01,1.91,6.34,2.14,6.9c1.51,3.73,3.99,6.85,7.78,8.43
		c10.87,4.53,17.03-5.52,17.35-15.05h6.19"/>
	<path class="st22" d="M234.9,210.23c0.72-1.62,2.24-2.78,3.9-3.39c2.99-1.1,6.57-0.91,9.59-0.05c3.3,0.94,6.14,3.04,8.22,5.75
		c0.78,1.01,1.48,2.11,1.98,3.29h9.31"/>
</g>
</svg>
