<?xml version="1.0" encoding="utf-8"?>
<!-- Generator: Adobe Illustrator 23.0.5, SVG Export Plug-In . SVG Version: 6.00 Build 0)  -->
<svg version="1.1" xmlns="http://www.w3.org/2000/svg" xmlns:xlink="http://www.w3.org/1999/xlink" x="0px" y="0px"
	 viewBox="0 0 400 400" style="enable-background:new 0 0 400 400;" xml:space="preserve">
<style type="text/css">
	.st0{display:none;}
	.st1{display:inline;fill:#FFFFFF;stroke:#000000;stroke-width:7;stroke-miterlimit:10;}
	.st2{display:inline;fill:none;stroke:#0D553F;stroke-width:3;stroke-linecap:round;stroke-linejoin:round;stroke-miterlimit:10;}
	.st3{display:inline;fill:none;stroke:#BC8D16;stroke-width:3;stroke-linecap:round;stroke-linejoin:round;stroke-miterlimit:10;}
	.st4{display:inline;fill:none;stroke:#97D2B5;stroke-width:3;stroke-linecap:round;stroke-linejoin:round;stroke-miterlimit:10;}
	.st5{display:inline;fill:none;stroke:#7F58A5;stroke-width:3;stroke-linecap:round;stroke-linejoin:round;stroke-miterlimit:10;}
	.st6{display:inline;fill:none;stroke:#AE132A;stroke-width:3;stroke-linecap:round;stroke-linejoin:round;stroke-miterlimit:10;}
	.st7{display:inline;fill:none;stroke:#F36C52;stroke-width:3;stroke-linecap:round;stroke-linejoin:round;stroke-miterlimit:10;}
	.st8{display:inline;fill:#0D553F;}
	.st9{display:inline;fill:#BC8D16;}
	.st10{display:inline;fill:#97D2B5;}
	.st11{display:inline;fill:#7F58A5;}
	.st12{display:inline;fill:#AE132A;}
	.st13{display:inline;fill:#F36C52;}
	.st14{display:inline;}
	.st15{fill:none;stroke:#0D553F;stroke-width:3;stroke-linecap:round;stroke-linejoin:round;stroke-dasharray:0.7446,5.7812;}
	.st16{fill:none;stroke:#BC8D16;stroke-width:3;stroke-linecap:round;stroke-linejoin:round;stroke-dasharray:0.7446,5.7812;}
	.st17{fill:none;stroke:#97D2B5;stroke-width:3;stroke-linecap:round;stroke-linejoin:round;stroke-dasharray:0.7446,5.7812;}
	.st18{fill:none;stroke:#7F58A5;stroke-width:3;stroke-linecap:round;stroke-linejoin:round;stroke-dasharray:0.7446,5.7812;}
	.st19{fill:none;stroke:#AE132A;stroke-width:3;stroke-linecap:round;stroke-linejoin:round;stroke-dasharray:0.7446,5.7812;}
	.st20{fill:none;stroke:#F36C52;stroke-width:3;stroke-linecap:round;stroke-linejoin:round;stroke-dasharray:0.7446,5.7812;}
	.st21{fill:none;stroke:#AE132A;stroke-width:3;stroke-linecap:round;stroke-linejoin:round;stroke-miterlimit:10;}
	.st22{fill:none;stroke:#BC8D16;stroke-width:3;stroke-linecap:round;stroke-linejoin:round;stroke-miterlimit:10;}
	.st23{fill:#7F58A5;}
	.st24{fill:none;stroke:#0D553F;stroke-width:3;stroke-linecap:round;stroke-linejoin:round;stroke-miterlimit:10;}
	.st25{fill:none;stroke:#7F58A5;stroke-width:3;stroke-linecap:round;stroke-linejoin:round;stroke-miterlimit:10;}
	.st26{fill:#BC8D16;}
</style>
<g id="Circles" class="st0">
	<circle class="st1" cx="200" cy="200" r="110"/>
</g>
<g id="Icons">
	<polyline class="st21" points="223.42,156.56 233.2,145.44 246.67,164.18 242.4,169.04 	"/>
	<polyline class="st21" points="239.39,166.4 241.57,163.93 232.88,151.85 226.78,158.79 	"/>
	<polyline class="st21" points="225.87,196.39 195.94,195.78 194.92,191.68 217.15,186.36 	"/>
	<polygon class="st21" points="194.92,191.68 186.43,185.89 191.81,204.81 195.94,195.78 	"/>
	<polygon class="st21" points="251.21,175.06 229.15,200.15 204.53,171.85 219.99,154.27 	"/>
	<g>
		<path class="st22" d="M175.35,228.12c3.31-3.85,7.73-6.38,12.24-6.69c4.5-0.3,9.63,2.7,13.2,6.09"/>
		<path class="st22" d="M193.7,222.56c7.49-3.66,21.86,0.61,26.27,12"/>
		<path class="st22" d="M170.14,230.82c-6.77-1.95-13.5-0.76-19.18,3.4h-19.05"/>
		<path class="st22" d="M215.83,228.12c4.67-1.21,7.77-1.33,11.26,0c3.44,1.31,6.82,3.8,9.47,6.44h21.53"/>
		<path class="st22" d="M158.41,230.59c0,0,7.35-11.64,23.72-7.69"/>
	</g>
	<g>
		<g>
			<path class="st23" d="M185,201.78c1.93,0,1.93-3,0-3C183.07,198.78,183.07,201.78,185,201.78L185,201.78z"/>
		</g>
	</g>
	<g>
		<g>
			<path class="st23" d="M186.65,208.84c1.93,0,1.93-3,0-3C184.72,205.84,184.71,208.84,186.65,208.84L186.65,208.84z"/>
		</g>
	</g>
	<g>
		<g>
			<path class="st23" d="M180.29,208.37c1.93,0,1.93-3,0-3C178.36,205.37,178.36,208.37,180.29,208.37L180.29,208.37z"/>
		</g>
	</g>
	<g>
		<g>
			<path class="st23" d="M188.07,214.72c1.93,0,1.93-3,0-3C186.14,211.72,186.14,214.72,188.07,214.72L188.07,214.72z"/>
		</g>
	</g>
	<g>
		<g>
			<path class="st23" d="M180.88,214.72c1.93,0,1.93-3,0-3C178.95,211.72,178.95,214.72,180.88,214.72L180.88,214.72z"/>
		</g>
	</g>
	<g>
		<g>
			<path class="st23" d="M183.47,218.95c1.93,0,1.93-3,0-3C181.54,215.95,181.54,218.95,183.47,218.95L183.47,218.95z"/>
		</g>
	</g>
	<g>
		<g>
			<path class="st23" d="M174.29,218.95c1.93,0,1.93-3,0-3C172.36,215.95,172.36,218.95,174.29,218.95L174.29,218.95z"/>
		</g>
	</g>
</g>
</svg>
