<?xml version="1.0" encoding="utf-8"?>
<!-- Generator: Adobe Illustrator 23.0.5, SVG Export Plug-In . SVG Version: 6.00 Build 0)  -->
<svg version="1.1" xmlns="http://www.w3.org/2000/svg" xmlns:xlink="http://www.w3.org/1999/xlink" x="0px" y="0px"
	 viewBox="0 0 400 400" style="enable-background:new 0 0 400 400;" xml:space="preserve">
<style type="text/css">
	.st0{display:none;}
	.st1{display:inline;fill:#FFFFFF;stroke:#000000;stroke-width:7;stroke-miterlimit:10;}
	.st2{display:inline;fill:none;stroke:#0D553F;stroke-width:3;stroke-linecap:round;stroke-linejoin:round;stroke-miterlimit:10;}
	.st3{display:inline;fill:none;stroke:#BC8D16;stroke-width:3;stroke-linecap:round;stroke-linejoin:round;stroke-miterlimit:10;}
	.st4{display:inline;fill:none;stroke:#97D2B5;stroke-width:3;stroke-linecap:round;stroke-linejoin:round;stroke-miterlimit:10;}
	.st5{display:inline;fill:none;stroke:#7F58A5;stroke-width:3;stroke-linecap:round;stroke-linejoin:round;stroke-miterlimit:10;}
	.st6{display:inline;fill:none;stroke:#AE132A;stroke-width:3;stroke-linecap:round;stroke-linejoin:round;stroke-miterlimit:10;}
	.st7{display:inline;fill:none;stroke:#F36C52;stroke-width:3;stroke-linecap:round;stroke-linejoin:round;stroke-miterlimit:10;}
	.st8{display:inline;fill:#0D553F;}
	.st9{display:inline;fill:#BC8D16;}
	.st10{display:inline;fill:#97D2B5;}
	.st11{display:inline;fill:#7F58A5;}
	.st12{display:inline;fill:#AE132A;}
	.st13{display:inline;fill:#F36C52;}
	.st14{display:inline;}
	.st15{fill:none;stroke:#0D553F;stroke-width:3;stroke-linecap:round;stroke-linejoin:round;stroke-dasharray:0.7446,5.7812;}
	.st16{fill:none;stroke:#BC8D16;stroke-width:3;stroke-linecap:round;stroke-linejoin:round;stroke-dasharray:0.7446,5.7812;}
	.st17{fill:none;stroke:#97D2B5;stroke-width:3;stroke-linecap:round;stroke-linejoin:round;stroke-dasharray:0.7446,5.7812;}
	.st18{fill:none;stroke:#7F58A5;stroke-width:3;stroke-linecap:round;stroke-linejoin:round;stroke-dasharray:0.7446,5.7812;}
	.st19{fill:none;stroke:#AE132A;stroke-width:3;stroke-linecap:round;stroke-linejoin:round;stroke-dasharray:0.7446,5.7812;}
	.st20{fill:none;stroke:#F36C52;stroke-width:3;stroke-linecap:round;stroke-linejoin:round;stroke-dasharray:0.7446,5.7812;}
	.st21{fill:none;stroke:#AE132A;stroke-width:3;stroke-linecap:round;stroke-linejoin:round;stroke-miterlimit:10;}
	.st22{fill:none;stroke:#BC8D16;stroke-width:3;stroke-linecap:round;stroke-linejoin:round;stroke-miterlimit:10;}
	.st23{fill:#7F58A5;}
	.st24{fill:none;stroke:#0D553F;stroke-width:3;stroke-linecap:round;stroke-linejoin:round;stroke-miterlimit:10;}
	.st25{fill:none;stroke:#7F58A5;stroke-width:3;stroke-linecap:round;stroke-linejoin:round;stroke-miterlimit:10;}
	.st26{fill:#BC8D16;}
</style>
<g id="Circles" class="st0">
	<circle class="st1" cx="200" cy="200" r="110"/>
</g>
<g id="Icons">
	<polygon class="st21" points="223.14,258.49 211.69,258.49 208.39,244.38 226.44,244.38 	"/>
	<path class="st21" d="M212.12,244.38c0-3.99,2.37-7.2,5.29-7.2s5.29,3.21,5.29,7.2"/>
	<path class="st26" d="M252.1,203.82c-0.18,3.47-2.96,6.2-6.35,6.45l-6.6-9.82c1.18-2.39,3.69-3.96,6.51-3.81
		C249.42,196.85,252.31,200.06,252.1,203.82z"/>
	<g>
		<path class="st26" d="M240.73,260.3c-0.13,0-0.27-0.01-0.4-0.03c-1.38-0.22-2.33-1.52-2.11-2.9l4.08-25.73v-14.24l-15.27-22.66
			c-0.78-1.16-0.48-2.74,0.69-3.52c1.16-0.78,2.74-0.48,3.52,0.69l15.71,23.3c0.28,0.42,0.43,0.91,0.43,1.42v15.22
			c0,0.13-0.01,0.27-0.03,0.4l-4.11,25.93C243.03,259.41,241.95,260.3,240.73,260.3z"/>
	</g>
	<g>
		<path class="st26" d="M249.91,260.55c-0.2,0.05-0.41,0.07-0.61,0.07c-1.21,0-2.32-0.84-2.6-2.07l-1.07-4.56l2.21-13.95l4.07,17.28
			C252.24,258.77,251.35,260.21,249.91,260.55z"/>
	</g>
	<g>
		<path class="st26" d="M239.76,216.61l-20.03-12.38c-1.27-0.78-1.64-2.42-0.87-3.67c0.78-1.27,2.43-1.66,3.69-0.87l9.93,6.15
			L239.76,216.61z"/>
	</g>
	<line class="st22" x1="143.86" y1="263.28" x2="259.96" y2="263.28"/>
	<path class="st24" d="M196.61,258.49c0,0-5.47-16.42-3.63-39.97c0,0,6.76-0.85,11.21-3.95"/>
	<path class="st24" d="M201.2,212.18c-2.89,1.3-6.41,2.5-9.16,2.28c0,0,1.65-9.86,4.61-17.35"/>
	<path class="st24" d="M176.93,198.29c1.21,7.35,6.11,11.39,8.37,13.91c2.7-2.65,4.9-8.46,6.11-12.17"/>
	<path class="st24" d="M173.22,195.18c0.15,1.47,1.37,10.92,4.93,15.3c0,0-7.09-1.75-11.19-5.63"/>
	<path class="st24" d="M174.66,258.49c4.61-18.49,3.08-42.9,3.08-42.9c-6.65-1.79-11.52-6.25-13.56-9.04h0"/>
	<path class="st24" d="M225.04,212.21c-3.04,3.06-7.25,4.95-11.91,4.95c-9.28,0-16.8-7.52-16.8-16.78c0-1.12,0.11-2.2,0.32-3.26
		c-2.9,2.39-6.62,3.82-10.67,3.82c-5.09,0-9.66-2.27-12.74-5.84c-1.67,7.52-8.38,13.14-16.4,13.14c-9.28,0-16.8-7.51-16.8-16.78
		c0-6.24,3.41-11.69,8.47-14.58c-1.75-2.28-2.79-5.14-2.79-8.23c0-7.14,5.53-12.99,12.55-13.51c-1.24-2.17-1.96-4.68-1.96-7.36
		c0-8.19,6.64-14.82,14.83-14.82c5.27,0,9.89,2.74,12.52,6.87c2.3-7.57,9.35-13.09,17.68-13.09c10.21,0,18.48,8.27,18.48,18.47
		c0,1.33-0.14,2.62-0.41,3.87c0.25-0.02,0.5-0.02,0.74-0.02c7.49,0,13.56,6.06,13.56,13.54c0,4.23-1.94,8.01-4.99,10.5
		c4.27,1.86,7.25,6.12,7.25,11.07c0,2.13-0.55,4.13-1.52,5.87"/>
	<path class="st24" d="M212.89,160.06c-0.53,0.61-1.05,1.57-0.75,2.85"/>
	<path class="st24" d="M171.63,141.88c0.51,0.66,0.99,1.67,0.61,2.97"/>
	<path class="st24" d="M158.06,189.94c-0.75,0.15-1.7,0.58-2.21,1.72"/>
	<path class="st24" d="M162.91,166.67c0.89,0.16,2.02,0.63,2.66,1.96"/>
	<path class="st24" d="M213.18,190.73c0.09,0.76-0.03,1.79-0.95,2.63"/>
	<path class="st21" d="M208.04,166.19c0.11,2.34,2.08,3.93,4.42,3.83c2.34-0.11,4.16-1.87,4.05-4.21c-0.11-2.34-1.41-4.39-4.38-2.89
		C208.83,161.93,207.93,163.85,208.04,166.19z"/>
	<path class="st24" d="M201.84,138.48c-0.6,0.28-1.3,0.83-1.45,1.92"/>
	<path class="st21" d="M196.18,141.44c-0.63,1.83,0.44,3.76,2.31,4.52c1.87,0.76,3.83,0.06,4.46-1.77c0.63-1.83,0.22-3.87-2.56-3.79
		C198.09,138.45,196.8,139.61,196.18,141.44z"/>
	<path class="st21" d="M176.27,148.44c-0.24,2.39-2.35,3.92-4.75,3.68s-4.17-2.15-3.93-4.55s1.69-4.43,4.65-2.73
		C175.69,144.02,176.51,146.05,176.27,148.44z"/>
	<path class="st21" d="M150.87,191.78c-1.27,1.82-0.7,4.16,1.13,5.43c1.83,1.27,4.22,0.98,5.49-0.84c1.27-1.82,1.47-4.12-1.63-4.7
		C153.92,189.02,152.14,189.95,150.87,191.78z"/>
	<path class="st21" d="M171.46,168.6c1.55,2.11,0.96,4.89-1.16,6.44c-2.11,1.55-4.95,1.29-6.5-0.82s-1.86-4.82,1.78-5.6
		C167.76,165.44,169.9,166.49,171.46,168.6z"/>
	<path class="st24" d="M196.04,171.19c-0.39,0.82-1.15,1.77-2.61,2.03"/>
	<path class="st21" d="M191.87,178.88c-2.45,0.93-4.97-0.4-5.9-2.85s0.09-5.11,2.54-6.03c2.45-0.93,5.15-0.49,4.92,3.22
		C195.91,176.18,194.33,177.96,191.87,178.88z"/>
	<path class="st21" d="M213.65,198.13c-1.34,1.77-3.74,1.95-5.51,0.61s-2.24-3.7-0.89-5.47s3.47-2.67,4.97,0.1
		C215.33,194.37,215,196.36,213.65,198.13z"/>
</g>
</svg>
