<?xml version="1.0" encoding="utf-8"?>
<!-- Generator: Adobe Illustrator 23.0.5, SVG Export Plug-In . SVG Version: 6.00 Build 0)  -->
<svg version="1.1" xmlns="http://www.w3.org/2000/svg" xmlns:xlink="http://www.w3.org/1999/xlink" x="0px" y="0px"
	 viewBox="0 0 400 400" style="enable-background:new 0 0 400 400;" xml:space="preserve">
<style type="text/css">
	.st0{display:none;}
	.st1{display:inline;fill:#FFFFFF;stroke:#000000;stroke-width:7;stroke-miterlimit:10;}
	.st2{display:inline;fill:none;stroke:#0D553F;stroke-width:3;stroke-linecap:round;stroke-linejoin:round;stroke-miterlimit:10;}
	.st3{display:inline;fill:none;stroke:#BC8D16;stroke-width:3;stroke-linecap:round;stroke-linejoin:round;stroke-miterlimit:10;}
	.st4{display:inline;fill:none;stroke:#97D2B5;stroke-width:3;stroke-linecap:round;stroke-linejoin:round;stroke-miterlimit:10;}
	.st5{display:inline;fill:none;stroke:#7F58A5;stroke-width:3;stroke-linecap:round;stroke-linejoin:round;stroke-miterlimit:10;}
	.st6{display:inline;fill:none;stroke:#AE132A;stroke-width:3;stroke-linecap:round;stroke-linejoin:round;stroke-miterlimit:10;}
	.st7{display:inline;fill:none;stroke:#F36C52;stroke-width:3;stroke-linecap:round;stroke-linejoin:round;stroke-miterlimit:10;}
	.st8{display:inline;fill:#0D553F;}
	.st9{display:inline;fill:#BC8D16;}
	.st10{display:inline;fill:#97D2B5;}
	.st11{display:inline;fill:#7F58A5;}
	.st12{display:inline;fill:#AE132A;}
	.st13{display:inline;fill:#F36C52;}
	.st14{display:inline;}
	.st15{fill:none;stroke:#0D553F;stroke-width:3;stroke-linecap:round;stroke-linejoin:round;stroke-dasharray:0.7446,5.7812;}
	.st16{fill:none;stroke:#BC8D16;stroke-width:3;stroke-linecap:round;stroke-linejoin:round;stroke-dasharray:0.7446,5.7812;}
	.st17{fill:none;stroke:#97D2B5;stroke-width:3;stroke-linecap:round;stroke-linejoin:round;stroke-dasharray:0.7446,5.7812;}
	.st18{fill:none;stroke:#7F58A5;stroke-width:3;stroke-linecap:round;stroke-linejoin:round;stroke-dasharray:0.7446,5.7812;}
	.st19{fill:none;stroke:#AE132A;stroke-width:3;stroke-linecap:round;stroke-linejoin:round;stroke-dasharray:0.7446,5.7812;}
	.st20{fill:none;stroke:#F36C52;stroke-width:3;stroke-linecap:round;stroke-linejoin:round;stroke-dasharray:0.7446,5.7812;}
	.st21{fill:none;stroke:#AE132A;stroke-width:3;stroke-linecap:round;stroke-linejoin:round;stroke-miterlimit:10;}
	.st22{fill:none;stroke:#BC8D16;stroke-width:3;stroke-linecap:round;stroke-linejoin:round;stroke-miterlimit:10;}
	.st23{fill:#7F58A5;}
	.st24{fill:none;stroke:#0D553F;stroke-width:3;stroke-linecap:round;stroke-linejoin:round;stroke-miterlimit:10;}
	.st25{fill:none;stroke:#7F58A5;stroke-width:3;stroke-linecap:round;stroke-linejoin:round;stroke-miterlimit:10;}
	.st26{fill:#BC8D16;}
</style>
<g id="Circles" class="st0">
	<circle class="st1" cx="200" cy="200" r="110"/>
</g>
<g id="Icons">
	<path class="st22" d="M164.67,226.79c1.06,1.31,2.11,2.63,3.17,3.94c0.65,0.81,1.29,1.7,1.9,2.56c0.61,0.85,1.18,1.89,2.08,2.46
		c0.99,0.62,2.11,1.04,3.22,1.4c3.44,1.11,7.08,1.67,10.66,2.08c4.74,0.54,9.52,0.76,14.29,0.76c4.86,0,9.73-0.23,14.56-0.8
		c3.55-0.42,7.16-0.97,10.57-2.1c1.06-0.35,2.14-0.7,3.1-1.3c0.78-0.49,1.23-1.31,1.73-2.05c1.65-2.42,3.53-4.68,5.37-6.96"/>
	<path class="st22" d="M134.99,190.22c0,24.05,29.11,43.56,65.01,43.56s65.01-19.5,65.01-43.56"/>
	<path class="st24" d="M166.37,169.32c1.19,3.23,1.77,7.82-1.35,12.46"/>
	<path class="st21" d="M142.13,196.42c-0.61-3.15-0.28-6.51,1.15-9.8c0.58-1.33,1.26-2.61,2.01-3.77c3.9-6,9.99-9.19,16.94-3.72
		c0.91,0.72,1.85,1.59,2.8,2.63c3.44,0.26,6.1,0.96,8.11,1.99c6.53,3.35,6.19,10.26,3.16,17.22c-0.28,0.64-0.58,1.26-0.94,1.83"/>
	<path class="st24" d="M182.08,168.16c2.98,2.28,6.2,6.17,6.04,12.27"/>
	<path class="st21" d="M173.13,183.76c2.61-3.66,7.38-5.43,15-3.34c1.47-0.78,2.83-1.39,4.12-1.85c11.13-4,15.99,3.36,17.49,12.96
		c0.32,2.01,0.31,3.97,0.02,5.82c-0.35,2.3-1.16,4.45-2.32,6.39"/>
	<path class="st24" d="M215.03,160.01c-2.47,1.89-5.14,5.11-5,10.16"/>
	<path class="st21" d="M213.32,196.72c-1.15,0.34-2.34,0.54-3.57,0.63"/>
	<path class="st21" d="M224.5,182.39c0.12-1.66,0.07-3.29-0.21-4.79v-0.01c-1.05-5.84-5.26-9.88-14.27-7.42
		c-10.46-5.59-15.44-0.9-17.36,6.52c-0.15,0.61-0.3,1.25-0.42,1.88"/>
	<path class="st24" d="M229.57,168.77c-1.46,3.37-2.36,8.23,0.7,13.37"/>
	<path class="st21" d="M217.11,201.96c-0.66-1.77-1.16-3.54-1.44-5.23c-1.22-7.08,1.2-13.09,11.18-14.33
		c1.06-0.14,2.19-0.22,3.43-0.24c1.65-1.63,3.26-2.84,4.8-3.69c5.33-2.93,9.92-1.45,13.35,2.16c1.98,2.09,3.58,4.9,4.73,8
		c1.25,3.35,1.81,5.59,1.16,8.74"/>
	<path class="st22" d="M256.34,183.42c5.51,2,8.67,4.32,8.67,6.79c0,7.52-29.11,13.61-65.01,13.61s-65.01-6.09-65.01-13.61
		c0-1.64,1.39-3.22,3.94-4.68"/>
</g>
</svg>
