<?xml version="1.0" encoding="utf-8"?>
<!-- Generator: Adobe Illustrator 23.0.5, SVG Export Plug-In . SVG Version: 6.00 Build 0)  -->
<svg version="1.1" xmlns="http://www.w3.org/2000/svg" xmlns:xlink="http://www.w3.org/1999/xlink" x="0px" y="0px"
	 viewBox="0 0 400 400" style="enable-background:new 0 0 400 400;" xml:space="preserve">
<style type="text/css">
	.st0{display:none;}
	.st1{display:inline;fill:#FFFFFF;stroke:#000000;stroke-width:7;stroke-miterlimit:10;}
	.st2{display:inline;fill:none;stroke:#0D553F;stroke-width:3;stroke-linecap:round;stroke-linejoin:round;stroke-miterlimit:10;}
	.st3{display:inline;fill:none;stroke:#BC8D16;stroke-width:3;stroke-linecap:round;stroke-linejoin:round;stroke-miterlimit:10;}
	.st4{display:inline;fill:none;stroke:#97D2B5;stroke-width:3;stroke-linecap:round;stroke-linejoin:round;stroke-miterlimit:10;}
	.st5{display:inline;fill:none;stroke:#7F58A5;stroke-width:3;stroke-linecap:round;stroke-linejoin:round;stroke-miterlimit:10;}
	.st6{display:inline;fill:none;stroke:#AE132A;stroke-width:3;stroke-linecap:round;stroke-linejoin:round;stroke-miterlimit:10;}
	.st7{display:inline;fill:none;stroke:#F36C52;stroke-width:3;stroke-linecap:round;stroke-linejoin:round;stroke-miterlimit:10;}
	.st8{display:inline;fill:#0D553F;}
	.st9{display:inline;fill:#BC8D16;}
	.st10{display:inline;fill:#97D2B5;}
	.st11{display:inline;fill:#7F58A5;}
	.st12{display:inline;fill:#AE132A;}
	.st13{display:inline;fill:#F36C52;}
	.st14{display:inline;}
	.st15{fill:none;stroke:#0D553F;stroke-width:3;stroke-linecap:round;stroke-linejoin:round;stroke-dasharray:0.7446,5.7812;}
	.st16{fill:none;stroke:#BC8D16;stroke-width:3;stroke-linecap:round;stroke-linejoin:round;stroke-dasharray:0.7446,5.7812;}
	.st17{fill:none;stroke:#97D2B5;stroke-width:3;stroke-linecap:round;stroke-linejoin:round;stroke-dasharray:0.7446,5.7812;}
	.st18{fill:none;stroke:#7F58A5;stroke-width:3;stroke-linecap:round;stroke-linejoin:round;stroke-dasharray:0.7446,5.7812;}
	.st19{fill:none;stroke:#AE132A;stroke-width:3;stroke-linecap:round;stroke-linejoin:round;stroke-dasharray:0.7446,5.7812;}
	.st20{fill:none;stroke:#F36C52;stroke-width:3;stroke-linecap:round;stroke-linejoin:round;stroke-dasharray:0.7446,5.7812;}
	.st21{fill:none;stroke:#AE132A;stroke-width:3;stroke-linecap:round;stroke-linejoin:round;stroke-miterlimit:10;}
	.st22{fill:none;stroke:#BC8D16;stroke-width:3;stroke-linecap:round;stroke-linejoin:round;stroke-miterlimit:10;}
	.st23{fill:#7F58A5;}
	.st24{fill:none;stroke:#0D553F;stroke-width:3;stroke-linecap:round;stroke-linejoin:round;stroke-miterlimit:10;}
	.st25{fill:none;stroke:#7F58A5;stroke-width:3;stroke-linecap:round;stroke-linejoin:round;stroke-miterlimit:10;}
	.st26{fill:#BC8D16;}
</style>
<g id="Circles" class="st0">
	<circle class="st1" cx="200" cy="200" r="110"/>
</g>
<g id="Icons">
	<line class="st22" x1="142.56" y1="263.16" x2="257.44" y2="263.16"/>
	<path class="st24" d="M208.58,258.38c0,0-5.46-16.39-3.63-39.9c0,0,6.74-0.85,11.19-3.94"/>
	<path class="st24" d="M213.17,212.15c-2.88,1.29-6.39,2.49-9.15,2.27c0,0,1.65-9.84,4.61-17.32"/>
	<path class="st24" d="M188.94,198.29c1.21,7.33,6.1,11.37,8.35,13.89c2.69-2.64,4.9-8.44,6.1-12.15"/>
	<path class="st24" d="M185.23,195.17c0.15,1.47,1.37,10.9,4.92,15.27c0,0-7.08-1.75-11.17-5.62"/>
	<path class="st24" d="M186.67,258.38c4.6-18.46,3.08-42.82,3.08-42.82c-6.64-1.78-11.5-6.24-13.54-9.03h0"/>
	<path class="st24" d="M240.99,195.07c0.56,1.66,0.85,3.44,0.85,5.29c0,9.25-7.51,16.75-16.77,16.75c-9.26,0-16.77-7.5-16.77-16.75
		c0-1.11,0.11-2.2,0.32-3.25c-2.9,2.38-6.61,3.82-10.65,3.82c-5.08,0-9.64-2.26-12.72-5.83c-1.66,7.51-8.36,13.12-16.37,13.12
		c-9.26,0-16.77-7.5-16.77-16.75c0-6.23,3.4-11.67,8.45-14.55c-1.75-2.28-2.79-5.13-2.79-8.22c0-7.13,5.52-12.97,12.53-13.49
		c-1.24-2.16-1.95-4.67-1.95-7.35c0-8.17,6.63-14.8,14.81-14.8c5.26,0,9.87,2.73,12.5,6.86c2.3-7.56,9.33-13.06,17.65-13.06
		c10.19,0,18.45,8.26,18.45,18.44c0,1.32-0.14,2.62-0.41,3.87c0.25-0.02,0.49-0.02,0.74-0.02c7.47,0,13.54,6.05,13.54,13.52
		c0,4.23-1.94,8-4.98,10.48c4.26,1.86,7.23,6.11,7.23,11.05C247.89,188.99,245.07,193.14,240.99,195.07z"/>
	<path class="st24" d="M224.83,160.12c-0.53,0.61-1.05,1.57-0.75,2.85"/>
	<path class="st24" d="M183.65,141.98c0.51,0.65,0.99,1.67,0.61,2.96"/>
	<path class="st24" d="M170.1,189.95c-0.75,0.15-1.69,0.58-2.21,1.72"/>
	<path class="st24" d="M174.95,166.72c0.89,0.16,2.02,0.63,2.66,1.96"/>
	<path class="st24" d="M225.12,190.74c0.09,0.76-0.03,1.79-0.95,2.63"/>
	<path class="st21" d="M220,166.24c0.11,2.33,2.08,3.93,4.41,3.82c2.34-0.11,4.15-1.87,4.05-4.21c-0.11-2.33-1.41-4.38-4.37-2.89
		C220.79,161.99,219.89,163.91,220,166.24z"/>
	<path class="st24" d="M213.81,138.58c-0.6,0.28-1.3,0.83-1.45,1.91"/>
	<path class="st21" d="M208.15,141.53c-0.62,1.83,0.44,3.76,2.3,4.52s3.83,0.06,4.45-1.76c0.62-1.83,0.22-3.87-2.55-3.78
		C210.06,138.56,208.78,139.71,208.15,141.53z"/>
	<path class="st21" d="M188.28,148.52c-0.24,2.39-2.35,3.92-4.74,3.68c-2.39-0.24-4.16-2.15-3.92-4.54
		c0.24-2.39,1.69-4.42,4.64-2.72C187.7,144.11,188.51,146.14,188.28,148.52z"/>
	<path class="st21" d="M162.92,191.78c-1.27,1.82-0.7,4.16,1.12,5.42c1.82,1.26,4.21,0.98,5.48-0.84s1.46-4.12-1.63-4.69
		C165.97,189.03,164.19,189.96,162.92,191.78z"/>
	<path class="st21" d="M183.47,168.65c1.55,2.11,0.96,4.88-1.16,6.43c-2.11,1.55-4.94,1.29-6.49-0.82
		c-1.55-2.11-1.86-4.81,1.78-5.59C179.79,165.5,181.92,166.54,183.47,168.65z"/>
	<path class="st24" d="M208.01,171.23c-0.39,0.82-1.15,1.77-2.6,2.03"/>
	<path class="st21" d="M203.85,178.91c-2.45,0.92-4.96-0.4-5.89-2.84c-0.92-2.45,0.09-5.1,2.54-6.02c2.45-0.92,5.14-0.49,4.91,3.21
		C207.89,176.21,206.3,177.99,203.85,178.91z"/>
	<path class="st21" d="M225.6,198.12c-1.34,1.76-3.74,1.95-5.5,0.61c-1.77-1.34-2.23-3.69-0.89-5.46c1.34-1.76,3.46-2.66,4.97,0.1
		C227.28,194.37,226.94,196.36,225.6,198.12z"/>
</g>
</svg>
