<?xml version="1.0" encoding="utf-8"?>
<!-- Generator: Adobe Illustrator 23.0.5, SVG Export Plug-In . SVG Version: 6.00 Build 0)  -->
<svg version="1.1" xmlns="http://www.w3.org/2000/svg" xmlns:xlink="http://www.w3.org/1999/xlink" x="0px" y="0px"
	 viewBox="0 0 400 400" style="enable-background:new 0 0 400 400;" xml:space="preserve">
<style type="text/css">
	.st0{display:none;}
	.st1{display:inline;fill:#FFFFFF;stroke:#000000;stroke-width:7;stroke-miterlimit:10;}
	
		.st2{display:inline;fill:none;stroke:#0D553F;stroke-width:4.804;stroke-linecap:round;stroke-linejoin:round;stroke-miterlimit:10;}
	
		.st3{display:inline;fill:none;stroke:#BC8D16;stroke-width:4.804;stroke-linecap:round;stroke-linejoin:round;stroke-miterlimit:10;}
	
		.st4{display:inline;fill:none;stroke:#97D2B5;stroke-width:4.804;stroke-linecap:round;stroke-linejoin:round;stroke-miterlimit:10;}
	
		.st5{display:inline;fill:none;stroke:#7F58A5;stroke-width:4.804;stroke-linecap:round;stroke-linejoin:round;stroke-miterlimit:10;}
	
		.st6{display:inline;fill:none;stroke:#AE132A;stroke-width:4.804;stroke-linecap:round;stroke-linejoin:round;stroke-miterlimit:10;}
	
		.st7{display:inline;fill:none;stroke:#F36C52;stroke-width:4.804;stroke-linecap:round;stroke-linejoin:round;stroke-miterlimit:10;}
	.st8{display:inline;fill:#0D553F;}
	.st9{display:inline;fill:#BC8D16;}
	.st10{display:inline;fill:#97D2B5;}
	.st11{display:inline;fill:#7F58A5;}
	.st12{display:inline;fill:#AE132A;}
	.st13{display:inline;fill:#F36C52;}
	.st14{display:inline;}
	.st15{fill:none;stroke:#0D553F;stroke-width:4.804;stroke-linecap:round;stroke-linejoin:round;stroke-dasharray:0.7446,5.7812;}
	.st16{fill:none;stroke:#BC8D16;stroke-width:4.804;stroke-linecap:round;stroke-linejoin:round;stroke-dasharray:0.7446,5.7812;}
	.st17{fill:none;stroke:#97D2B5;stroke-width:4.804;stroke-linecap:round;stroke-linejoin:round;stroke-dasharray:0.7446,5.7812;}
	.st18{fill:none;stroke:#7F58A5;stroke-width:4.804;stroke-linecap:round;stroke-linejoin:round;stroke-dasharray:0.7446,5.7812;}
	.st19{fill:none;stroke:#AE132A;stroke-width:4.804;stroke-linecap:round;stroke-linejoin:round;stroke-dasharray:0.7446,5.7812;}
	.st20{fill:none;stroke:#F36C52;stroke-width:4.804;stroke-linecap:round;stroke-linejoin:round;stroke-dasharray:0.7446,5.7812;}
	.st21{fill:none;stroke:#0D553F;stroke-width:4.804;stroke-linecap:round;stroke-linejoin:round;stroke-miterlimit:10;}
	.st22{fill:none;stroke:#7F58A5;stroke-width:4.804;stroke-linecap:round;stroke-linejoin:round;stroke-miterlimit:10;}
	.st23{fill:none;stroke:#BC8D16;stroke-width:4.804;stroke-linecap:round;stroke-linejoin:round;stroke-miterlimit:10;}
	.st24{fill:none;stroke:#97D2B5;stroke-width:4.804;stroke-linecap:round;stroke-linejoin:round;stroke-miterlimit:10;}
	.st25{fill:none;stroke:#AE132A;stroke-width:4.804;stroke-linecap:round;stroke-linejoin:round;stroke-miterlimit:10;}
	.st26{fill:#AE132A;}
	.st27{fill:none;stroke:#000000;stroke-width:4.6002;stroke-linecap:round;stroke-linejoin:round;stroke-miterlimit:10;}
</style>
<g id="Circles" class="st0">
	<circle class="st1" cx="200" cy="200" r="110"/>
</g>
<g id="Icons">
	<circle class="st25" cx="211.05" cy="204.5" r="21.92"/>
	<line class="st25" x1="226.55" y1="220" x2="237.23" y2="230.69"/>
	<polygon class="st25" points="262.32,251.46 258.01,255.77 235.54,232.38 238.93,228.99 	"/>
	<polygon class="st26" points="262.32,251.46 258.01,255.77 235.54,232.38 238.93,228.99 	"/>
	<line class="st21" x1="228.56" y1="233.82" x2="228.56" y2="250.43"/>
	<polyline class="st21" points="228.56,250.43 149.68,250.43 149.68,227.33 149.68,218.31 149.68,209.27 149.68,200.24 
		149.68,191.22 149.68,182.18 149.68,173.16 149.68,164.15 149.68,155.11 149.68,146.23 157.34,146.23 165.15,146.23 172.94,146.23 
		180.73,146.23 188.53,146.23 196.32,146.23 204.11,146.23 211.91,146.23 219.71,146.23 228.56,146.23 228.56,179.41 	"/>
	<line class="st22" x1="217.09" y1="166.52" x2="181.67" y2="166.52"/>
	<line class="st22" x1="217.09" y1="176.21" x2="181.67" y2="176.21"/>
	<line class="st22" x1="188.04" y1="185.9" x2="161.15" y2="185.9"/>
	<line class="st22" x1="181.85" y1="205.28" x2="161.15" y2="205.28"/>
	<line class="st22" x1="183.63" y1="214.97" x2="161.15" y2="214.97"/>
	<line class="st22" x1="189.56" y1="224.66" x2="161.15" y2="224.66"/>
	<line class="st22" x1="183.22" y1="195.59" x2="160.96" y2="195.59"/>
	<path class="st22" d="M171.44,178.23h-8.43c-1.03,0-1.86-0.83-1.86-1.86v-8.43c0-1.03,0.83-1.86,1.86-1.86h8.43
		c1.03,0,1.86,0.83,1.86,1.86v8.43C173.3,177.4,172.47,178.23,171.44,178.23z"/>
</g>
</svg>
