<?xml version="1.0" encoding="utf-8"?>
<!-- Generator: Adobe Illustrator 23.0.5, SVG Export Plug-In . SVG Version: 6.00 Build 0)  -->
<svg version="1.1" xmlns="http://www.w3.org/2000/svg" xmlns:xlink="http://www.w3.org/1999/xlink" x="0px" y="0px"
	 viewBox="0 0 400 400" style="enable-background:new 0 0 400 400;" xml:space="preserve">
<style type="text/css">
	.st0{display:none;}
	.st1{display:inline;fill:#FFFFFF;stroke:#000000;stroke-width:7;stroke-miterlimit:10;}
	
		.st2{display:inline;fill:none;stroke:#0D553F;stroke-width:4.804;stroke-linecap:round;stroke-linejoin:round;stroke-miterlimit:10;}
	
		.st3{display:inline;fill:none;stroke:#BC8D16;stroke-width:4.804;stroke-linecap:round;stroke-linejoin:round;stroke-miterlimit:10;}
	
		.st4{display:inline;fill:none;stroke:#97D2B5;stroke-width:4.804;stroke-linecap:round;stroke-linejoin:round;stroke-miterlimit:10;}
	
		.st5{display:inline;fill:none;stroke:#7F58A5;stroke-width:4.804;stroke-linecap:round;stroke-linejoin:round;stroke-miterlimit:10;}
	
		.st6{display:inline;fill:none;stroke:#AE132A;stroke-width:4.804;stroke-linecap:round;stroke-linejoin:round;stroke-miterlimit:10;}
	
		.st7{display:inline;fill:none;stroke:#F36C52;stroke-width:4.804;stroke-linecap:round;stroke-linejoin:round;stroke-miterlimit:10;}
	.st8{display:inline;fill:#0D553F;}
	.st9{display:inline;fill:#BC8D16;}
	.st10{display:inline;fill:#97D2B5;}
	.st11{display:inline;fill:#7F58A5;}
	.st12{display:inline;fill:#AE132A;}
	.st13{display:inline;fill:#F36C52;}
	.st14{display:inline;}
	.st15{fill:none;stroke:#0D553F;stroke-width:4.804;stroke-linecap:round;stroke-linejoin:round;stroke-dasharray:0.7446,5.7812;}
	.st16{fill:none;stroke:#BC8D16;stroke-width:4.804;stroke-linecap:round;stroke-linejoin:round;stroke-dasharray:0.7446,5.7812;}
	.st17{fill:none;stroke:#97D2B5;stroke-width:4.804;stroke-linecap:round;stroke-linejoin:round;stroke-dasharray:0.7446,5.7812;}
	.st18{fill:none;stroke:#7F58A5;stroke-width:4.804;stroke-linecap:round;stroke-linejoin:round;stroke-dasharray:0.7446,5.7812;}
	.st19{fill:none;stroke:#AE132A;stroke-width:4.804;stroke-linecap:round;stroke-linejoin:round;stroke-dasharray:0.7446,5.7812;}
	.st20{fill:none;stroke:#F36C52;stroke-width:4.804;stroke-linecap:round;stroke-linejoin:round;stroke-dasharray:0.7446,5.7812;}
	.st21{fill:none;stroke:#0D553F;stroke-width:4.804;stroke-linecap:round;stroke-linejoin:round;stroke-miterlimit:10;}
	.st22{fill:none;stroke:#7F58A5;stroke-width:4.804;stroke-linecap:round;stroke-linejoin:round;stroke-miterlimit:10;}
	.st23{fill:none;stroke:#BC8D16;stroke-width:4.804;stroke-linecap:round;stroke-linejoin:round;stroke-miterlimit:10;}
	.st24{fill:none;stroke:#97D2B5;stroke-width:4.804;stroke-linecap:round;stroke-linejoin:round;stroke-miterlimit:10;}
	.st25{fill:none;stroke:#AE132A;stroke-width:4.804;stroke-linecap:round;stroke-linejoin:round;stroke-miterlimit:10;}
	.st26{fill:#AE132A;}
	.st27{fill:none;stroke:#000000;stroke-width:4.6002;stroke-linecap:round;stroke-linejoin:round;stroke-miterlimit:10;}
</style>
<g id="Circles" class="st0">
	<circle class="st1" cx="200" cy="200" r="110"/>
</g>
<g id="Icons">
	<path class="st21" d="M206.54,170.28c2.19,0.87,4.24,2.19,6.01,3.96c2.28,2.28,3.82,5.04,4.59,7.95c0.41,1.51,0.61,3.06,0.61,4.61
		h-35.52c-0.01-4.55,1.73-9.09,5.2-12.56c1.76-1.76,3.81-3.08,5.99-3.95"/>
	<circle class="st21" cx="200" cy="162.43" r="9.88"/>
	<g>
		<path class="st24" d="M259.81,200.61c2.19,0.87,4.24,2.19,6.01,3.96c2.28,2.28,3.82,5.04,4.59,7.95c0.41,1.51,0.61,3.06,0.61,4.61
			h-35.52c-0.01-4.55,1.73-9.09,5.2-12.56c1.76-1.76,3.81-3.08,5.99-3.95"/>
		<circle class="st24" cx="253.27" cy="192.76" r="9.88"/>
	</g>
	<g>
		<path class="st21" d="M206.54,230.93c2.19,0.87,4.24,2.19,6.01,3.96c2.28,2.28,3.82,5.04,4.59,7.95c0.41,1.51,0.61,3.06,0.61,4.61
			h-35.52c-0.01-4.55,1.73-9.09,5.2-12.56c1.76-1.76,3.81-3.08,5.99-3.95"/>
		<circle class="st21" cx="200" cy="223.09" r="9.88"/>
	</g>
	<g>
		<path class="st24" d="M153.27,200.61c2.19,0.87,4.24,2.19,6.01,3.96c2.28,2.28,3.82,5.04,4.59,7.95c0.41,1.51,0.61,3.06,0.61,4.61
			h-35.52c-0.01-4.55,1.73-9.09,5.2-12.56c1.76-1.76,3.81-3.08,5.99-3.95"/>
		<circle class="st24" cx="146.73" cy="192.76" r="9.88"/>
	</g>
	<g>
		<path class="st23" d="M157.75,178.69c5.89-3.16,13.14-5.64,21.27-7.19"/>
		<path class="st23" d="M242.25,178.69c-5.89-3.16-13.14-5.64-21.27-7.19"/>
	</g>
	<g>
		<path class="st23" d="M157.75,225.2c5.89,3.16,13.14,5.64,21.27,7.19"/>
		<path class="st23" d="M242.25,225.2c-5.89,3.16-13.14,5.64-21.27,7.19"/>
	</g>
</g>
</svg>
