<?xml version="1.0" encoding="utf-8"?>
<!-- Generator: Adobe Illustrator 23.0.5, SVG Export Plug-In . SVG Version: 6.00 Build 0)  -->
<svg version="1.1" xmlns="http://www.w3.org/2000/svg" xmlns:xlink="http://www.w3.org/1999/xlink" x="0px" y="0px"
	 viewBox="0 0 400 400" style="enable-background:new 0 0 400 400;" xml:space="preserve">
<style type="text/css">
	.st0{display:none;}
	.st1{display:inline;fill:#FFFFFF;stroke:#000000;stroke-width:7;stroke-miterlimit:10;}
	
		.st2{display:inline;fill:none;stroke:#0D553F;stroke-width:4.804;stroke-linecap:round;stroke-linejoin:round;stroke-miterlimit:10;}
	
		.st3{display:inline;fill:none;stroke:#BC8D16;stroke-width:4.804;stroke-linecap:round;stroke-linejoin:round;stroke-miterlimit:10;}
	
		.st4{display:inline;fill:none;stroke:#97D2B5;stroke-width:4.804;stroke-linecap:round;stroke-linejoin:round;stroke-miterlimit:10;}
	
		.st5{display:inline;fill:none;stroke:#7F58A5;stroke-width:4.804;stroke-linecap:round;stroke-linejoin:round;stroke-miterlimit:10;}
	
		.st6{display:inline;fill:none;stroke:#AE132A;stroke-width:4.804;stroke-linecap:round;stroke-linejoin:round;stroke-miterlimit:10;}
	
		.st7{display:inline;fill:none;stroke:#F36C52;stroke-width:4.804;stroke-linecap:round;stroke-linejoin:round;stroke-miterlimit:10;}
	.st8{display:inline;fill:#0D553F;}
	.st9{display:inline;fill:#BC8D16;}
	.st10{display:inline;fill:#97D2B5;}
	.st11{display:inline;fill:#7F58A5;}
	.st12{display:inline;fill:#AE132A;}
	.st13{display:inline;fill:#F36C52;}
	.st14{display:inline;}
	.st15{fill:none;stroke:#0D553F;stroke-width:4.804;stroke-linecap:round;stroke-linejoin:round;stroke-dasharray:0.7446,5.7812;}
	.st16{fill:none;stroke:#BC8D16;stroke-width:4.804;stroke-linecap:round;stroke-linejoin:round;stroke-dasharray:0.7446,5.7812;}
	.st17{fill:none;stroke:#97D2B5;stroke-width:4.804;stroke-linecap:round;stroke-linejoin:round;stroke-dasharray:0.7446,5.7812;}
	.st18{fill:none;stroke:#7F58A5;stroke-width:4.804;stroke-linecap:round;stroke-linejoin:round;stroke-dasharray:0.7446,5.7812;}
	.st19{fill:none;stroke:#AE132A;stroke-width:4.804;stroke-linecap:round;stroke-linejoin:round;stroke-dasharray:0.7446,5.7812;}
	.st20{fill:none;stroke:#F36C52;stroke-width:4.804;stroke-linecap:round;stroke-linejoin:round;stroke-dasharray:0.7446,5.7812;}
	.st21{fill:none;stroke:#0D553F;stroke-width:4.804;stroke-linecap:round;stroke-linejoin:round;stroke-miterlimit:10;}
	.st22{fill:none;stroke:#7F58A5;stroke-width:4.804;stroke-linecap:round;stroke-linejoin:round;stroke-miterlimit:10;}
	.st23{fill:none;stroke:#BC8D16;stroke-width:4.804;stroke-linecap:round;stroke-linejoin:round;stroke-miterlimit:10;}
	.st24{fill:none;stroke:#97D2B5;stroke-width:4.804;stroke-linecap:round;stroke-linejoin:round;stroke-miterlimit:10;}
	.st25{fill:none;stroke:#AE132A;stroke-width:4.804;stroke-linecap:round;stroke-linejoin:round;stroke-miterlimit:10;}
	.st26{fill:#AE132A;}
	.st27{fill:none;stroke:#000000;stroke-width:4.6002;stroke-linecap:round;stroke-linejoin:round;stroke-miterlimit:10;}
</style>
<g id="Circles" class="st0">
	<circle class="st1" cx="200" cy="200" r="110"/>
</g>
<g id="Icons">
	<line class="st27" x1="218.86" y1="171.88" x2="218.85" y2="171.88"/>
	<polyline class="st21" points="199.75,149.85 218.59,149.85 218.87,191.79 	"/>
	<polyline class="st21" points="170.73,149.85 151.62,149.85 151.62,218.74 151.62,226 151.62,239.12 180.55,239.12 	"/>
	<line class="st23" x1="203.02" y1="188.25" x2="167.46" y2="188.25"/>
	<line class="st23" x1="180.23" y1="202.24" x2="167.46" y2="202.24"/>
	<line class="st23" x1="203.02" y1="174.26" x2="167.46" y2="174.26"/>
	<path class="st22" d="M189.59,231.54v10.8c0,7.56,5.09,8.73,12.83,11.13c4.62,1.45,10.18,2.28,16.17,2.28
		c5.99,0,11.55-0.84,16.17-2.28c7.73-2.4,12.83-3.56,12.83-11.13v-10.8"/>
	<polygon class="st22" points="270.38,222.37 247.6,231.54 234.77,236.7 218.6,243.21 189.6,231.54 166.81,222.37 218.6,201.53 	"/>
	<ellipse class="st22" cx="218.6" cy="222.37" rx="5.41" ry="2.51"/>
	<polyline class="st22" points="218.6,222.37 234.77,236.7 234.77,264.92 	"/>
	<path class="st23" d="M193.23,145.06h6.52V155h-29.02v-9.94h6.53c0-4.42,3.57-7.99,7.99-7.99
		C189.65,137.08,193.23,140.65,193.23,145.06z"/>
</g>
</svg>
