<?xml version="1.0" encoding="utf-8"?>
<!-- Generator: Adobe Illustrator 23.0.5, SVG Export Plug-In . SVG Version: 6.00 Build 0)  -->
<svg version="1.1" xmlns="http://www.w3.org/2000/svg" xmlns:xlink="http://www.w3.org/1999/xlink" x="0px" y="0px"
	 viewBox="0 0 400 400" style="enable-background:new 0 0 400 400;" xml:space="preserve">
<style type="text/css">
	.st0{display:none;}
	.st1{display:inline;fill:#FFFFFF;stroke:#000000;stroke-width:7;stroke-miterlimit:10;}
	.st2{display:inline;fill:none;stroke:#0D553F;stroke-width:3;stroke-linecap:round;stroke-linejoin:round;stroke-miterlimit:10;}
	.st3{display:inline;fill:none;stroke:#BC8D16;stroke-width:3;stroke-linecap:round;stroke-linejoin:round;stroke-miterlimit:10;}
	.st4{display:inline;fill:none;stroke:#97D2B5;stroke-width:3;stroke-linecap:round;stroke-linejoin:round;stroke-miterlimit:10;}
	.st5{display:inline;fill:none;stroke:#7F58A5;stroke-width:3;stroke-linecap:round;stroke-linejoin:round;stroke-miterlimit:10;}
	.st6{display:inline;fill:none;stroke:#AE132A;stroke-width:3;stroke-linecap:round;stroke-linejoin:round;stroke-miterlimit:10;}
	.st7{display:inline;fill:none;stroke:#F36C52;stroke-width:3;stroke-linecap:round;stroke-linejoin:round;stroke-miterlimit:10;}
	.st8{display:inline;fill:#0D553F;}
	.st9{display:inline;fill:#BC8D16;}
	.st10{display:inline;fill:#97D2B5;}
	.st11{display:inline;fill:#7F58A5;}
	.st12{display:inline;fill:#AE132A;}
	.st13{display:inline;fill:#F36C52;}
	.st14{display:inline;}
	.st15{fill:none;stroke:#0D553F;stroke-width:3;stroke-linecap:round;stroke-linejoin:round;stroke-dasharray:0.7514,5.8338;}
	.st16{fill:none;stroke:#BC8D16;stroke-width:3;stroke-linecap:round;stroke-linejoin:round;stroke-dasharray:0.7514,5.8338;}
	.st17{fill:none;stroke:#97D2B5;stroke-width:3;stroke-linecap:round;stroke-linejoin:round;stroke-dasharray:0.7514,5.8338;}
	.st18{fill:none;stroke:#7F58A5;stroke-width:3;stroke-linecap:round;stroke-linejoin:round;stroke-dasharray:0.7514,5.8338;}
	.st19{fill:none;stroke:#AE132A;stroke-width:3;stroke-linecap:round;stroke-linejoin:round;stroke-dasharray:0.7514,5.8338;}
	.st20{fill:none;stroke:#F36C52;stroke-width:3;stroke-linecap:round;stroke-linejoin:round;stroke-dasharray:0.7514,5.8338;}
	.st21{fill:none;stroke:#7F58A5;stroke-width:3;stroke-linecap:round;stroke-linejoin:round;stroke-miterlimit:10;}
	.st22{fill:none;stroke:#BC8D16;stroke-width:3;stroke-linecap:round;stroke-linejoin:round;stroke-miterlimit:10;}
	.st23{fill:none;stroke:#0D553F;stroke-width:3;stroke-linecap:round;stroke-linejoin:round;stroke-miterlimit:10;}
	.st24{fill:#0D553F;}
	.st25{fill:none;stroke:#AE132A;stroke-width:3;stroke-linecap:round;stroke-linejoin:round;stroke-miterlimit:10;}
	.st26{fill:none;stroke:#97D2B5;stroke-width:3;stroke-linecap:round;stroke-linejoin:round;stroke-miterlimit:10;}
	.st27{fill:#BC8D16;}
	.st28{fill:#AE132A;}
	.st29{fill:#97D2B5;}
</style>
<g id="Circles" class="st0">
	<circle class="st1" cx="200" cy="200" r="110"/>
</g>
<g id="Icons">
	<line class="st21" x1="215.11" y1="191.01" x2="214.57" y2="191.48"/>
	<path class="st21" d="M218.72,176.08l12.73-10.98c0.8-0.7,1.82-1.08,2.87-1.08c1.26,0,2.45,0.54,3.27,1.48
		c0.77,0.88,1.15,2,1.07,3.16c-0.08,1.15-0.6,2.21-1.47,2.98l-13.02,10.76"/>
	<path class="st21" d="M214.56,234.8v11.53c0,2.4-1.95,4.35-4.35,4.35c-2.4,0-4.35-1.95-4.35-4.35V234.8"/>
	<path class="st21" d="M202.08,157.22c5.61,0,10.18,4.57,10.18,10.18s-4.57,10.18-10.18,10.18"/>
	<polyline class="st25" points="202.08,217.02 204.89,234.8 216.49,234.8 214.51,212.51 	"/>
	<path class="st25" d="M201.94,185.47c1.74-0.04,16.08-9.97,16.08-10.2c0,0,7.27,8.42,7.27,8.42l-10.73,7.71l1.93,21.1h-14.41"/>
	<line class="st21" x1="189.05" y1="191.01" x2="189.59" y2="191.48"/>
	<path class="st21" d="M184.87,176.74l-12.16-11.64c-0.8-0.7-1.82-1.08-2.87-1.08c-1.26,0-2.45,0.54-3.27,1.48
		c-0.77,0.88-1.15,2-1.07,3.16c0.08,1.15,0.6,2.21,1.47,2.98l12.69,11.14"/>
	<path class="st21" d="M189.6,234.8v11.53c0,2.4,1.95,4.35,4.35,4.35c2.4,0,4.35-1.95,4.35-4.35V234.8"/>
	<path class="st21" d="M202.08,157.22c-5.61,0-10.18,4.57-10.18,10.18s4.57,10.18,10.18,10.18"/>
	<polyline class="st25" points="202.08,217.02 199.26,234.8 187.66,234.8 189.65,212.51 	"/>
	<path class="st25" d="M202.21,185.47c-1.74-0.04-16.08-9.97-16.08-10.2c0,0-7.27,8.42-7.27,8.42l10.73,7.71l-1.93,21.1h14.41"/>
	<line class="st22" x1="227.95" y1="217.14" x2="235.8" y2="221.75"/>
	<line class="st22" x1="235.41" y1="201.05" x2="242.1" y2="202.16"/>
	<line class="st22" x1="236.71" y1="185.66" x2="241.68" y2="184.59"/>
	<line class="st22" x1="218.02" y1="161.82" x2="219.43" y2="157.22"/>
	<line class="st22" x1="178.01" y1="213.22" x2="172.58" y2="217.14"/>
	<line class="st22" x1="168.73" y1="199.5" x2="159.71" y2="200.22"/>
	<line class="st22" x1="167.3" y1="183.21" x2="157.9" y2="182.34"/>
	<line class="st22" x1="184.87" y1="155.89" x2="182.89" y2="150.72"/>
</g>
</svg>
