<?xml version="1.0" encoding="utf-8"?>
<!-- Generator: Adobe Illustrator 23.0.5, SVG Export Plug-In . SVG Version: 6.00 Build 0)  -->
<svg version="1.1" xmlns="http://www.w3.org/2000/svg" xmlns:xlink="http://www.w3.org/1999/xlink" x="0px" y="0px"
	 viewBox="0 0 400 400" style="enable-background:new 0 0 400 400;" xml:space="preserve">
<style type="text/css">
	.st0{display:none;}
	.st1{display:inline;fill:#FFFFFF;stroke:#000000;stroke-width:7;stroke-miterlimit:10;}
	.st2{display:inline;fill:none;stroke:#0D553F;stroke-width:3;stroke-linecap:round;stroke-linejoin:round;stroke-miterlimit:10;}
	.st3{display:inline;fill:none;stroke:#BC8D16;stroke-width:3;stroke-linecap:round;stroke-linejoin:round;stroke-miterlimit:10;}
	.st4{display:inline;fill:none;stroke:#97D2B5;stroke-width:3;stroke-linecap:round;stroke-linejoin:round;stroke-miterlimit:10;}
	.st5{display:inline;fill:none;stroke:#7F58A5;stroke-width:3;stroke-linecap:round;stroke-linejoin:round;stroke-miterlimit:10;}
	.st6{display:inline;fill:none;stroke:#AE132A;stroke-width:3;stroke-linecap:round;stroke-linejoin:round;stroke-miterlimit:10;}
	.st7{display:inline;fill:none;stroke:#F36C52;stroke-width:3;stroke-linecap:round;stroke-linejoin:round;stroke-miterlimit:10;}
	.st8{display:inline;fill:#0D553F;}
	.st9{display:inline;fill:#BC8D16;}
	.st10{display:inline;fill:#97D2B5;}
	.st11{display:inline;fill:#7F58A5;}
	.st12{display:inline;fill:#AE132A;}
	.st13{display:inline;fill:#F36C52;}
	.st14{display:inline;}
	.st15{fill:none;stroke:#0D553F;stroke-width:3;stroke-linecap:round;stroke-linejoin:round;stroke-dasharray:0.7514,5.8338;}
	.st16{fill:none;stroke:#BC8D16;stroke-width:3;stroke-linecap:round;stroke-linejoin:round;stroke-dasharray:0.7514,5.8338;}
	.st17{fill:none;stroke:#97D2B5;stroke-width:3;stroke-linecap:round;stroke-linejoin:round;stroke-dasharray:0.7514,5.8338;}
	.st18{fill:none;stroke:#7F58A5;stroke-width:3;stroke-linecap:round;stroke-linejoin:round;stroke-dasharray:0.7514,5.8338;}
	.st19{fill:none;stroke:#AE132A;stroke-width:3;stroke-linecap:round;stroke-linejoin:round;stroke-dasharray:0.7514,5.8338;}
	.st20{fill:none;stroke:#F36C52;stroke-width:3;stroke-linecap:round;stroke-linejoin:round;stroke-dasharray:0.7514,5.8338;}
	.st21{fill:none;stroke:#7F58A5;stroke-width:3;stroke-linecap:round;stroke-linejoin:round;stroke-miterlimit:10;}
	.st22{fill:none;stroke:#BC8D16;stroke-width:3;stroke-linecap:round;stroke-linejoin:round;stroke-miterlimit:10;}
	.st23{fill:none;stroke:#0D553F;stroke-width:3;stroke-linecap:round;stroke-linejoin:round;stroke-miterlimit:10;}
	.st24{fill:#0D553F;}
	.st25{fill:none;stroke:#AE132A;stroke-width:3;stroke-linecap:round;stroke-linejoin:round;stroke-miterlimit:10;}
	.st26{fill:none;stroke:#97D2B5;stroke-width:3;stroke-linecap:round;stroke-linejoin:round;stroke-miterlimit:10;}
	.st27{fill:#BC8D16;}
	.st28{fill:#AE132A;}
	.st29{fill:#97D2B5;}
</style>
<g id="Circles" class="st0">
	<circle class="st1" cx="200" cy="200" r="110"/>
</g>
<g id="Icons">
	<path class="st21" d="M190.51,146.06c0.98,0.93,1.47,1.07,2.8,0.86c1.33-0.21,2.6-0.73,3.93-0.94c1.54-0.24,3.14-0.07,4.58,0.51"/>
	<path class="st21" d="M212.34,164.15c-0.73-0.23-1.54,0.28-1.84,0.98c-0.31,0.7-0.2,1.51,0.04,2.24c0.25,0.72,0.63,1.39,0.89,2.11
		c0.19,0.53,0.32,1.12,0.13,1.65c-0.11,0.31-0.32,0.57-0.54,0.81c-1.4,1.51-3.48,2.32-4.63,4.03c-0.43,0.64-0.71,1.38-0.8,2.14
		c-0.18,1.46,0.29,3.02-0.33,4.35c-0.59,1.26-2.03,2-2.47,3.32"/>
	<path class="st21" d="M173.01,172.15c0.99,0.45,2.2,0.42,3.16-0.09s1.68-1.47,1.88-2.54c0.2-1.09-0.07-2.33,0.58-3.23
		c0.76-1.04,2.31-1,3.42-1.65c1.03-0.6,1.63-1.79,1.73-2.98c0.1-1.19-0.03-1.86-0.53-2.95"/>
	<path class="st23" d="M187.4,208.65c1.05-1.74,2.13-3.91,3.58-5c3.94-2.99,8.99,0.03,13.36-1.53c2.51-0.89,4.85-3.3,7.42-2.82
		c1.5,0.28,2.83,1.55,3.81,3.11c0.98,1.57,1.66,4.39,2.33,6.24"/>
	<path class="st21" d="M174.69,209.06h-1.44l5.51,44.65c0.36,2.91,2.83,5.1,5.77,5.1h31.95c2.94,0,5.41-2.19,5.77-5.1l5.51-44.65
		h-1.19"/>
	<g>
		<path class="st21" d="M214.43,240.81h-0.54c-1.23,0-2.23-1-2.23-2.23v-4.87c0-1.23,1-2.23,2.23-2.23h0.54c1.23,0,2.23,1,2.23,2.23
			v4.87C216.66,239.81,215.66,240.81,214.43,240.81z"/>
		<path class="st21" d="M200.78,240.81h-0.54c-1.23,0-2.23-1-2.23-2.23v-4.87c0-1.23,1-2.23,2.23-2.23h0.54c1.23,0,2.23,1,2.23,2.23
			v4.87C203.01,239.81,202.02,240.81,200.78,240.81z"/>
		<path class="st21" d="M187.14,240.81h-0.54c-1.23,0-2.23-1-2.23-2.23v-4.87c0-1.23,1-2.23,2.23-2.23h0.54c1.23,0,2.23,1,2.23,2.23
			v4.87C189.37,239.81,188.37,240.81,187.14,240.81z"/>
		<path class="st21" d="M207.61,253.36h-0.54c-1.23,0-2.23-1-2.23-2.23v-4.87c0-1.23,1-2.23,2.23-2.23h0.54c1.23,0,2.23,1,2.23,2.23
			v4.87C209.84,252.36,208.84,253.36,207.61,253.36z"/>
		<path class="st21" d="M193.96,253.36h-0.54c-1.23,0-2.23-1-2.23-2.23v-4.87c0-1.23,1-2.23,2.23-2.23h0.54c1.23,0,2.23,1,2.23,2.23
			v4.87C196.19,252.36,195.19,253.36,193.96,253.36z"/>
	</g>
	<path class="st23" d="M197.96,209.06c0.19,2.16-0.02,4.69-0.38,6.14c-0.56,2.32-1.48,4.52-1.67,6.93
		c-0.08,1.11-0.04,2.32-0.54,3.22c-0.9,1.6-2.89,1.07-4.06-0.22s-1.98-3.12-3.31-4.08c-2.45-1.76-5.95-0.12-8-2.58
		c-1.07-1.29-1.39-3.4-1.16-5.27c0.13-1.03,0.36-2.63,0.66-4.14H197.96z"/>
	<path class="st23" d="M221.82,209.06c0.25,5.92-0.9,12.14-3.45,17.55c-0.23-1.5-0.49-3.06-1.43-4.32
		c-0.95-1.28-2.79-2.18-4.43-1.68c-1.06,0.31-2.21,1.16-3.15,0.6c-0.86-0.51-0.45-1.82-0.35-2.62c0.3-2.37,0.34-4.96-0.33-7.26
		c-0.06-0.2-0.56-2.26-0.65-2.26C208.02,209.06,221.82,209.06,221.82,209.06z"/>
	<path class="st25" d="M187.58,147.83c0.91,1.21,1.84,2.44,2.38,3.85c0.54,1.41,0.67,3.06-0.02,4.41c-0.87,1.71-2.89,2.6-4.81,2.61
		c-1.92,0-3.76-0.73-5.48-1.58C179.65,157.12,186.25,153.31,187.58,147.83c4-2.46,7.31-6.66,9.79-10.65
		c2.55,2.44,4.81,4.23,7.88,5.98c-2.76,2.17-4.33,4.11-5.9,7.12c8.71,4.12,14.36,17.61,21.71,23.84c-0.47,0.41-3.74,0.97-5.74,3.67
		s-4.49,5.1-7.51,6.54c-1.39,0.66-8.34,1.88-9.52,4.99c-0.38,1-9.22-15.21-15.68-19.24"/>
	<path class="st25" d="M179.65,157.12c-1.06,2.04-3.57,3.5-4.57,5.57c-0.44,0.92-0.64,1.93-0.84,2.92
		c-0.67,3.39-1.34,6.78-2.01,10.17c0.03-0.13,2.52,1.19,2.77,1.33c1.16,0.68,6.31,4.05,6.7,4.02c0.41-0.03,0.4-1.09,0.42-1.35
		c0.11-1.38-0.16-8,0.28-10.96"/>
	<line class="st21" x1="202.52" y1="209.06" x2="203.68" y2="209.06"/>
</g>
</svg>
