<?xml version="1.0" encoding="utf-8"?>
<!-- Generator: Adobe Illustrator 23.0.5, SVG Export Plug-In . SVG Version: 6.00 Build 0)  -->
<svg version="1.1" xmlns="http://www.w3.org/2000/svg" xmlns:xlink="http://www.w3.org/1999/xlink" x="0px" y="0px"
	 viewBox="0 0 400 400" style="enable-background:new 0 0 400 400;" xml:space="preserve">
<style type="text/css">
	.st0{display:none;}
	.st1{display:inline;fill:#FFFFFF;stroke:#000000;stroke-width:7;stroke-miterlimit:10;}
	.st2{display:inline;fill:none;stroke:#0D553F;stroke-width:3;stroke-linecap:round;stroke-linejoin:round;stroke-miterlimit:10;}
	.st3{display:inline;fill:none;stroke:#BC8D16;stroke-width:3;stroke-linecap:round;stroke-linejoin:round;stroke-miterlimit:10;}
	.st4{display:inline;fill:none;stroke:#97D2B5;stroke-width:3;stroke-linecap:round;stroke-linejoin:round;stroke-miterlimit:10;}
	.st5{display:inline;fill:none;stroke:#7F58A5;stroke-width:3;stroke-linecap:round;stroke-linejoin:round;stroke-miterlimit:10;}
	.st6{display:inline;fill:none;stroke:#AE132A;stroke-width:3;stroke-linecap:round;stroke-linejoin:round;stroke-miterlimit:10;}
	.st7{display:inline;fill:none;stroke:#F36C52;stroke-width:3;stroke-linecap:round;stroke-linejoin:round;stroke-miterlimit:10;}
	.st8{display:inline;fill:#0D553F;}
	.st9{display:inline;fill:#BC8D16;}
	.st10{display:inline;fill:#97D2B5;}
	.st11{display:inline;fill:#7F58A5;}
	.st12{display:inline;fill:#AE132A;}
	.st13{display:inline;fill:#F36C52;}
	.st14{display:inline;}
	.st15{fill:none;stroke:#0D553F;stroke-width:3;stroke-linecap:round;stroke-linejoin:round;stroke-dasharray:0.7514,5.8338;}
	.st16{fill:none;stroke:#BC8D16;stroke-width:3;stroke-linecap:round;stroke-linejoin:round;stroke-dasharray:0.7514,5.8338;}
	.st17{fill:none;stroke:#97D2B5;stroke-width:3;stroke-linecap:round;stroke-linejoin:round;stroke-dasharray:0.7514,5.8338;}
	.st18{fill:none;stroke:#7F58A5;stroke-width:3;stroke-linecap:round;stroke-linejoin:round;stroke-dasharray:0.7514,5.8338;}
	.st19{fill:none;stroke:#AE132A;stroke-width:3;stroke-linecap:round;stroke-linejoin:round;stroke-dasharray:0.7514,5.8338;}
	.st20{fill:none;stroke:#F36C52;stroke-width:3;stroke-linecap:round;stroke-linejoin:round;stroke-dasharray:0.7514,5.8338;}
	.st21{fill:none;stroke:#7F58A5;stroke-width:3;stroke-linecap:round;stroke-linejoin:round;stroke-miterlimit:10;}
	.st22{fill:none;stroke:#BC8D16;stroke-width:3;stroke-linecap:round;stroke-linejoin:round;stroke-miterlimit:10;}
	.st23{fill:none;stroke:#0D553F;stroke-width:3;stroke-linecap:round;stroke-linejoin:round;stroke-miterlimit:10;}
	.st24{fill:#0D553F;}
	.st25{fill:none;stroke:#AE132A;stroke-width:3;stroke-linecap:round;stroke-linejoin:round;stroke-miterlimit:10;}
	.st26{fill:none;stroke:#97D2B5;stroke-width:3;stroke-linecap:round;stroke-linejoin:round;stroke-miterlimit:10;}
	.st27{fill:#BC8D16;}
	.st28{fill:#AE132A;}
	.st29{fill:#97D2B5;}
</style>
<g id="Circles" class="st0">
	<circle class="st1" cx="200" cy="200" r="110"/>
</g>
<g id="Icons">
	<line class="st23" x1="136.38" y1="238.06" x2="263.62" y2="238.06"/>
	<polyline class="st22" points="244.25,209.28 244.25,231.95 155.75,231.95 155.75,209.28 	"/>
	<path class="st21" d="M177.05,198.27h61.83c2.96,0,5.37,2.4,5.37,5.37v1.9l0,0c-7.38,0-7.38,5.61-14.75,5.61s-7.38-5.61-14.75-5.61
		c-7.37,0-7.37,5.61-14.75,5.61c-7.37,0-7.37-5.61-14.75-5.61c-7.37,0-7.37,5.61-14.74,5.61c-7.37,0-7.37-5.61-14.75-5.61l0,0v-1.9
		c0-2.96,2.4-5.37,5.37-5.37"/>
	<path class="st21" d="M181.3,191.64c-2.63,1.6-6.1,0.37-9.08,1.17c-1.92,0.52-3.49,1.84-5.15,2.93c-1.66,1.09-2.39,1.66-5.58,2.53
		h9.34"/>
	<path class="st21" d="M182.1,192.95c-0.41,0.72-1.22,1.11-2,1.39s-1.61,0.52-2.22,1.08c-0.63,0.58-0.95,1.47-0.83,2.31"/>
	<path class="st21" d="M194.08,173.43c1.79-0.77,4.11,0.06,5,1.79c0.55,1.06,0.6,2.36,1.32,3.31c0.66,0.87,1.77,1.27,2.84,1.48
		c1.07,0.21,2.18,0.26,3.22,0.62c1.03,0.36,2.01,1.13,2.24,2.2"/>
	<line class="st23" x1="184.37" y1="185.9" x2="188.79" y2="191.74"/>
	<polygon class="st23" points="183.44,193.81 215.07,181.54 215.87,170.97 218.85,168.72 228.79,167.76 223.57,160.85 
		218.34,153.94 214.71,163.24 211.73,165.49 201.34,163.39 180.92,190.48 	"/>
	<line class="st23" x1="214.71" y1="163.24" x2="218.85" y2="168.72"/>
	<line class="st23" x1="215.87" y1="170.97" x2="211.73" y2="165.49"/>
	<line class="st23" x1="207.54" y1="169.6" x2="213.51" y2="167.84"/>
	<line class="st23" x1="217.51" y1="165.99" x2="219.57" y2="163.05"/>
</g>
</svg>
