<?xml version="1.0" encoding="utf-8"?>
<!-- Generator: Adobe Illustrator 23.0.5, SVG Export Plug-In . SVG Version: 6.00 Build 0)  -->
<svg version="1.1" xmlns="http://www.w3.org/2000/svg" xmlns:xlink="http://www.w3.org/1999/xlink" x="0px" y="0px"
	 viewBox="0 0 400 400" style="enable-background:new 0 0 400 400;" xml:space="preserve">
<style type="text/css">
	.st0{display:none;}
	.st1{display:inline;fill:#FFFFFF;stroke:#000000;stroke-width:7;stroke-miterlimit:10;}
	.st2{display:inline;fill:none;stroke:#0D553F;stroke-width:3;stroke-linecap:round;stroke-linejoin:round;stroke-miterlimit:10;}
	.st3{display:inline;fill:none;stroke:#BC8D16;stroke-width:3;stroke-linecap:round;stroke-linejoin:round;stroke-miterlimit:10;}
	.st4{display:inline;fill:none;stroke:#97D2B5;stroke-width:3;stroke-linecap:round;stroke-linejoin:round;stroke-miterlimit:10;}
	.st5{display:inline;fill:none;stroke:#7F58A5;stroke-width:3;stroke-linecap:round;stroke-linejoin:round;stroke-miterlimit:10;}
	.st6{display:inline;fill:none;stroke:#AE132A;stroke-width:3;stroke-linecap:round;stroke-linejoin:round;stroke-miterlimit:10;}
	.st7{display:inline;fill:none;stroke:#F36C52;stroke-width:3;stroke-linecap:round;stroke-linejoin:round;stroke-miterlimit:10;}
	.st8{display:inline;fill:#0D553F;}
	.st9{display:inline;fill:#BC8D16;}
	.st10{display:inline;fill:#97D2B5;}
	.st11{display:inline;fill:#7F58A5;}
	.st12{display:inline;fill:#AE132A;}
	.st13{display:inline;fill:#F36C52;}
	.st14{display:inline;}
	.st15{fill:none;stroke:#0D553F;stroke-width:3;stroke-linecap:round;stroke-linejoin:round;stroke-dasharray:0.7514,5.8338;}
	.st16{fill:none;stroke:#BC8D16;stroke-width:3;stroke-linecap:round;stroke-linejoin:round;stroke-dasharray:0.7514,5.8338;}
	.st17{fill:none;stroke:#97D2B5;stroke-width:3;stroke-linecap:round;stroke-linejoin:round;stroke-dasharray:0.7514,5.8338;}
	.st18{fill:none;stroke:#7F58A5;stroke-width:3;stroke-linecap:round;stroke-linejoin:round;stroke-dasharray:0.7514,5.8338;}
	.st19{fill:none;stroke:#AE132A;stroke-width:3;stroke-linecap:round;stroke-linejoin:round;stroke-dasharray:0.7514,5.8338;}
	.st20{fill:none;stroke:#F36C52;stroke-width:3;stroke-linecap:round;stroke-linejoin:round;stroke-dasharray:0.7514,5.8338;}
	.st21{fill:none;stroke:#7F58A5;stroke-width:3;stroke-linecap:round;stroke-linejoin:round;stroke-miterlimit:10;}
	.st22{fill:none;stroke:#BC8D16;stroke-width:3;stroke-linecap:round;stroke-linejoin:round;stroke-miterlimit:10;}
	.st23{fill:none;stroke:#0D553F;stroke-width:3;stroke-linecap:round;stroke-linejoin:round;stroke-miterlimit:10;}
	.st24{fill:#0D553F;}
	.st25{fill:none;stroke:#AE132A;stroke-width:3;stroke-linecap:round;stroke-linejoin:round;stroke-miterlimit:10;}
	.st26{fill:none;stroke:#97D2B5;stroke-width:3;stroke-linecap:round;stroke-linejoin:round;stroke-miterlimit:10;}
	.st27{fill:#BC8D16;}
	.st28{fill:#AE132A;}
	.st29{fill:#97D2B5;}
</style>
<g id="Circles" class="st0">
	<circle class="st1" cx="200" cy="200" r="110"/>
</g>
<g id="Icons">
	<g>
		<path class="st22" d="M183.64,208.5l-2.9-2.18c-0.22-0.16-0.47-0.26-0.74-0.3l-9.73-1.31c-2.79-0.38-5.45-1.45-7.72-3.12
			l-22.89-16.86c-0.72-0.53-0.87-1.54-0.34-2.26l5.45-7.4l5.45-7.4c0.53-0.72,1.54-0.87,2.26-0.34l22.89,16.86
			c2.27,1.67,4.08,3.89,5.27,6.45l4.13,8.9c0.11,0.25,0.29,0.46,0.51,0.62l2.9,2.18L183.64,208.5z"/>
		<path class="st22" d="M177.3,192.69l-0.31-0.62c-0.94-1.89-2.32-3.54-4.03-4.79l-9.76-7.19"/>
		<line class="st22" x1="172.48" y1="182.06" x2="159.66" y2="199.46"/>
		<line class="st22" x1="158.76" y1="171.96" x2="145.95" y2="189.36"/>
	</g>
	<g>
		<path class="st23" d="M204.76,155.12c4.42-1.81,8.64-4.03,12.7-6.54c4.22-2.61,4.71-2.4,8.08-6.15c0.27-0.31,0.93-1.38,1.34-1.4
			c0.26-0.01,0.46,0.2,0.62,0.4c7.83,9.77,14.74,20.29,20.6,31.35c-6.26,2.05-7.44,1.14-12.88,4.39s-8.74,5.05-14.3,8.1"/>
		<path class="st23" d="M201.45,174.38c-0.87-1.04-7.84-14.18-5.53-16.44c0.97-0.95,3.03-1.95,4.3-2.45c1.03-0.4,1.72-1.55,2.77-1.2
			c0.84,0.28,1.45,0.99,2,1.67c6.92,8.54,12.19,18.4,15.44,28.89c0.29,0.94,1.07,2.17,0.4,2.9c-0.86,0.93-2.15,0.9-3.13,1.84
			c-0.8,0.77-1.21,2.3-2.27,2.62c-1.22,0.36-2.47,0.9-3.33,0.05"/>
		<path class="st23" d="M196.16,158.54c8.14,9.21,14.53,21.09,17.65,32.98"/>
		<path class="st23" d="M216.75,166.8c0,0,3.94,7.17,5.12,11.3"/>
	</g>
	<path class="st22" d="M188.63,255.4c0,0.86,6.87,1.56,15.34,1.56c8.47,0,15.35-0.7,15.35-1.56"/>
	<line class="st22" x1="219.32" y1="255.4" x2="220.9" y2="250.58"/>
	<line class="st22" x1="188.63" y1="255.4" x2="187.04" y2="250.58"/>
	<line class="st25" x1="239.9" y1="203" x2="233.72" y2="213.79"/>
	<path class="st25" d="M224.03,226.48c0.33-0.59,0.66-1.2,1.01-1.81c3.77-6.59,7.66-11.46,8.67-10.88
		c1.01,0.58-1.14,6.22-4.82,12.69"/>
	<path class="st25" d="M219.73,226.48c0.49-1.25,1.11-2.53,1.84-3.81c3.77-6.59,9.21-10.57,12.15-8.88
		c2.59,1.49,2.37,6.9-0.33,12.69"/>
	<path class="st23" d="M188.63,207.88c0,0,6.53,5.72,9.57,14.36"/>
	<path class="st23" d="M184.31,211.67c0,0,1.54,5.49,1.6,10.37"/>
	<path class="st23" d="M204.53,171.29c-2.78,2.06-4.71,5.12-5.92,8.37c-1.21,3.24-1.77,6.69-2.23,10.13
		c-0.82,6.08-1.37,12.24-1.19,18.36"/>
	<path class="st23" d="M213.12,190.83c-1.58,1.64-2.08,4.06-2.01,6.34c0.07,2.28,0.64,4.5,0.89,6.77c0.32,2.81,0.15,5.65,0.48,8.46
		c0.34,2.92,1.21,5.73,2.25,8.48"/>
	<g>
		<g>
			<path class="st24" d="M203.06,184.71c1.93,0,1.93-3,0-3C201.13,181.71,201.13,184.71,203.06,184.71L203.06,184.71z"/>
		</g>
	</g>
	<g>
		<g>
			<path class="st24" d="M199.53,193.71c1.93,0,1.93-3,0-3C197.6,190.71,197.59,193.71,199.53,193.71L199.53,193.71z"/>
		</g>
	</g>
	<g>
		<g>
			<path class="st24" d="M204.98,199.88c1.93,0,1.93-3,0-3C203.05,196.88,203.05,199.88,204.98,199.88L204.98,199.88z"/>
		</g>
	</g>
	<g>
		<g>
			<path class="st24" d="M201.45,205.64c1.93,0,1.93-3,0-3C199.52,202.64,199.51,205.64,201.45,205.64L201.45,205.64z"/>
		</g>
	</g>
	<g>
		<g>
			<path class="st24" d="M204.18,214.33c1.93,0,1.93-3,0-3C202.25,211.33,202.24,214.33,204.18,214.33L204.18,214.33z"/>
		</g>
	</g>
	<g>
		<g>
			<path class="st24" d="M200.94,219.39c1.93,0,1.93-3,0-3C199.01,216.39,199.01,219.39,200.94,219.39L200.94,219.39z"/>
		</g>
	</g>
	<g>
		<g>
			<path class="st24" d="M199.12,212.21c1.93,0,1.93-3,0-3C197.19,209.21,197.19,212.21,199.12,212.21L199.12,212.21z"/>
		</g>
	</g>
	<g>
		<g>
			<path class="st24" d="M208.42,224.24c1.93,0,1.93-3,0-3C206.49,221.24,206.49,224.24,208.42,224.24L208.42,224.24z"/>
		</g>
	</g>
	<g>
		<g>
			<path class="st24" d="M207.61,219.39c1.93,0,1.93-3,0-3C205.68,216.39,205.68,219.39,207.61,219.39L207.61,219.39z"/>
		</g>
	</g>
	<g>
		<g>
			<path class="st24" d="M208.22,207.36c1.93,0,1.93-3,0-3C206.29,204.36,206.29,207.36,208.22,207.36L208.22,207.36z"/>
		</g>
	</g>
	<g>
		<g>
			<path class="st24" d="M208.32,190.27c1.93,0,1.93-3,0-3C206.39,187.27,206.39,190.27,208.32,190.27L208.32,190.27z"/>
		</g>
	</g>
	<path class="st25" d="M239.9,203L239.9,203c-1.02-0.58-1.37-1.88-0.79-2.9l7.83-13.69c0.58-1.02,1.88-1.37,2.9-0.79l0,0
		c1.02,0.58,1.37,1.88,0.79,2.9l-7.83,13.69C242.21,203.23,240.92,203.58,239.9,203z"/>
	<path class="st23" d="M169.92,237.06c4.52-2.65,10.21-2.21,15.29-0.9s9.99,3.4,15.22,3.85c6.15,0.53,12.23-1.27,18.26-2.59
		c6.03-1.32,12.52-2.15,18.23,0.18"/>
	<path class="st22" d="M166.37,226.48c0,10.53,8.4,19.66,20.67,24.1c5.09,1.85,10.84,2.89,16.93,2.89c6.09,0,11.85-1.04,16.94-2.89
		c12.27-4.44,20.67-13.58,20.67-24.1H166.37z"/>
	<line class="st22" x1="233.97" y1="231.71" x2="209.59" y2="231.71"/>
	<path class="st22" d="M174.29,233.91c0,0,3.7,6.26,13.54,11.38"/>
</g>
</svg>
