<?xml version="1.0" encoding="utf-8"?>
<!-- Generator: Adobe Illustrator 23.0.5, SVG Export Plug-In . SVG Version: 6.00 Build 0)  -->
<svg version="1.1" xmlns="http://www.w3.org/2000/svg" xmlns:xlink="http://www.w3.org/1999/xlink" x="0px" y="0px"
	 viewBox="0 0 400 400" style="enable-background:new 0 0 400 400;" xml:space="preserve">
<style type="text/css">
	.st0{display:none;}
	.st1{display:inline;fill:#FFFFFF;stroke:#000000;stroke-width:7;stroke-miterlimit:10;}
	.st2{display:inline;fill:none;stroke:#0D553F;stroke-width:3;stroke-linecap:round;stroke-linejoin:round;stroke-miterlimit:10;}
	.st3{display:inline;fill:none;stroke:#BC8D16;stroke-width:3;stroke-linecap:round;stroke-linejoin:round;stroke-miterlimit:10;}
	.st4{display:inline;fill:none;stroke:#97D2B5;stroke-width:3;stroke-linecap:round;stroke-linejoin:round;stroke-miterlimit:10;}
	.st5{display:inline;fill:none;stroke:#7F58A5;stroke-width:3;stroke-linecap:round;stroke-linejoin:round;stroke-miterlimit:10;}
	.st6{display:inline;fill:none;stroke:#AE132A;stroke-width:3;stroke-linecap:round;stroke-linejoin:round;stroke-miterlimit:10;}
	.st7{display:inline;fill:none;stroke:#F36C52;stroke-width:3;stroke-linecap:round;stroke-linejoin:round;stroke-miterlimit:10;}
	.st8{display:inline;fill:#0D553F;}
	.st9{display:inline;fill:#BC8D16;}
	.st10{display:inline;fill:#97D2B5;}
	.st11{display:inline;fill:#7F58A5;}
	.st12{display:inline;fill:#AE132A;}
	.st13{display:inline;fill:#F36C52;}
	.st14{display:inline;}
	.st15{fill:none;stroke:#0D553F;stroke-width:3;stroke-linecap:round;stroke-linejoin:round;stroke-dasharray:0.7514,5.8338;}
	.st16{fill:none;stroke:#BC8D16;stroke-width:3;stroke-linecap:round;stroke-linejoin:round;stroke-dasharray:0.7514,5.8338;}
	.st17{fill:none;stroke:#97D2B5;stroke-width:3;stroke-linecap:round;stroke-linejoin:round;stroke-dasharray:0.7514,5.8338;}
	.st18{fill:none;stroke:#7F58A5;stroke-width:3;stroke-linecap:round;stroke-linejoin:round;stroke-dasharray:0.7514,5.8338;}
	.st19{fill:none;stroke:#AE132A;stroke-width:3;stroke-linecap:round;stroke-linejoin:round;stroke-dasharray:0.7514,5.8338;}
	.st20{fill:none;stroke:#F36C52;stroke-width:3;stroke-linecap:round;stroke-linejoin:round;stroke-dasharray:0.7514,5.8338;}
	.st21{fill:none;stroke:#7F58A5;stroke-width:3;stroke-linecap:round;stroke-linejoin:round;stroke-miterlimit:10;}
	.st22{fill:none;stroke:#BC8D16;stroke-width:3;stroke-linecap:round;stroke-linejoin:round;stroke-miterlimit:10;}
	.st23{fill:none;stroke:#0D553F;stroke-width:3;stroke-linecap:round;stroke-linejoin:round;stroke-miterlimit:10;}
	.st24{fill:#0D553F;}
	.st25{fill:none;stroke:#AE132A;stroke-width:3;stroke-linecap:round;stroke-linejoin:round;stroke-miterlimit:10;}
	.st26{fill:none;stroke:#97D2B5;stroke-width:3;stroke-linecap:round;stroke-linejoin:round;stroke-miterlimit:10;}
	.st27{fill:#BC8D16;}
	.st28{fill:#AE132A;}
	.st29{fill:#97D2B5;}
</style>
<g id="Circles" class="st0">
	<circle class="st1" cx="200" cy="200" r="110"/>
</g>
<g id="Icons">
	<g>
		<path class="st21" d="M184.71,221.92c-2.94-1.31-6.3-1.12-9.5-0.8c-2.53,0.25-5.1,0.46-7.63,0.26"/>
		<path class="st21" d="M185.82,216.25c0.89-0.89,2.27-1.04,3.53-1.03c1.26,0.01,2.58,0.1,3.71-0.47c1.97-1,2.7-3.73,4.77-4.5
			c0.99-0.37,2.14-0.22,3.04-0.76c1.32-0.79,1.54-2.7,2.77-3.63c1.22-0.93,2.96-0.56,4.43-0.11"/>
		<path class="st21" d="M213.88,213.69c0,0-3.93-0.43-5.12-0.08"/>
		<path class="st21" d="M180.55,214.49c0,0,2.67-0.61,4.12,0"/>
		<path class="st21" d="M221.05,213.31c1.13,0.09,2.19,0.2,2.81,0.34c3.16,0.7,6.22,1.82,9.38,2.53c2.68,0.59,1.82,0.89,4.56,0.89
			c2.93,0,2.27-0.35,5.2-0.17c2.92,0.18,5.93,0.95,8.13,2.88c0.27,0.24,0.54,0.51,0.66,0.86c0.3,0.9-0.56,1.63-1.31,1.95
			c-1.04,0.44-2.2,0.24-3.29,0.45c-1.23,0.24-2.28,0.99-3.44,1.46c-2.38,0.95-4.74,0.46-7.21,0.41c-1.55-0.03-3.09,0.42-4.62,0.62
			c-3.4,0.46-6.21,2.19-9.58,2.81c-8.52,1.58-17.21-1.52-25.88-1.5c-4.8,0.01-9.55,0.98-14.34,1.2c-2.09,0.1-4.22-0.22-6.23-0.77
			c-2.17-0.59-4.43-0.61-6.65-0.8c-1.26-0.11-2.52-0.28-3.76-0.57c-2.9-0.67-5.59-1.98-8.31-3.16c-1.93-0.84-5.57-0.74-6.8-2.67
			c-1.36-2.13,2.41-3.88,3.97-4.23c2.23-0.49,4.58-0.25,6.84-0.05c2.98,0.26,6.02,0.34,8.95-0.28c0.8-0.16,2.29-0.38,3.92-0.61"/>
		<path class="st22" d="M180.24,197.83c0,0-2.1,6.17-2.62,8.97c0,0-3.67,7.37-5.54,13.81"/>
		<path class="st22" d="M184.8,201.78c0,0-3.68,9.55-4.51,11.21s-2.63,5.44-4.09,7.31"/>
		<path class="st22" d="M215.05,197.83c0,0,2.28,7.74,2.8,10.55c0,0,4.9,6.61,6.92,12.96"/>
		<path class="st22" d="M210.77,202.96c0,0,3.68,9.55,4.51,11.21c0.74,1.48,4.54,5.41,6.55,7.75"/>
		<path class="st22" d="M206.86,169.11c0-4.78-3.87-8.65-8.65-8.65c-4.78,0-8.65,3.87-8.65,8.65c0,4.78,3.87,11.46,8.65,11.46
			C202.99,180.57,206.86,173.89,206.86,169.11z"/>
		<path class="st22" d="M191.46,181.54c0,0,2.57-0.63,2.59-2.61"/>
		<path class="st22" d="M205.37,181.54c0,0-2.23-0.31-2.48-1.8"/>
		<path class="st21" d="M181.46,192.48c0.51,0.65,1.07,1.34,1.79,1.48c1.29,0.25,2.42-1.35,3.73-1.29c1.4,0.07,2.48,2.04,3.87,1.81
			c1.03-0.18,1.7-1.82,1.21-2.97c-0.16-0.36-0.4-0.66-0.58-1.01c-0.49-0.94-0.03-1.72,0.92-2.02c0.77-0.24,1.82-0.81,2.64-0.72"/>
		<path class="st21" d="M214.26,197.27c-0.2-1.15-1.01-2.17-2.11-2.66c-0.83-0.37-1.84-0.47-2.49-1.09
			c-0.72-0.68-0.78-1.79-0.61-2.77c0.06-0.33,0.14-0.67,0.31-0.97c0.2-0.34,0.52-0.61,0.78-0.92c0.31-0.38,0.52-0.84,0.61-1.31
			c0.11-0.61,0.16-1.43,0.8-1.57"/>
		<path class="st25" d="M209.73,197.94l-0.55,4.57c0,0,2.49-1.73,3.18-2.42c0.69-0.69,0.9-1.52,2.15-2.28
			c1.25-0.76,2.01-1.18,2.01-1.18l-3.88-12.25l-7.27-2.84c0,0,1.52,7.2-6.16,7.2s-7.75-7.2-7.75-7.2s-6.3,2.35-8.17,5.74
			c-1.87,3.39-4.43,10.18-4.43,10.18s2.98,0.55,3.32,1.24s1.18,1.45,1.59,1.73s2.7,0.83,2.7,0.83l1.18-2.77"/>
		<path class="st25" d="M209.18,202.51c0,0-0.48,3.53-0.69,3.88c-0.21,0.35,0,5.81,0,5.81v5.28c0,0-3.53,0.19-4.71,0.6
			c-1.18,0.42-2.63-0.21-4.57-0.76c-1.94-0.55-4.43,0.21-5.95,0.28c-1.52,0.07-3.39,0-4.84-0.48c-1.45-0.48-3.74-0.34-3.74-0.34
			l1.46-6.41v-2.59l0.35-6.5"/>
		<path class="st21" d="M232.75,233.43c-1.38,0.43-6.63,2.05-5.63,3.17c0.19,0.21,0.49,0.32,0.79,0.4c1.61,0.44,3.35,0.33,5.04,0.19
			c3.4-0.28,6.93-0.64,10.14,0.32c1.52,0.45,2.91,1.19,4.45,1.59c1.38,0.36,2.84,0.43,4.29,0.44c2.05,0,4.1-0.14,6.12-0.42
			c0.93-0.13,2.02-0.41,2.29-1.16c0.35-0.98-0.94-1.75-1.81-2.47c-0.25-0.2-0.49-0.47-0.41-0.75c0.06-0.21,0.27-0.35,0.48-0.48
			c0.94-0.57,1.99-1.02,3.09-1.33c1.06-0.3,2.44-0.78,2.27-1.69c-0.11-0.61-0.92-0.95-1.65-1.08c-3.14-0.56-6.15,0.81-9.05,1.56
			c-3.6,0.93-6.95,0.15-10.59-0.14c-3.28-0.26-6.48,0.75-9.56,1.77C232.96,233.37,232.87,233.39,232.75,233.43z"/>
		<path class="st21" d="M243.58,211.28c0.01,0.07,0.05,0.11,0.13,0.13c3.38,0.59,6.99,0.31,10.46,0.66
			c3.64,0.36,6.86,2.02,10.42,2.7c1.85,0.35,3.87,0.06,5.3-2.16c0.1-0.16,0.21-0.34,0.24-0.58c0.11-0.72-0.4-1.18-0.79-1.32
			c-6.87-2.42-14.05-3.96-21.3-2.48C246.72,208.5,243.28,209.35,243.58,211.28z"/>
		<path class="st21" d="M229.58,222.17c-3.16-0.39-6.34,0.25-9.48,0.6c-1.56,0.17-3.17,0.22-4.71-0.05"/>
		<path class="st21" d="M184.71,221.92c-2.94-1.31-6.3-1.12-9.5-0.8c-2.53,0.25-5.1,0.46-7.63,0.26"/>
		<path class="st21" d="M146.45,224.89c-0.56-0.05-1.11-0.08-1.66-0.13c-2.27-0.18-4.52-0.55-6.8-0.59c-0.95-0.02-1.92,0-2.81,0.34
			c-0.73,0.28-1.45,0.95-1.32,1.72c0.1,0.6,0.67,1,1.22,1.27c2.33,1.12,5.11,1.01,7.41,2.17c1.5,0.76,2.7,2.01,4.16,2.85
			c1.24,0.71,2.64,1.11,4.03,1.46c4.28,1.1,8.67,1.91,13.09,1.91c1.03,0,2.35-0.28,2.52-1.29c0.15-0.91-0.79-1.61-1.64-1.96
			c-3.59-1.49-7.94-1.17-10.99-3.57c-1.08-0.85-1.91-1.99-3-2.83C149.45,225.29,147.95,225.03,146.45,224.89z"/>
	</g>
</g>
</svg>
