<?xml version="1.0" encoding="utf-8"?>
<!-- Generator: Adobe Illustrator 23.0.5, SVG Export Plug-In . SVG Version: 6.00 Build 0)  -->
<svg version="1.1" xmlns="http://www.w3.org/2000/svg" xmlns:xlink="http://www.w3.org/1999/xlink" x="0px" y="0px"
	 viewBox="0 0 400 400" style="enable-background:new 0 0 400 400;" xml:space="preserve">
<style type="text/css">
	.st0{display:none;}
	.st1{display:inline;fill:#FFFFFF;stroke:#000000;stroke-width:7;stroke-miterlimit:10;}
	.st2{display:inline;fill:none;stroke:#0D553F;stroke-width:3;stroke-linecap:round;stroke-linejoin:round;stroke-miterlimit:10;}
	.st3{display:inline;fill:none;stroke:#BC8D16;stroke-width:3;stroke-linecap:round;stroke-linejoin:round;stroke-miterlimit:10;}
	.st4{display:inline;fill:none;stroke:#97D2B5;stroke-width:3;stroke-linecap:round;stroke-linejoin:round;stroke-miterlimit:10;}
	.st5{display:inline;fill:none;stroke:#7F58A5;stroke-width:3;stroke-linecap:round;stroke-linejoin:round;stroke-miterlimit:10;}
	.st6{display:inline;fill:none;stroke:#AE132A;stroke-width:3;stroke-linecap:round;stroke-linejoin:round;stroke-miterlimit:10;}
	.st7{display:inline;fill:none;stroke:#F36C52;stroke-width:3;stroke-linecap:round;stroke-linejoin:round;stroke-miterlimit:10;}
	.st8{display:inline;fill:#0D553F;}
	.st9{display:inline;fill:#BC8D16;}
	.st10{display:inline;fill:#97D2B5;}
	.st11{display:inline;fill:#7F58A5;}
	.st12{display:inline;fill:#AE132A;}
	.st13{display:inline;fill:#F36C52;}
	.st14{display:inline;}
	.st15{fill:none;stroke:#0D553F;stroke-width:3;stroke-linecap:round;stroke-linejoin:round;stroke-dasharray:0.7514,5.8338;}
	.st16{fill:none;stroke:#BC8D16;stroke-width:3;stroke-linecap:round;stroke-linejoin:round;stroke-dasharray:0.7514,5.8338;}
	.st17{fill:none;stroke:#97D2B5;stroke-width:3;stroke-linecap:round;stroke-linejoin:round;stroke-dasharray:0.7514,5.8338;}
	.st18{fill:none;stroke:#7F58A5;stroke-width:3;stroke-linecap:round;stroke-linejoin:round;stroke-dasharray:0.7514,5.8338;}
	.st19{fill:none;stroke:#AE132A;stroke-width:3;stroke-linecap:round;stroke-linejoin:round;stroke-dasharray:0.7514,5.8338;}
	.st20{fill:none;stroke:#F36C52;stroke-width:3;stroke-linecap:round;stroke-linejoin:round;stroke-dasharray:0.7514,5.8338;}
	.st21{fill:none;stroke:#7F58A5;stroke-width:3;stroke-linecap:round;stroke-linejoin:round;stroke-miterlimit:10;}
	.st22{fill:none;stroke:#BC8D16;stroke-width:3;stroke-linecap:round;stroke-linejoin:round;stroke-miterlimit:10;}
	.st23{fill:none;stroke:#0D553F;stroke-width:3;stroke-linecap:round;stroke-linejoin:round;stroke-miterlimit:10;}
	.st24{fill:#0D553F;}
	.st25{fill:none;stroke:#AE132A;stroke-width:3;stroke-linecap:round;stroke-linejoin:round;stroke-miterlimit:10;}
	.st26{fill:none;stroke:#97D2B5;stroke-width:3;stroke-linecap:round;stroke-linejoin:round;stroke-miterlimit:10;}
	.st27{fill:#BC8D16;}
	.st28{fill:#AE132A;}
	.st29{fill:#97D2B5;}
</style>
<g id="Circles" class="st0">
	<circle class="st1" cx="200" cy="200" r="110"/>
</g>
<g id="Icons">
	<line class="st22" x1="240.71" y1="198.32" x2="227.69" y2="204.62"/>
	<polyline class="st22" points="218.76,208.95 200,218.03 159.29,237.74 	"/>
	<line class="st22" x1="240.71" y1="237.74" x2="159.29" y2="198.32"/>
	<path class="st23" d="M231.72,189.29h19.67c1.29,0,2.34,1.04,2.34,2.34c0,0.65-0.26,1.22-0.68,1.65c-0.43,0.42-1.01,0.68-1.66,0.68
		h-23.7"/>
	<path class="st23" d="M180.44,193.96H148.6c-1.28,0-2.33-1.04-2.33-2.33c0-0.65,0.26-1.23,0.68-1.65c0.43-0.43,1-0.69,1.65-0.69
		h26.84"/>
	<path class="st22" d="M241.14,185.05h-13.88v-8.85c0-2.98,0.74-5.9,2.15-8.52l2.02-3.76c1.19-2.2,4.35-2.2,5.53,0l2.02,3.76
		c1.41,2.62,2.15,5.55,2.15,8.52V185.05z"/>
	<g>
		<circle class="st27" cx="234.2" cy="171.91" r="1.09"/>
	</g>
	<g>
		<circle class="st27" cx="234.2" cy="178.97" r="1.09"/>
	</g>
	<g>
		<circle class="st27" cx="236.69" cy="175.44" r="1.09"/>
	</g>
	<g>
		<circle class="st27" cx="231.72" cy="175.44" r="1.09"/>
	</g>
	<path class="st22" d="M174.91,185.18h-18.6c-1.18,0-2.14-0.96-2.14-2.14v-0.57c0-1.18,0.96-2.14,2.14-2.14h18.6
		c1.18,0,2.14,0.96,2.14,2.14v0.57C177.05,184.22,176.09,185.18,174.91,185.18z"/>
	<path class="st25" d="M174.91,180.31h-18.6c-1.18,0-2.14-0.96-2.14-2.14v-0.57c0-1.18,0.96-2.14,2.14-2.14h18.6
		c1.18,0,2.14,0.96,2.14,2.14v0.57C177.05,179.35,176.09,180.31,174.91,180.31z"/>
	<path class="st23" d="M174.91,175.44h-18.6c-1.18,0-2.14-0.96-2.14-2.14v-0.57c0-1.18,0.96-2.14,2.14-2.14h18.6
		c1.18,0,2.14,0.96,2.14,2.14v0.57C177.05,174.48,176.09,175.44,174.91,175.44z"/>
	<polygon class="st25" points="227.69,189.29 227.69,208.79 217.15,208.79 215.1,199.04 181.85,202.49 179.66,189.29 	"/>
	<path class="st25" d="M227.42,197.02c0,0-6.09-1.78-6.09-7.73"/>
</g>
</svg>
