<?xml version="1.0" encoding="utf-8"?>
<!-- Generator: Adobe Illustrator 23.0.5, SVG Export Plug-In . SVG Version: 6.00 Build 0)  -->
<svg version="1.1" xmlns="http://www.w3.org/2000/svg" xmlns:xlink="http://www.w3.org/1999/xlink" x="0px" y="0px"
	 viewBox="0 0 400 400" style="enable-background:new 0 0 400 400;" xml:space="preserve">
<style type="text/css">
	.st0{display:none;}
	.st1{display:inline;fill:#FFFFFF;stroke:#000000;stroke-width:7;stroke-miterlimit:10;}
	.st2{display:inline;fill:none;stroke:#0D553F;stroke-width:3;stroke-linecap:round;stroke-linejoin:round;stroke-miterlimit:10;}
	.st3{display:inline;fill:none;stroke:#BC8D16;stroke-width:3;stroke-linecap:round;stroke-linejoin:round;stroke-miterlimit:10;}
	.st4{display:inline;fill:none;stroke:#97D2B5;stroke-width:3;stroke-linecap:round;stroke-linejoin:round;stroke-miterlimit:10;}
	.st5{display:inline;fill:none;stroke:#7F58A5;stroke-width:3;stroke-linecap:round;stroke-linejoin:round;stroke-miterlimit:10;}
	.st6{display:inline;fill:none;stroke:#AE132A;stroke-width:3;stroke-linecap:round;stroke-linejoin:round;stroke-miterlimit:10;}
	.st7{display:inline;fill:none;stroke:#F36C52;stroke-width:3;stroke-linecap:round;stroke-linejoin:round;stroke-miterlimit:10;}
	.st8{display:inline;fill:#0D553F;}
	.st9{display:inline;fill:#BC8D16;}
	.st10{display:inline;fill:#97D2B5;}
	.st11{display:inline;fill:#7F58A5;}
	.st12{display:inline;fill:#AE132A;}
	.st13{display:inline;fill:#F36C52;}
	.st14{display:inline;}
	.st15{fill:none;stroke:#0D553F;stroke-width:3;stroke-linecap:round;stroke-linejoin:round;stroke-dasharray:0.7514,5.8338;}
	.st16{fill:none;stroke:#BC8D16;stroke-width:3;stroke-linecap:round;stroke-linejoin:round;stroke-dasharray:0.7514,5.8338;}
	.st17{fill:none;stroke:#97D2B5;stroke-width:3;stroke-linecap:round;stroke-linejoin:round;stroke-dasharray:0.7514,5.8338;}
	.st18{fill:none;stroke:#7F58A5;stroke-width:3;stroke-linecap:round;stroke-linejoin:round;stroke-dasharray:0.7514,5.8338;}
	.st19{fill:none;stroke:#AE132A;stroke-width:3;stroke-linecap:round;stroke-linejoin:round;stroke-dasharray:0.7514,5.8338;}
	.st20{fill:none;stroke:#F36C52;stroke-width:3;stroke-linecap:round;stroke-linejoin:round;stroke-dasharray:0.7514,5.8338;}
	.st21{fill:none;stroke:#7F58A5;stroke-width:3;stroke-linecap:round;stroke-linejoin:round;stroke-miterlimit:10;}
	.st22{fill:none;stroke:#BC8D16;stroke-width:3;stroke-linecap:round;stroke-linejoin:round;stroke-miterlimit:10;}
	.st23{fill:none;stroke:#0D553F;stroke-width:3;stroke-linecap:round;stroke-linejoin:round;stroke-miterlimit:10;}
	.st24{fill:#0D553F;}
	.st25{fill:none;stroke:#AE132A;stroke-width:3;stroke-linecap:round;stroke-linejoin:round;stroke-miterlimit:10;}
	.st26{fill:none;stroke:#97D2B5;stroke-width:3;stroke-linecap:round;stroke-linejoin:round;stroke-miterlimit:10;}
	.st27{fill:#BC8D16;}
	.st28{fill:#AE132A;}
	.st29{fill:#97D2B5;}
</style>
<g id="Circles" class="st0">
	<circle class="st1" cx="200" cy="200" r="110"/>
</g>
<g id="Icons">
	<line class="st21" x1="170.87" y1="195.92" x2="229.13" y2="195.92"/>
	<path class="st25" d="M223.09,254.82h-10.66c-1.35,0-2.44-1.09-2.44-2.44v-4.28c0-1.35,1.09-2.44,2.44-2.44h10.66
		c1.35,0,2.44,1.09,2.44,2.44v4.28C225.52,253.73,224.43,254.82,223.09,254.82z"/>
	<path class="st21" d="M186.13,181.01v5.9c0,2.34-1.89,4.23-4.23,4.23h-11.03"/>
	<circle class="st25" cx="220.3" cy="188.46" r="3.71"/>
	<line class="st22" x1="199.6" y1="185.93" x2="191.85" y2="185.93"/>
	<line class="st22" x1="199.6" y1="190.99" x2="191.85" y2="190.99"/>
	<line class="st22" x1="211.18" y1="185.93" x2="203.43" y2="185.93"/>
	<line class="st22" x1="211.18" y1="190.99" x2="203.43" y2="190.99"/>
	<circle class="st21" cx="200" cy="223.18" r="19.82"/>
	<path class="st25" d="M206.12,226.94c-1.27,2.1-3.58,3.51-6.22,3.51c-4.01,0-7.27-3.26-7.27-7.27c0-4.01,3.26-7.27,7.27-7.27
		c2.64,0,4.95,1.41,6.22,3.51"/>
	<path class="st22" d="M209.27,230.81c-2.21,2.67-5.54,4.37-9.27,4.37c-6.64,0-12.01-5.37-12.01-12.01
		c0-6.64,5.37-12.01,12.01-12.01c3.73,0,7.06,1.7,9.27,4.37"/>
	<path class="st22" d="M209.27,230.81c-1.71-2.07-2.74-4.73-2.74-7.64s1.03-5.56,2.74-7.64"/>
	<g>
		<circle class="st27" cx="200" cy="155.7" r="3.04"/>
		<line class="st22" x1="200" y1="155.7" x2="192.79" y2="148.67"/>
		<line class="st22" x1="200.77" y1="155.7" x2="207.78" y2="155.7"/>
		<polyline class="st25" points="204.01,135.32 203.85,135.32 196.15,135.32 195.99,135.32 		"/>
		<path class="st28" d="M202.92,133.31h-5.84c0-1.61,1.31-2.92,2.92-2.92S202.92,131.7,202.92,133.31z"/>
		<line class="st22" x1="200" y1="172.8" x2="200" y2="169.8"/>
		<line class="st22" x1="200" y1="141.61" x2="200" y2="138.61"/>
		<line class="st22" x1="182.91" y1="155.7" x2="185.9" y2="155.7"/>
		<line class="st22" x1="214.1" y1="155.7" x2="217.09" y2="155.7"/>
		<line class="st22" x1="187.91" y1="167.79" x2="190.03" y2="165.67"/>
		<line class="st22" x1="209.97" y1="145.73" x2="212.09" y2="143.62"/>
		<line class="st22" x1="187.91" y1="143.62" x2="190.03" y2="145.73"/>
		<line class="st22" x1="209.97" y1="165.67" x2="212.09" y2="167.79"/>
		<circle class="st25" cx="200" cy="155.7" r="17.09"/>
	</g>
	<path class="st21" d="M225.72,258.27h-51.43c-1.89,0-3.42-1.53-3.42-3.42v-70.43c0-1.89,1.53-3.42,3.42-3.42h51.43
		c1.89,0,3.42,1.53,3.42,3.42v70.43C229.13,256.74,227.6,258.27,225.72,258.27z"/>
</g>
</svg>
