<?xml version="1.0" encoding="utf-8"?>
<!-- Generator: Adobe Illustrator 23.0.5, SVG Export Plug-In . SVG Version: 6.00 Build 0)  -->
<svg version="1.1" xmlns="http://www.w3.org/2000/svg" xmlns:xlink="http://www.w3.org/1999/xlink" x="0px" y="0px"
	 viewBox="0 0 400 400" style="enable-background:new 0 0 400 400;" xml:space="preserve">
<style type="text/css">
	.st0{display:none;}
	.st1{display:inline;fill:#FFFFFF;stroke:#000000;stroke-width:7;stroke-miterlimit:10;}
	.st2{display:inline;fill:none;stroke:#0D553F;stroke-width:3;stroke-linecap:round;stroke-linejoin:round;stroke-miterlimit:10;}
	.st3{display:inline;fill:none;stroke:#BC8D16;stroke-width:3;stroke-linecap:round;stroke-linejoin:round;stroke-miterlimit:10;}
	.st4{display:inline;fill:none;stroke:#97D2B5;stroke-width:3;stroke-linecap:round;stroke-linejoin:round;stroke-miterlimit:10;}
	.st5{display:inline;fill:none;stroke:#7F58A5;stroke-width:3;stroke-linecap:round;stroke-linejoin:round;stroke-miterlimit:10;}
	.st6{display:inline;fill:none;stroke:#AE132A;stroke-width:3;stroke-linecap:round;stroke-linejoin:round;stroke-miterlimit:10;}
	.st7{display:inline;fill:none;stroke:#F36C52;stroke-width:3;stroke-linecap:round;stroke-linejoin:round;stroke-miterlimit:10;}
	.st8{display:inline;fill:#0D553F;}
	.st9{display:inline;fill:#BC8D16;}
	.st10{display:inline;fill:#97D2B5;}
	.st11{display:inline;fill:#7F58A5;}
	.st12{display:inline;fill:#AE132A;}
	.st13{display:inline;fill:#F36C52;}
	.st14{display:inline;}
	.st15{fill:none;stroke:#0D553F;stroke-width:3;stroke-linecap:round;stroke-linejoin:round;stroke-dasharray:0.7514,5.8338;}
	.st16{fill:none;stroke:#BC8D16;stroke-width:3;stroke-linecap:round;stroke-linejoin:round;stroke-dasharray:0.7514,5.8338;}
	.st17{fill:none;stroke:#97D2B5;stroke-width:3;stroke-linecap:round;stroke-linejoin:round;stroke-dasharray:0.7514,5.8338;}
	.st18{fill:none;stroke:#7F58A5;stroke-width:3;stroke-linecap:round;stroke-linejoin:round;stroke-dasharray:0.7514,5.8338;}
	.st19{fill:none;stroke:#AE132A;stroke-width:3;stroke-linecap:round;stroke-linejoin:round;stroke-dasharray:0.7514,5.8338;}
	.st20{fill:none;stroke:#F36C52;stroke-width:3;stroke-linecap:round;stroke-linejoin:round;stroke-dasharray:0.7514,5.8338;}
	.st21{fill:none;stroke:#7F58A5;stroke-width:3;stroke-linecap:round;stroke-linejoin:round;stroke-miterlimit:10;}
	.st22{fill:none;stroke:#BC8D16;stroke-width:3;stroke-linecap:round;stroke-linejoin:round;stroke-miterlimit:10;}
	.st23{fill:none;stroke:#0D553F;stroke-width:3;stroke-linecap:round;stroke-linejoin:round;stroke-miterlimit:10;}
	.st24{fill:#0D553F;}
	.st25{fill:none;stroke:#AE132A;stroke-width:3;stroke-linecap:round;stroke-linejoin:round;stroke-miterlimit:10;}
	.st26{fill:none;stroke:#97D2B5;stroke-width:3;stroke-linecap:round;stroke-linejoin:round;stroke-miterlimit:10;}
	.st27{fill:#BC8D16;}
	.st28{fill:#AE132A;}
	.st29{fill:#97D2B5;}
</style>
<g id="Circles" class="st0">
	<circle class="st1" cx="200" cy="200" r="110"/>
</g>
<g id="Icons">
	<path class="st26" d="M154.53,181.33c9.84,1.66,19.67,3.33,29.56,4.7c7.39,1.03,14.98,1.96,21.61,5.38
		c11.69,6.04,18.23,18.59,27.55,27.93"/>
	<path class="st26" d="M203.31,204.98c3.94,3.94,6.3,9.39,6.57,14.95"/>
	<g>
		<path class="st22" d="M148.45,180.24c-0.69,0.53,2.94,6.41,8.1,13.12c5.16,6.72,9.9,11.75,10.58,11.22"/>
		<line class="st22" x1="167.13" y1="204.58" x2="171.92" y2="202.9"/>
		<line class="st22" x1="148.45" y1="180.24" x2="151.31" y2="176.04"/>
		<path class="st22" d="M157.84,144.97c-8.35,6.41-10.48,18.64-6.53,31.08c1.63,5.16,4.31,10.35,8.02,15.19
			c3.71,4.83,8.04,8.77,12.6,11.68c10.99,7.03,23.36,8.13,31.71,1.73L157.84,144.97z"/>
	</g>
	<g>
		<rect x="186.54" y="231.84" class="st25" width="61.39" height="17.69"/>
		<rect x="182.82" y="224.06" class="st25" width="68.82" height="7.78"/>
	</g>
	<path class="st22" d="M175.53,178.28c6.11,8.24,12.22,16.48,18.34,24.72"/>
	<path class="st22" d="M156.32,156.17c-2.22,6.39-1.9,13.62,0.88,19.79"/>
	<polyline class="st25" points="241.94,237.71 241.94,244.41 222,244.41 	"/>
	<g>
		<g>
			<path class="st29" d="M219.91,215.97c1.93,0,1.93-3,0-3C217.98,212.97,217.98,215.97,219.91,215.97L219.91,215.97z"/>
		</g>
	</g>
	<g>
		<g>
			<path class="st29" d="M214.94,220.68c1.93,0,1.93-3,0-3C213.01,217.68,213.01,220.68,214.94,220.68L214.94,220.68z"/>
		</g>
	</g>
	<g>
		<g>
			<path class="st29" d="M215.59,208.71c1.93,0,1.93-3,0-3C213.66,205.71,213.65,208.71,215.59,208.71L215.59,208.71z"/>
		</g>
	</g>
	<g>
		<g>
			<path class="st29" d="M206.82,198.97c1.93,0,1.93-3,0-3C204.89,195.97,204.89,198.97,206.82,198.97L206.82,198.97z"/>
		</g>
	</g>
	<g>
		<g>
			<path class="st29" d="M226.06,219.97c1.93,0,1.93-3,0-3C224.13,216.97,224.13,219.97,226.06,219.97L226.06,219.97z"/>
		</g>
	</g>
	<g>
		<g>
			<path class="st29" d="M213.35,213.96c1.93,0,1.93-3,0-3C211.42,210.96,211.42,213.96,213.35,213.96L213.35,213.96z"/>
		</g>
	</g>
	<g>
		<g>
			<path class="st29" d="M209.87,205.24c1.93,0,1.93-3,0-3C207.94,202.24,207.94,205.24,209.87,205.24L209.87,205.24z"/>
		</g>
	</g>
	<g>
		<g>
			<path class="st29" d="M163.06,188.74c1.93,0,1.93-3,0-3C161.13,185.74,161.13,188.74,163.06,188.74L163.06,188.74z"/>
		</g>
	</g>
	<g>
		<g>
			<path class="st29" d="M170.47,197.97c1.93,0,1.93-3,0-3C168.54,194.97,168.54,197.97,170.47,197.97L170.47,197.97z"/>
		</g>
	</g>
	<g>
		<g>
			<path class="st29" d="M168.12,191.74c1.93,0,1.93-3,0-3C166.19,188.74,166.18,191.74,168.12,191.74L168.12,191.74z"/>
		</g>
	</g>
	<g>
		<g>
			<path class="st29" d="M179.88,193.93c1.93,0,1.93-3,0-3C177.95,190.93,177.95,193.93,179.88,193.93L179.88,193.93z"/>
		</g>
	</g>
	<g>
		<g>
			<path class="st29" d="M180.71,203.38c1.93,0,1.93-3,0-3C178.78,200.38,178.77,203.38,180.71,203.38L180.71,203.38z"/>
		</g>
	</g>
	<g>
		<g>
			<path class="st29" d="M174.62,191.74c1.93,0,1.93-3,0-3C172.69,188.74,172.68,191.74,174.62,191.74L174.62,191.74z"/>
		</g>
	</g>
	<g>
		<g>
			<path class="st29" d="M176.53,197.97c1.93,0,1.93-3,0-3C174.6,194.97,174.6,197.97,176.53,197.97L176.53,197.97z"/>
		</g>
	</g>
	<g>
		<g>
			<path class="st29" d="M187.06,204.79c1.93,0,1.93-3,0-3C185.13,201.79,185.13,204.79,187.06,204.79L187.06,204.79z"/>
		</g>
	</g>
	<g>
		<g>
			<path class="st29" d="M183.71,198.97c1.93,0,1.93-3,0-3C181.78,195.97,181.77,198.97,183.71,198.97L183.71,198.97z"/>
		</g>
	</g>
</g>
</svg>
