<?xml version="1.0" encoding="utf-8"?>
<!-- Generator: Adobe Illustrator 23.0.5, SVG Export Plug-In . SVG Version: 6.00 Build 0)  -->
<svg version="1.1" xmlns="http://www.w3.org/2000/svg" xmlns:xlink="http://www.w3.org/1999/xlink" x="0px" y="0px"
	 viewBox="0 0 400 400" style="enable-background:new 0 0 400 400;" xml:space="preserve">
<style type="text/css">
	.st0{display:none;}
	.st1{display:inline;fill:#FFFFFF;stroke:#000000;stroke-width:7;stroke-miterlimit:10;}
	.st2{display:inline;fill:none;stroke:#0D553F;stroke-width:3;stroke-linecap:round;stroke-linejoin:round;stroke-miterlimit:10;}
	.st3{display:inline;fill:none;stroke:#BC8D16;stroke-width:3;stroke-linecap:round;stroke-linejoin:round;stroke-miterlimit:10;}
	.st4{display:inline;fill:none;stroke:#97D2B5;stroke-width:3;stroke-linecap:round;stroke-linejoin:round;stroke-miterlimit:10;}
	.st5{display:inline;fill:none;stroke:#7F58A5;stroke-width:3;stroke-linecap:round;stroke-linejoin:round;stroke-miterlimit:10;}
	.st6{display:inline;fill:none;stroke:#AE132A;stroke-width:3;stroke-linecap:round;stroke-linejoin:round;stroke-miterlimit:10;}
	.st7{display:inline;fill:none;stroke:#F36C52;stroke-width:3;stroke-linecap:round;stroke-linejoin:round;stroke-miterlimit:10;}
	.st8{display:inline;fill:#0D553F;}
	.st9{display:inline;fill:#BC8D16;}
	.st10{display:inline;fill:#97D2B5;}
	.st11{display:inline;fill:#7F58A5;}
	.st12{display:inline;fill:#AE132A;}
	.st13{display:inline;fill:#F36C52;}
	.st14{display:inline;}
	.st15{fill:none;stroke:#0D553F;stroke-width:3;stroke-linecap:round;stroke-linejoin:round;stroke-dasharray:0.7514,5.8338;}
	.st16{fill:none;stroke:#BC8D16;stroke-width:3;stroke-linecap:round;stroke-linejoin:round;stroke-dasharray:0.7514,5.8338;}
	.st17{fill:none;stroke:#97D2B5;stroke-width:3;stroke-linecap:round;stroke-linejoin:round;stroke-dasharray:0.7514,5.8338;}
	.st18{fill:none;stroke:#7F58A5;stroke-width:3;stroke-linecap:round;stroke-linejoin:round;stroke-dasharray:0.7514,5.8338;}
	.st19{fill:none;stroke:#AE132A;stroke-width:3;stroke-linecap:round;stroke-linejoin:round;stroke-dasharray:0.7514,5.8338;}
	.st20{fill:none;stroke:#F36C52;stroke-width:3;stroke-linecap:round;stroke-linejoin:round;stroke-dasharray:0.7514,5.8338;}
	.st21{fill:none;stroke:#7F58A5;stroke-width:3;stroke-linecap:round;stroke-linejoin:round;stroke-miterlimit:10;}
	.st22{fill:none;stroke:#BC8D16;stroke-width:3;stroke-linecap:round;stroke-linejoin:round;stroke-miterlimit:10;}
	.st23{fill:none;stroke:#0D553F;stroke-width:3;stroke-linecap:round;stroke-linejoin:round;stroke-miterlimit:10;}
	.st24{fill:#0D553F;}
	.st25{fill:none;stroke:#AE132A;stroke-width:3;stroke-linecap:round;stroke-linejoin:round;stroke-miterlimit:10;}
	.st26{fill:none;stroke:#97D2B5;stroke-width:3;stroke-linecap:round;stroke-linejoin:round;stroke-miterlimit:10;}
	.st27{fill:#BC8D16;}
	.st28{fill:#AE132A;}
	.st29{fill:#97D2B5;}
</style>
<g id="Circles" class="st0">
	<circle class="st1" cx="200" cy="200" r="110"/>
</g>
<g id="Icons">
	<g>
		<path class="st22" d="M148.19,178.49l-7.39,3.41c-0.94,0.43-2.06,0.02-2.49-0.92l-0.61-1.33c-0.43-0.94-0.02-2.06,0.92-2.49
			l7.39-3.41c0.94-0.43,2.06-0.02,2.49,0.92l0.61,1.33C149.55,176.94,149.13,178.06,148.19,178.49z"/>
		<path class="st22" d="M148.54,178.33l0.89,1.94c0.13,0.29,0.33,0.54,0.59,0.72l9.18,6.8c2.64,1.95,4.74,4.54,6.11,7.52
			l13.85,30.05c0.43,0.94,0.02,2.06-0.92,2.49l-9.71,4.48l-9.71,4.48c-0.94,0.43-2.06,0.02-2.49-0.92l-13.85-30.05
			c-1.37-2.98-1.97-6.26-1.75-9.53l0.79-11.39c0.02-0.31-0.04-0.63-0.17-0.92l-0.89-1.94"/>
		<path class="st22" d="M145.27,196.09l-0.03,0.8c-0.1,2.46,0.38,4.91,1.41,7.15l5.91,12.82"/>
		<line class="st22" x1="144.22" y1="209.63" x2="167.06" y2="199.1"/>
		<line class="st22" x1="152.52" y1="227.64" x2="175.36" y2="217.11"/>
	</g>
	<g>
		<path class="st22" d="M238.79,197.87c-3.42-2.52-4.8-7.13-3.1-11.22c2.01-4.81,9.62-12.1,14.44-10.09
			c4.54,1.89,4.96,11.38,3.32,16.49"/>
		<path class="st22" d="M252.87,216.42c-4.67,2.31-10.34,0.4-12.65-4.27c-2.31-4.67-0.4-10.34,4.27-12.65
			c4.67-2.31,15.21-2.81,17.52,1.87C264.32,206.03,257.54,214.1,252.87,216.42z"/>
	</g>
	<g>
		<path class="st23" d="M180.12,172.16c0.84,5.49,1.14,11.04,1.07,16.59c-0.08,5.78,0.42,6.14-1.31,11.74
			c-0.14,0.46-0.82,1.75-0.6,2.18c0.14,0.26,0.48,0.33,0.77,0.37c14.44,1.98,29.07,2.58,43.62,1.82c-1.69-7.47-3.31-8.11-3.31-15.48
			c0-7.38-0.18-11.75-0.46-19.12"/>
		<path class="st23" d="M180.23,160.13c-1.56-0.25-3.03,1.07-3.51,2.58s0.78,3.14,1.04,4.7c0.21,1.27-0.51,2.64,0.46,3.48
			c0.78,0.67,1.85,0.86,2.87,1c12.66,1.8,25.66,1.17,38.08-1.86c1.11-0.27,2.81-0.23,3.13-1.33c0.42-1.41-0.39-2.69-0.03-4.23
			c0.29-1.26,1.58-2.58,1.25-3.83c-0.55-2.11-0.74-4.54-4.85-2.89"/>
		<path class="st23" d="M178.4,161.53c14.07,2.62,29.75,1.89,43.49-2.1"/>
		<path class="st23" d="M181.51,159.9c2.39-2.55,4.85-4.85,7.57-7.03c2.45-1.97,5.27-5.11,8.61-5.37c2.65-0.2,4.91,1.34,7.07,2.62
			c4.38,2.6,8.52,5.5,12.78,8.28"/>
		<path class="st23" d="M198.95,177.15c0,0,9.52-0.35,14.34-1.65"/>
		<g>
			<g>
				<path class="st24" d="M188.68,160.28c1.93,0,1.93-3,0-3C186.75,157.28,186.75,160.28,188.68,160.28L188.68,160.28z"/>
			</g>
		</g>
		<g>
			<g>
				<path class="st24" d="M193.09,155.61c1.93,0,1.93-3,0-3C191.16,152.61,191.16,155.61,193.09,155.61L193.09,155.61z"/>
			</g>
		</g>
		<g>
			<g>
				<path class="st24" d="M203.59,155.96c1.93,0,1.93-3,0-3C201.66,152.96,201.66,155.96,203.59,155.96L203.59,155.96z"/>
			</g>
		</g>
		<g>
			<g>
				<path class="st24" d="M198.91,160.37c1.93,0,1.93-3,0-3C196.98,157.37,196.98,160.37,198.91,160.37L198.91,160.37z"/>
			</g>
		</g>
		<g>
			<g>
				<path class="st24" d="M207.91,159.58c1.93,0,1.93-3,0-3C205.98,156.58,205.98,159.58,207.91,159.58L207.91,159.58z"/>
			</g>
		</g>
	</g>
	<g>
		<polygon class="st25" points="205.42,213.69 239.42,227.94 231.1,229.82 215.53,252.52 195.91,244.3 		"/>
		<path class="st25" d="M203.85,218.73l-2.18-0.92c-3.16-1.32-6.74,0.55-7.46,3.89l-0.99,4.62c-0.55,2.57,0.8,5.18,3.23,6.19
			l2.76,1.16"/>
		<line class="st25" x1="219.59" y1="228.63" x2="214.21" y2="226.38"/>
		<line class="st25" x1="210.46" y1="250.4" x2="219.59" y2="228.63"/>
		<line class="st25" x1="216.55" y1="235.89" x2="211.17" y2="233.64"/>
		<line class="st25" x1="213.51" y1="243.14" x2="208.13" y2="240.89"/>
	</g>
</g>
</svg>
