<?xml version="1.0" encoding="utf-8"?>
<!-- Generator: Adobe Illustrator 23.0.5, SVG Export Plug-In . SVG Version: 6.00 Build 0)  -->
<svg version="1.1" xmlns="http://www.w3.org/2000/svg" xmlns:xlink="http://www.w3.org/1999/xlink" x="0px" y="0px"
	 viewBox="0 0 400 400" style="enable-background:new 0 0 400 400;" xml:space="preserve">
<style type="text/css">
	.st0{display:none;}
	.st1{display:inline;fill:#FFFFFF;stroke:#000000;stroke-width:7;stroke-miterlimit:10;}
	.st2{display:inline;fill:none;stroke:#0D553F;stroke-width:3;stroke-linecap:round;stroke-linejoin:round;stroke-miterlimit:10;}
	.st3{display:inline;fill:none;stroke:#BC8D16;stroke-width:3;stroke-linecap:round;stroke-linejoin:round;stroke-miterlimit:10;}
	.st4{display:inline;fill:none;stroke:#97D2B5;stroke-width:3;stroke-linecap:round;stroke-linejoin:round;stroke-miterlimit:10;}
	.st5{display:inline;fill:none;stroke:#7F58A5;stroke-width:3;stroke-linecap:round;stroke-linejoin:round;stroke-miterlimit:10;}
	.st6{display:inline;fill:none;stroke:#AE132A;stroke-width:3;stroke-linecap:round;stroke-linejoin:round;stroke-miterlimit:10;}
	.st7{display:inline;fill:none;stroke:#F36C52;stroke-width:3;stroke-linecap:round;stroke-linejoin:round;stroke-miterlimit:10;}
	.st8{display:inline;fill:#0D553F;}
	.st9{display:inline;fill:#BC8D16;}
	.st10{display:inline;fill:#97D2B5;}
	.st11{display:inline;fill:#7F58A5;}
	.st12{display:inline;fill:#AE132A;}
	.st13{display:inline;fill:#F36C52;}
	.st14{display:inline;}
	.st15{fill:none;stroke:#0D553F;stroke-width:3;stroke-linecap:round;stroke-linejoin:round;stroke-dasharray:0.7514,5.8338;}
	.st16{fill:none;stroke:#BC8D16;stroke-width:3;stroke-linecap:round;stroke-linejoin:round;stroke-dasharray:0.7514,5.8338;}
	.st17{fill:none;stroke:#97D2B5;stroke-width:3;stroke-linecap:round;stroke-linejoin:round;stroke-dasharray:0.7514,5.8338;}
	.st18{fill:none;stroke:#7F58A5;stroke-width:3;stroke-linecap:round;stroke-linejoin:round;stroke-dasharray:0.7514,5.8338;}
	.st19{fill:none;stroke:#AE132A;stroke-width:3;stroke-linecap:round;stroke-linejoin:round;stroke-dasharray:0.7514,5.8338;}
	.st20{fill:none;stroke:#F36C52;stroke-width:3;stroke-linecap:round;stroke-linejoin:round;stroke-dasharray:0.7514,5.8338;}
	.st21{fill:none;stroke:#7F58A5;stroke-width:3;stroke-linecap:round;stroke-linejoin:round;stroke-miterlimit:10;}
	.st22{fill:none;stroke:#BC8D16;stroke-width:3;stroke-linecap:round;stroke-linejoin:round;stroke-miterlimit:10;}
	.st23{fill:none;stroke:#0D553F;stroke-width:3;stroke-linecap:round;stroke-linejoin:round;stroke-miterlimit:10;}
	.st24{fill:#0D553F;}
	.st25{fill:none;stroke:#AE132A;stroke-width:3;stroke-linecap:round;stroke-linejoin:round;stroke-miterlimit:10;}
	.st26{fill:none;stroke:#97D2B5;stroke-width:3;stroke-linecap:round;stroke-linejoin:round;stroke-miterlimit:10;}
	.st27{fill:#BC8D16;}
	.st28{fill:#AE132A;}
	.st29{fill:#97D2B5;}
</style>
<g id="Circles" class="st0">
	<circle class="st1" cx="200" cy="200" r="110"/>
</g>
<g id="Icons">
	<polyline class="st23" points="178.63,201.3 178.63,189.31 174.54,189.31 174.54,201.3 	"/>
	<polyline class="st23" points="202.05,201.3 202.05,189.31 197.95,189.31 197.95,201.3 	"/>
	<polyline class="st23" points="225.46,201.3 225.46,189.31 221.37,189.31 221.37,201.3 	"/>
	<line class="st23" x1="223.42" y1="187.82" x2="223.42" y2="186.04"/>
	<line class="st23" x1="200" y1="187.82" x2="200" y2="186.04"/>
	<line class="st23" x1="176.58" y1="187.82" x2="176.58" y2="186.04"/>
	<path class="st22" d="M180.3,181.58c0-2.05-3.72-6.73-3.72-6.73s-3.72,4.67-3.72,6.73c0,2.05,1.66,3.72,3.72,3.72
		S180.3,183.63,180.3,181.58z"/>
	<path class="st22" d="M203.72,181.58c0-2.05-3.72-6.73-3.72-6.73s-3.72,4.67-3.72,6.73c0,2.05,1.66,3.72,3.72,3.72
		S203.72,183.63,203.72,181.58z"/>
	<path class="st22" d="M227.14,181.58c0-2.05-3.72-6.73-3.72-6.73s-3.72,4.67-3.72,6.73c0,2.05,1.66,3.72,3.72,3.72
		S227.14,183.63,227.14,181.58z"/>
	<line class="st23" x1="138.52" y1="240.57" x2="261.48" y2="240.57"/>
	<polyline class="st22" points="242.76,212.76 242.76,234.67 157.24,234.67 157.24,212.76 	"/>
	<path class="st21" d="M162.43,202.12h75.14c2.86,0,5.18,2.32,5.18,5.18v1.83v0c-7.13,0-7.13,5.42-14.25,5.42
		c-7.13,0-7.13-5.42-14.25-5.42c-7.13,0-7.13,5.42-14.25,5.42c-7.13,0-7.13-5.42-14.25-5.42c-7.12,0-7.12,5.42-14.25,5.42
		c-7.13,0-7.13-5.42-14.25-5.42v0v-1.83C157.24,204.44,159.57,202.12,162.43,202.12"/>
	<path class="st22" d="M234.25,169.95c1.89-1.6,3.78-3.19,5.67-4.79"/>
	<path class="st22" d="M215.76,167.9c-0.76-0.99-1.51-1.97-2.27-2.96"/>
	<path class="st22" d="M223.65,161.95c-0.08-1.44-0.15-2.88-0.23-4.32"/>
	<path class="st22" d="M164.95,173.29c-0.7-0.7-1.39-1.4-2.09-2.1"/>
	<path class="st22" d="M174.93,164.44c-0.4-2.34-0.79-4.67-1.19-7.01"/>
	<path class="st22" d="M184.39,170.8c1.15-1,2.09-2.25,2.73-3.64"/>
	<path class="st22" d="M199.77,164.23c-0.08-0.91-0.15-1.82-0.23-2.73"/>
</g>
</svg>
