<?xml version="1.0" encoding="utf-8"?>
<!-- Generator: Adobe Illustrator 23.0.5, SVG Export Plug-In . SVG Version: 6.00 Build 0)  -->
<svg version="1.1" xmlns="http://www.w3.org/2000/svg" xmlns:xlink="http://www.w3.org/1999/xlink" x="0px" y="0px"
	 viewBox="0 0 400 400" style="enable-background:new 0 0 400 400;" xml:space="preserve">
<style type="text/css">
	.st0{display:none;}
	.st1{display:inline;fill:#FFFFFF;stroke:#000000;stroke-width:7;stroke-miterlimit:10;}
	.st2{display:inline;fill:none;stroke:#0D553F;stroke-width:3;stroke-linecap:round;stroke-linejoin:round;stroke-miterlimit:10;}
	.st3{display:inline;fill:none;stroke:#BC8D16;stroke-width:3;stroke-linecap:round;stroke-linejoin:round;stroke-miterlimit:10;}
	.st4{display:inline;fill:none;stroke:#97D2B5;stroke-width:3;stroke-linecap:round;stroke-linejoin:round;stroke-miterlimit:10;}
	.st5{display:inline;fill:none;stroke:#7F58A5;stroke-width:3;stroke-linecap:round;stroke-linejoin:round;stroke-miterlimit:10;}
	.st6{display:inline;fill:none;stroke:#AE132A;stroke-width:3;stroke-linecap:round;stroke-linejoin:round;stroke-miterlimit:10;}
	.st7{display:inline;fill:none;stroke:#F36C52;stroke-width:3;stroke-linecap:round;stroke-linejoin:round;stroke-miterlimit:10;}
	.st8{display:inline;fill:#0D553F;}
	.st9{display:inline;fill:#BC8D16;}
	.st10{display:inline;fill:#97D2B5;}
	.st11{display:inline;fill:#7F58A5;}
	.st12{display:inline;fill:#AE132A;}
	.st13{display:inline;fill:#F36C52;}
	.st14{display:inline;}
	.st15{fill:none;stroke:#0D553F;stroke-width:3;stroke-linecap:round;stroke-linejoin:round;stroke-dasharray:0.7514,5.8338;}
	.st16{fill:none;stroke:#BC8D16;stroke-width:3;stroke-linecap:round;stroke-linejoin:round;stroke-dasharray:0.7514,5.8338;}
	.st17{fill:none;stroke:#97D2B5;stroke-width:3;stroke-linecap:round;stroke-linejoin:round;stroke-dasharray:0.7514,5.8338;}
	.st18{fill:none;stroke:#7F58A5;stroke-width:3;stroke-linecap:round;stroke-linejoin:round;stroke-dasharray:0.7514,5.8338;}
	.st19{fill:none;stroke:#AE132A;stroke-width:3;stroke-linecap:round;stroke-linejoin:round;stroke-dasharray:0.7514,5.8338;}
	.st20{fill:none;stroke:#F36C52;stroke-width:3;stroke-linecap:round;stroke-linejoin:round;stroke-dasharray:0.7514,5.8338;}
	.st21{fill:none;stroke:#7F58A5;stroke-width:3;stroke-linecap:round;stroke-linejoin:round;stroke-miterlimit:10;}
	.st22{fill:none;stroke:#BC8D16;stroke-width:3;stroke-linecap:round;stroke-linejoin:round;stroke-miterlimit:10;}
	.st23{fill:none;stroke:#0D553F;stroke-width:3;stroke-linecap:round;stroke-linejoin:round;stroke-miterlimit:10;}
	.st24{fill:#0D553F;}
	.st25{fill:none;stroke:#AE132A;stroke-width:3;stroke-linecap:round;stroke-linejoin:round;stroke-miterlimit:10;}
	.st26{fill:none;stroke:#97D2B5;stroke-width:3;stroke-linecap:round;stroke-linejoin:round;stroke-miterlimit:10;}
	.st27{fill:#BC8D16;}
	.st28{fill:#AE132A;}
	.st29{fill:#97D2B5;}
</style>
<g id="Circles" class="st0">
	<circle class="st1" cx="200" cy="200" r="110"/>
</g>
<g id="Icons">
	<line class="st22" x1="204.81" y1="174.6" x2="259.21" y2="174.6"/>
	<polyline class="st25" points="200,243.86 179.67,243.86 179.67,203.6 179.67,196.47 	"/>
	<polyline class="st25" points="179.67,204.63 169.1,209.22 163.2,195.64 182.04,187.45 	"/>
	<polyline class="st25" points="217.96,187.45 210.97,187.45 189.03,187.45 182.04,187.45 	"/>
	<polyline class="st25" points="200,243.86 220.33,243.86 220.33,203.6 220.33,196.47 	"/>
	<polyline class="st25" points="217.96,187.45 236.8,195.64 230.9,209.22 220.33,204.63 	"/>
	<line class="st26" x1="207.4" y1="184.72" x2="210.97" y2="187.45"/>
	<polyline class="st26" points="189.03,187.45 200,179.06 207.4,184.72 	"/>
	<path class="st25" d="M200,195.42c-5.12,0-9.47-3.35-10.97-7.97"/>
	<path class="st26" d="M200,179.06c2.46,0,4.46-2,4.46-4.46s-2-4.46-4.46-4.46s-4.46,2-4.46,4.46"/>
	<line class="st22" x1="140.79" y1="174.6" x2="200.42" y2="174.6"/>
	<path class="st25" d="M210.97,187.45c-1.5,4.62-5.85,7.97-10.97,7.97"/>
	<line class="st26" x1="165.94" y1="215" x2="165.94" y2="220.16"/>
	<line class="st26" x1="226.29" y1="215" x2="226.29" y2="220.16"/>
	<line class="st26" x1="239.35" y1="202.29" x2="239.35" y2="206"/>
	<line class="st26" x1="182.88" y1="252.76" x2="182.88" y2="257.35"/>
	<line class="st26" x1="194.52" y1="260" x2="194.52" y2="264.76"/>
	<line class="st26" x1="194.52" y1="250.21" x2="194.52" y2="252.32"/>
	<line class="st26" x1="209.18" y1="251.88" x2="209.18" y2="256.65"/>
	<line class="st26" x1="222.06" y1="249.41" x2="222.06" y2="256.65"/>
	<line class="st26" x1="200.42" y1="212.53" x2="200.42" y2="217.58"/>
	<line class="st26" x1="210.17" y1="224" x2="210.17" y2="230.88"/>
	<line class="st26" x1="185.53" y1="221.18" x2="185.53" y2="226.12"/>
	<line class="st26" x1="185.53" y1="196.47" x2="185.53" y2="201.24"/>
</g>
</svg>
